<?xml version="1.0" encoding="UTF-8" standalone="no"?><!DOCTYPE svg PUBLIC "-//W3C//DTD SVG 1.1//EN" "http://www.w3.org/Graphics/SVG/1.1/DTD/svg11.dtd"><svg width="100%" height="100%" viewBox="0 0 201 180" version="1.1" xmlns="http://www.w3.org/2000/svg" xmlns:xlink="http://www.w3.org/1999/xlink" xml:space="preserve" xmlns:serif="http://www.serif.com/" style="fill-rule:evenodd;clip-rule:evenodd;stroke-linejoin:round;stroke-miterlimit:2;"><g><path d="M0.017,112.15l0,61.451c0,0.521 -0.044,1.047 0.009,1.564c0.397,3.922 2.66,5.283 6.31,3.759c2.534,-1.057 4.995,-2.299 7.563,-3.262c8.181,-3.069 16.651,-5.152 25.342,-5.747c7.275,-0.499 14.644,-0.465 21.866,0.859c8.983,1.647 17.682,4.301 25.884,8.424c1.311,0.659 2.637,0.688 3.991,0.027c5.009,-2.443 10.158,-4.514 15.543,-6.001c6.683,-1.844 13.45,-3.25 20.388,-3.356c4.496,-0.069 8.993,-0.21 13.515,0.319c6.005,0.704 11.889,1.803 17.674,3.525c4.514,1.345 8.838,3.149 13.104,5.136c4.138,1.927 6.369,0.467 6.369,-4.011c0,-35.827 0.004,-71.656 -0.012,-107.483c-0.001,-1.775 0.307,-3.321 1.164,-4.988c6.708,-13.056 13.075,-26.29 19.922,-39.27c2.883,-5.467 1.871,-14.189 -3.089,-18.446c-8.623,-7.403 -20.548,-5.934 -25.575,4.175c-4.497,9.043 -9.166,18 -13.653,27.048c-0.601,1.213 -1.292,1.448 -2.359,1.158c-6.152,-1.671 -12.483,-2.179 -18.787,-2.586c-6.312,-0.407 -12.613,0.238 -18.884,1.225c-8.767,1.38 -17.229,3.681 -25.303,7.411c-1.052,0.486 -2.146,1.016 -3.509,0.285c-3.637,-1.951 -7.554,-3.262 -11.487,-4.477c-9.023,-2.787 -18.274,-4.254 -27.708,-4.496c-3.094,-0.08 -6.185,0.18 -9.276,0.335c-3.236,0.163 -6.446,0.579 -9.591,1.103c-7.781,1.297 -15.351,3.585 -22.546,6.82c-2.607,1.172 -6.339,1.539 -6.683,5.624c-0.068,0.808 -0.174,1.616 -0.174,2.423c-0.01,20.484 -0.008,40.968 -0.008,61.452" style="fill:#fefefe;fill-rule:nonzero;"/><path d="M133.217,115.36c0.183,0.115 0.367,0.231 0.551,0.346c3.649,-2.951 7.304,-5.895 10.938,-8.865c0.403,-0.329 0.418,-0.667 -0.195,-0.967c-3.336,-1.631 -6.647,-3.313 -9.995,-4.992c-1.202,4.958 -0.134,9.795 -1.299,14.478m59.567,-99.948c0.177,-0.947 -0.242,-2.153 -0.907,-3.344c-1.248,-2.236 -3.539,-3.007 -5.631,-3.93c-2.803,-1.239 -5.4,-0.629 -7.548,1.642c-1.95,2.061 -2.638,4.83 -4.041,7.197c-0.538,0.906 0.334,1.315 0.777,1.545c4.12,2.142 8.288,4.191 12.436,6.279c0.627,0.316 1.28,0.297 1.533,-0.328c1.157,-2.86 3.488,-5.27 3.381,-9.061m-42.189,85.017c1.768,-3.237 3.338,-6.348 4.938,-9.438c6.112,-11.805 12.018,-23.717 18.028,-35.576c3.677,-7.257 7.366,-14.509 11.135,-21.719c0.896,-1.712 -0.276,-1.989 -1.324,-2.438c-0.908,-0.388 -1.842,-1.579 -2.669,0.257c-1.817,4.039 -3.941,7.925 -6.019,11.837c-4.02,7.57 -7.621,15.353 -11.657,22.922c-4.989,9.356 -9.641,18.893 -14.433,28.354c-0.559,1.101 -1.59,2.251 -1.511,3.312c0.102,1.357 2.081,1.183 2.981,2.077c0.157,0.155 0.35,0.273 0.531,0.412m20.104,-75.77c-3.214,6.247 -6.401,12.509 -9.651,18.738c-4.034,7.729 -7.71,15.638 -11.849,23.32c-4.305,7.991 -8.176,16.215 -12.395,24.254c-0.882,1.682 -0.439,2.208 1.011,2.884c1.343,0.626 2.247,1.208 3.183,-0.718c3.878,-7.969 7.832,-15.899 11.951,-23.753c6.75,-12.868 13.155,-25.917 19.694,-38.895c1.959,-3.889 1.943,-3.897 -1.944,-5.83m-18.535,19.631c-0.844,-0.06 -1.458,-0.009 -2.019,-0.157c-5.467,-1.444 -11.074,-1.843 -16.675,-2.12c-5.513,-0.272 -10.974,0.471 -16.435,1.264c-7.57,1.1 -14.763,3.38 -21.83,6.224c-1.823,0.734 -2.45,1.633 -2.447,3.652c0.072,37.992 0.051,75.986 0.065,113.978c0,0.857 -0.215,1.75 0.187,2.592c25.62,-10.096 51.197,-10.206 76.878,0.046l0,-89.776c-4.809,8.592 -8.927,17.221 -13.212,25.759c-0.942,1.875 -2.377,3.186 -3.842,4.489c-2.011,1.791 -4.207,3.373 -6.295,5.08c-4.979,4.069 -9.913,8.194 -14.93,12.215c-1.276,1.022 -2.835,1.039 -4.347,0.293c-1.433,-0.707 -1.951,-1.902 -1.884,-3.428c0.086,-1.984 0.292,-3.988 0.339,-5.941c0.161,-6.726 0.935,-13.417 0.983,-20.141c0.019,-2.676 0.511,-5.156 1.761,-7.568c3.009,-5.81 5.71,-11.785 8.825,-17.536c5.122,-9.457 9.425,-19.328 14.878,-28.925m-66.937,125.519l0,-2.675c0,-36.653 -0.109,-73.307 0.13,-109.96c0.032,-4.908 -0.952,-7.418 -5.927,-9.104c-9.713,-3.291 -19.539,-5.56 -29.75,-6.063c-6.031,-0.297 -12.029,0.244 -17.995,1.282c-7.586,1.32 -14.914,3.388 -21.978,6.506c-1.813,0.8 -2.15,1.721 -2.147,3.514c0.054,37.994 0.041,75.989 0.041,113.984l0,2.636c25.917,-10.378 51.649,-10.408 77.626,-0.12m-85.21,-57.659c0,-20.484 -0.002,-40.968 0.008,-61.452c0,-0.808 0.106,-1.615 0.174,-2.423c0.344,-4.085 4.076,-4.452 6.683,-5.624c7.195,-3.235 14.765,-5.523 22.546,-6.82c3.145,-0.524 6.355,-0.94 9.592,-1.103c3.09,-0.155 6.181,-0.415 9.274,-0.335c9.435,0.242 18.686,1.709 27.709,4.496c3.933,1.215 7.849,2.526 11.487,4.477c1.364,0.73 2.457,0.201 3.509,-0.285c8.074,-3.73 16.536,-6.031 25.303,-7.411c6.272,-0.987 12.572,-1.632 18.884,-1.225c6.304,0.407 12.635,0.915 18.787,2.586c1.067,0.29 1.758,0.055 2.359,-1.158c4.487,-9.048 9.156,-18.005 13.653,-27.049c5.027,-10.108 16.951,-11.577 25.575,-4.174c4.96,4.257 5.973,12.979 3.089,18.445c-6.847,12.981 -13.214,26.215 -19.922,39.271c-0.857,1.667 -1.165,3.213 -1.164,4.988c0.016,35.828 0.012,71.656 0.012,107.484c0,4.477 -2.231,5.937 -6.369,4.01c-4.266,-1.987 -8.59,-3.791 -13.104,-5.136c-5.785,-1.722 -11.669,-2.821 -17.674,-3.525c-4.522,-0.529 -9.019,-0.388 -13.515,-0.319c-6.938,0.106 -13.705,1.512 -20.388,3.356c-5.385,1.487 -10.534,3.557 -15.544,6.001c-1.353,0.661 -2.679,0.632 -3.989,-0.027c-8.203,-4.124 -16.903,-6.777 -25.885,-8.424c-7.221,-1.324 -14.591,-1.358 -21.866,-0.859c-8.691,0.595 -17.161,2.678 -25.343,5.747c-2.567,0.963 -5.028,2.205 -7.562,3.262c-3.65,1.524 -5.913,0.163 -6.311,-3.759c-0.051,-0.517 -0.008,-1.043 -0.008,-1.564l0,-61.451" style="fill:#008caa;fill-rule:nonzero;"/><path d="M46.423,78.643c6.761,0 13.521,0.006 20.282,-0.002c2.822,-0.003 4.461,-1.29 4.497,-3.494c0.035,-2.187 -1.674,-3.632 -4.399,-3.635c-13.522,-0.012 -27.043,-0.011 -40.565,-0.001c-2.895,0.002 -4.393,1.23 -4.421,3.54c-0.029,2.367 1.415,3.584 4.323,3.589c6.761,0.011 13.522,0.003 20.283,0.003m0.223,14.242c-6.835,0 -13.669,-0.006 -20.503,0.003c-2.86,0.004 -4.249,1.089 -4.326,3.328c-0.083,2.357 1.385,3.767 4.2,3.773c13.669,0.033 27.339,0.032 41.007,0c2.578,-0.006 4.22,-1.535 4.195,-3.658c-0.025,-2.153 -1.598,-3.437 -4.292,-3.442c-6.761,-0.012 -13.521,-0.004 -20.281,-0.004m-0.337,28.279c6.908,0 13.817,0.014 20.725,-0.008c2.647,-0.008 4.218,-1.387 4.177,-3.558c-0.039,-2.051 -1.616,-3.516 -4.076,-3.522c-13.742,-0.032 -27.485,-0.033 -41.228,0c-2.708,0.006 -4.123,1.356 -4.095,3.633c0.028,2.275 1.414,3.44 4.217,3.448c6.76,0.019 13.52,0.006 20.28,0.007m0.337,21.385c7.058,0 14.116,0.005 21.174,-0.002c2.056,-0.003 3.266,-1.308 3.608,-3.304c0.418,-2.447 -2.297,-4.331 -4.908,-4.319c-13.224,0.061 -26.449,0.028 -39.673,0.032c-0.517,0 -1.05,-0.03 -1.549,0.08c-2.792,0.618 -4.1,2.125 -3.865,4.392c0.223,2.146 1.693,3.121 4.708,3.121c6.835,0.001 13.67,0 20.505,0m38.581,27.26c-25.977,-10.288 -51.709,-10.258 -77.626,0.12l0,-2.636c0,-37.995 0.013,-75.99 -0.041,-113.984c-0.003,-1.793 0.334,-2.713 2.147,-3.514c7.064,-3.118 14.392,-5.186 21.978,-6.506c5.966,-1.038 11.964,-1.579 17.995,-1.282c10.211,0.503 20.037,2.772 29.75,6.063c4.975,1.686 5.959,4.196 5.927,9.104c-0.239,36.653 -0.13,73.307 -0.13,109.961l0,2.674Z" style="fill:#fefefe;fill-rule:nonzero;"/><path d="M113.272,113.943c-1.112,0 -2.231,-0.085 -3.333,0.019c-1.641,0.156 -2.976,0.919 -3.272,2.664c-0.423,2.498 0.335,3.868 2.337,4.508c2.663,0.85 5.422,0.525 8.092,0.254c2.05,-0.208 3.188,-2.313 2.927,-4.382c-0.241,-1.911 -1.647,-3.031 -3.861,-3.061c-0.963,-0.014 -1.926,-0.003 -2.89,-0.002m0.564,-13.858c1.258,0 2.52,-0.066 3.772,0.016c1.802,0.118 2.901,-1.055 3.203,-2.415c0.36,-1.615 0.565,-3.636 -1.627,-4.484c-3.326,-1.287 -6.779,-1.063 -10.099,-0.249c-2.275,0.557 -3.042,2.289 -2.39,4.634c0.49,1.76 1.826,2.705 3.813,2.517c1.1,-0.105 2.218,-0.019 3.328,-0.019m3.358,-20.948c2.52,-0.377 5.255,0.382 7.951,-0.475c1.869,-0.594 3.187,-2.035 2.888,-3.765c-0.443,-2.565 -1.633,-3.438 -3.73,-3.427c-4.75,0.024 -9.501,0.053 -14.25,-0.015c-1.872,-0.027 -2.946,0.996 -3.358,2.544c-0.612,2.295 0.304,3.958 2.206,4.613c2.659,0.917 5.414,0.241 8.293,0.525m14.087,63.413c7.202,0 14.407,-0.105 21.606,0.057c2.499,0.056 3.958,-2.581 3.298,-4.574c-0.737,-2.23 -2.041,-3.078 -5.052,-3.08c-12.029,-0.006 -24.059,-0.002 -36.088,-0.002c-1.336,0 -2.694,-0.155 -4.005,0.029c-3.827,0.536 -4.545,1.527 -4.408,4.365c0.122,2.53 1.005,3.205 4.377,3.205l20.272,0m20.883,-98.261c-5.453,9.598 -9.756,19.469 -14.878,28.926c-3.115,5.751 -5.816,11.726 -8.825,17.536c-1.25,2.412 -1.742,4.892 -1.761,7.567c-0.048,6.724 -0.822,13.416 -0.983,20.143c-0.047,1.952 -0.253,3.956 -0.339,5.94c-0.067,1.527 0.451,2.722 1.884,3.428c1.512,0.746 3.071,0.729 4.347,-0.293c5.017,-4.02 9.951,-8.146 14.93,-12.215c2.088,-1.707 4.284,-3.289 6.295,-5.08c1.465,-1.303 2.9,-2.613 3.842,-4.488c4.285,-8.539 8.403,-17.168 13.212,-25.76l0,89.776c-25.681,-10.252 -51.258,-10.143 -76.878,-0.046c-0.402,-0.842 -0.187,-1.735 -0.187,-2.592c-0.014,-37.993 0.007,-75.985 -0.065,-113.978c-0.003,-2.02 0.624,-2.918 2.447,-3.651c7.067,-2.846 14.26,-5.125 21.83,-6.225c5.461,-0.792 10.922,-1.536 16.435,-1.264c5.601,0.277 11.208,0.677 16.675,2.12c0.561,0.148 1.175,0.097 2.019,0.156" style="fill:#fefefe;fill-rule:nonzero;"/><path d="M170.699,24.658c3.887,1.934 3.903,1.942 1.944,5.83c-6.54,12.979 -12.944,26.029 -19.694,38.896c-4.119,7.853 -8.073,15.784 -11.95,23.754c-0.937,1.925 -1.84,1.343 -3.184,0.717c-1.45,-0.676 -1.893,-1.202 -1.011,-2.884c4.218,-8.039 8.09,-16.263 12.396,-24.254c4.138,-7.681 7.813,-15.591 11.848,-23.321c3.251,-6.228 6.436,-12.49 9.651,-18.738" style="fill:#fefefe;fill-rule:nonzero;"/><path d="M150.595,100.429c-0.181,-0.139 -0.374,-0.257 -0.531,-0.412c-0.901,-0.894 -2.878,-0.72 -2.98,-2.077c-0.08,-1.061 0.952,-2.211 1.509,-3.312c4.794,-9.461 9.445,-18.998 14.434,-28.354c4.036,-7.569 7.637,-15.352 11.657,-22.922c2.077,-3.912 4.202,-7.798 6.02,-11.837c0.826,-1.837 1.761,-0.645 2.668,-0.257c1.048,0.448 2.219,0.726 1.324,2.438c-3.768,7.21 -7.458,14.461 -11.136,21.719c-6.009,11.858 -11.915,23.771 -18.027,35.576c-1.599,3.09 -3.17,6.2 -4.938,9.438" style="fill:#fefefe;fill-rule:nonzero;"/><path d="M192.785,15.412c0.106,3.791 -2.225,6.201 -3.382,9.061c-0.254,0.626 -0.906,0.644 -1.533,0.328c-4.148,-2.088 -8.315,-4.137 -12.435,-6.279c-0.443,-0.23 -1.316,-0.639 -0.778,-1.546c1.404,-2.366 2.091,-5.135 4.041,-7.196c2.149,-2.271 4.745,-2.881 7.548,-1.642c2.092,0.923 4.383,1.694 5.631,3.931c0.665,1.19 1.084,2.396 0.908,3.343" style="fill:#fefefe;fill-rule:nonzero;"/><path d="M133.217,115.36c1.165,-4.683 0.097,-9.52 1.299,-14.478c3.348,1.679 6.659,3.361 9.995,4.992c0.613,0.3 0.598,0.638 0.195,0.967c-3.634,2.97 -7.289,5.914 -10.938,8.865c-0.184,-0.115 -0.368,-0.231 -0.551,-0.346" style="fill:#fefefe;fill-rule:nonzero;"/><path d="M46.646,142.549c-6.835,0 -13.67,0.001 -20.504,0c-3.017,0 -4.486,-0.975 -4.709,-3.121c-0.235,-2.267 1.072,-3.774 3.865,-4.391c0.499,-0.111 1.032,-0.082 1.549,-0.082c13.224,-0.003 26.449,0.03 39.673,-0.031c2.611,-0.011 5.326,1.873 4.908,4.319c-0.342,1.996 -1.552,3.302 -3.608,3.303c-7.058,0.008 -14.116,0.003 -21.174,0.003" style="fill:#008caa;fill-rule:nonzero;"/><path d="M46.309,121.163c-6.76,0 -13.52,0.013 -20.28,-0.006c-2.803,-0.007 -4.189,-1.173 -4.217,-3.447c-0.028,-2.278 1.387,-3.628 4.095,-3.634c13.743,-0.033 27.486,-0.033 41.228,0c2.46,0.006 4.037,1.47 4.076,3.522c0.041,2.171 -1.53,3.55 -4.177,3.558c-6.908,0.022 -13.817,0.007 -20.725,0.007" style="fill:#008caa;fill-rule:nonzero;"/><path d="M46.646,92.885c6.76,0 13.52,-0.008 20.281,0.004c2.693,0.005 4.267,1.289 4.292,3.442c0.025,2.123 -1.617,3.652 -4.195,3.658c-13.668,0.032 -27.338,0.033 -41.007,0c-2.815,-0.006 -4.283,-1.416 -4.201,-3.773c0.078,-2.239 1.467,-3.324 4.327,-3.328c6.834,-0.009 13.668,-0.003 20.503,-0.003" style="fill:#008caa;fill-rule:nonzero;"/><path d="M46.423,78.643c-6.761,0 -13.522,0.008 -20.283,-0.003c-2.908,-0.005 -4.352,-1.222 -4.323,-3.589c0.028,-2.31 1.526,-3.538 4.421,-3.54c13.522,-0.01 27.043,-0.011 40.565,0.001c2.725,0.002 4.434,1.448 4.399,3.635c-0.036,2.204 -1.675,3.491 -4.497,3.494c-6.761,0.008 -13.521,0.002 -20.282,0.002" style="fill:#008caa;fill-rule:nonzero;"/><path d="M131.281,142.55l-20.272,0c-3.372,0 -4.255,-0.675 -4.377,-3.205c-0.137,-2.838 0.581,-3.829 4.408,-4.365c1.311,-0.183 2.669,-0.029 4.006,-0.029c12.029,0 24.058,-0.004 36.087,0.002c3.011,0.002 4.314,0.85 5.053,3.08c0.658,1.994 -0.799,4.63 -3.299,4.574c-7.199,-0.162 -14.404,-0.057 -21.606,-0.057" style="fill:#008caa;fill-rule:nonzero;"/><path d="M117.194,79.137c-2.879,-0.284 -5.634,0.392 -8.294,-0.525c-1.901,-0.655 -2.817,-2.318 -2.206,-4.613c0.413,-1.548 1.487,-2.571 3.359,-2.544c4.749,0.068 9.5,0.039 14.249,0.015c2.098,-0.011 3.288,0.862 3.731,3.427c0.299,1.73 -1.019,3.171 -2.888,3.765c-2.696,0.857 -5.431,0.098 -7.951,0.475" style="fill:#008caa;fill-rule:nonzero;"/><path d="M113.836,100.085c-1.11,0 -2.228,-0.086 -3.328,0.019c-1.987,0.189 -3.323,-0.757 -3.813,-2.518c-0.652,-2.344 0.115,-4.075 2.39,-4.633c3.321,-0.814 6.773,-1.038 10.099,0.249c2.192,0.848 1.987,2.869 1.627,4.484c-0.302,1.36 -1.401,2.533 -3.203,2.415c-1.252,-0.082 -2.514,-0.016 -3.772,-0.016" style="fill:#008caa;fill-rule:nonzero;"/><path d="M113.272,113.942c0.964,0 1.927,-0.011 2.89,0.002c2.214,0.031 3.62,1.151 3.861,3.062c0.261,2.069 -0.877,4.173 -2.927,4.382c-2.67,0.271 -5.429,0.596 -8.092,-0.255c-2.002,-0.639 -2.76,-2.009 -2.337,-4.506c0.296,-1.746 1.631,-2.509 3.272,-2.664c1.102,-0.105 2.221,-0.02 3.333,-0.021" style="fill:#008caa;fill-rule:nonzero;"/></g></svg>