<?xml version="1.0" encoding="UTF-8" standalone="no"?><!DOCTYPE svg PUBLIC "-//W3C//DTD SVG 1.1//EN" "http://www.w3.org/Graphics/SVG/1.1/DTD/svg11.dtd"><svg width="100%" height="100%" viewBox="0 0 134 133" version="1.1" xmlns="http://www.w3.org/2000/svg" xmlns:xlink="http://www.w3.org/1999/xlink" xml:space="preserve" xmlns:serif="http://www.serif.com/" style="fill-rule:evenodd;clip-rule:evenodd;stroke-linejoin:round;stroke-miterlimit:2;"><g><path d="M8.499,59.34c1.575,1.831 -1.646,6.295 2.492,6.289c3.184,-0.003 1.775,-4.122 1.717,-6.35c-0.065,-2.4 1.625,-6.728 -1.758,-6.82c-3.827,-0.104 -1.292,4.316 -2.451,6.881m49.792,55.142c-11.377,2.807 -13.111,4.819 -12.732,13.506c0.119,2.717 0.859,3.949 3.784,3.923c11.312,-0.107 22.626,-0.044 33.938,-0.043c1.674,0 3.178,0.043 3.772,-2.171c2.085,-7.77 -2.104,-13.703 -10.26,-14.334c-0.804,-0.063 -1.878,0.201 -1.981,-2.02c2.464,0 4.906,-0.198 7.305,0.044c3.802,0.384 5.206,-1.003 5.012,-4.901c-0.291,-5.816 0.073,-11.663 -0.117,-17.486c-0.382,-11.734 -9.248,-20.49 -20.58,-20.542c-11.328,-0.054 -20.28,8.637 -20.764,20.356c-0.204,4.91 -0.059,9.837 -0.047,14.756c0.02,8.57 -0.749,7.717 7.494,7.805c1.526,0.016 3.215,-0.593 5.176,1.107m-37.438,17.386c5.66,0 11.319,0.008 16.979,-0.004c1.623,-0.003 3.19,0.197 3.847,-2.038c2.224,-7.558 -1.668,-13.601 -9.461,-14.457c-1.001,-0.11 -2.441,0.452 -2.804,-0.87c-0.371,-1.36 -0.477,-2.974 0.976,-3.976c8.283,-5.708 7.757,-14.29 7.234,-22.71c-0.531,-8.588 -7.307,-14.986 -15.698,-15.333c-8.45,-0.35 -15.926,5.014 -16.78,13.289c-0.906,8.766 -2.21,17.996 6.375,24.634c1.754,1.356 2.973,4.189 -0.959,4.931c-8.553,1.613 -10.202,3.743 -10.144,12.344c0.025,3.513 1.362,4.359 4.552,4.243c5.288,-0.192 10.588,-0.053 15.883,-0.053m90.695,0c5.474,0 10.948,0.03 16.423,-0.017c1.548,-0.013 3.267,0.452 4.069,-1.737c2.554,-6.974 -1.688,-13.867 -9.137,-14.759c-1.077,-0.129 -2.772,0.782 -2.931,-1.326c-0.111,-1.456 -0.101,-2.847 1.312,-3.911c5.1,-3.843 7.009,-9.104 6.64,-15.342c-0.342,-5.784 1.774,-12.364 -5.294,-15.95c-0.355,-0.18 -0.624,-1 -0.557,-1.466c0.822,-5.692 -3.086,-5.007 -6.574,-4.943c-2.189,0.041 -4.385,-0.076 -6.568,0.048c-7.106,0.404 -13.042,4.98 -13.597,11.919c-0.743,9.273 -2.638,19.242 6.834,25.991c1.431,1.02 1.327,2.502 1.169,3.952c-0.148,1.336 -1.322,0.903 -2.123,1.038c-8.727,1.457 -10.692,4.027 -10.391,12.589c0.112,3.194 1.348,4.049 4.302,3.961c5.47,-0.162 10.948,-0.047 16.423,-0.047m-22.22,-65.673c12.604,0 25.209,-0.117 37.811,0.072c3.833,0.057 5.074,-1.206 5.043,-5.035c-0.155,-18.603 -0.153,-37.21 -0.001,-55.815c0.03,-3.835 -1.247,-5.055 -5.064,-5.036c-25.388,0.128 -50.779,0.137 -76.169,-0.005c-4.048,-0.023 -5.503,1.256 -5.402,5.337c0.225,9.115 0.07,18.238 0.07,27.359c0,9.162 -0.526,9.613 -9.791,8.381c-0.839,-0.113 -2.021,0.227 -2.119,-1.035c-0.044,-0.557 0.461,-1.362 0.958,-1.726c8.746,-6.416 7.703,-15.601 6.493,-24.468c-1.12,-8.188 -9.541,-14.197 -17.919,-13.715c-8.483,0.489 -15.344,7.335 -16.424,15.657c-0.479,3.694 2.559,6.132 2.206,9.812c-0.437,4.559 1.942,8.39 5.322,11.53c0.969,0.9 3.15,1.4 2.265,3.206c-0.737,1.503 -2.637,0.647 -4.011,0.718c-6.523,0.343 -10.232,2.716 -11.582,8.017c-1.183,4.644 -0.34,9.433 -0.444,14.157c-0.026,1.205 0.668,2.216 1.851,2.326c1.553,0.143 2.308,-0.993 2.355,-2.408c0.093,-2.917 0.051,-5.837 0.074,-8.755c0.06,-7.864 6.185,-12.374 13.176,-8.625c4.134,2.215 9.117,1.618 11.459,0.848c6.048,-1.988 11.838,-1.088 17.677,-1.283c5.541,-0.186 9.714,-1.438 10.969,-7.5c0.255,-1.226 0.654,-2.723 2.379,-2.3c1.616,0.396 1.424,1.842 1.308,3.156c-0.494,5.605 -5.548,10.119 -12.128,10.579c-2.909,0.203 -5.843,0.082 -8.765,0.049c-1.861,-0.02 -3.277,0.384 -3.268,2.642c0.014,3.647 -0.017,7.295 0.023,10.943c0.015,1.355 0.392,2.689 2.075,2.594c1.65,-0.095 1.883,-1.513 1.921,-2.821c0.07,-2.369 0.075,-4.741 0.056,-7.113c-0.012,-1.406 0.706,-1.881 2.017,-1.9c1.436,-0.022 1.9,0.711 1.867,2.015c-0.03,1.275 0.161,2.578 -0.027,3.826c-0.783,5.169 1.486,6.553 6.48,6.423c12.412,-0.323 24.839,-0.107 37.259,-0.107" style="fill:#fdfdfd;fill-rule:nonzero;stroke:#008caa;stroke-width:0.75px;"/><path d="M15.038,17.25c5.482,0.033 9.278,-1.075 13.018,-2.51c2.767,-1.063 3.923,-3.634 4.073,-5.934c0.164,-2.474 -2.784,-3.008 -4.776,-3.598c-5.276,-1.562 -11.341,1.076 -14.449,6.083c-0.948,1.526 -2.369,3.283 -1.397,4.938c0.973,1.658 3.229,0.994 3.531,1.021m22.59,7.145c0.139,-4.789 -3.238,-7.342 -7.901,-5.673c-4.504,1.611 -9.03,3.041 -13.838,2.821c-3.008,-0.137 -3.229,1.348 -3.002,3.685c0.66,6.817 6.217,12.295 12.49,12.19c6.518,-0.112 12.048,-5.988 12.251,-13.023m50.899,37.522c11.872,0 23.745,-0.021 35.617,0.022c2.148,0.008 3.775,0.145 3.75,-2.983c-0.142,-17.144 -0.099,-34.29 -0.03,-51.436c0.008,-2.161 -0.739,-2.78 -2.836,-2.776c-24.109,0.056 -48.22,0.04 -72.33,0.025c-1.559,-0.001 -2.838,-0.026 -2.823,2.18c0.07,10.761 0.032,21.523 0.05,32.284c0.001,0.675 -0.155,1.633 0.818,1.696c0.635,0.04 1.596,-0.226 1.893,-0.687c0.667,-1.036 1.143,-2.243 1.46,-3.442c1.036,-3.911 3.372,-6.274 7.509,-5.235c4.039,1.015 5.319,4.278 4.569,8.135c-1.418,7.283 -5.653,12.436 -13.026,13.784c-4.416,0.807 -3.02,3.523 -3.242,5.936c-0.334,3.607 2.404,2.448 4.1,2.458c11.506,0.076 23.013,0.041 34.521,0.039m0.802,4.279c-12.421,0 -24.848,-0.217 -37.261,0.107c-4.992,0.128 -7.262,-1.254 -6.48,-6.425c0.189,-1.247 -0.003,-2.549 0.029,-3.825c0.031,-1.304 -0.432,-2.037 -1.868,-2.015c-1.311,0.019 -2.028,0.493 -2.018,1.901c0.019,2.37 0.016,4.744 -0.054,7.112c-0.04,1.309 -0.272,2.726 -1.923,2.82c-1.683,0.097 -2.059,-1.238 -2.073,-2.593c-0.041,-3.648 -0.009,-7.295 -0.024,-10.943c-0.01,-2.258 1.406,-2.662 3.268,-2.641c2.922,0.032 5.857,0.154 8.766,-0.05c6.578,-0.459 11.634,-4.973 12.127,-10.579c0.115,-1.314 0.308,-2.759 -1.308,-3.156c-1.726,-0.423 -2.125,1.073 -2.378,2.299c-1.257,6.062 -5.429,7.316 -10.971,7.5c-5.838,0.196 -11.627,-0.705 -17.677,1.285c-2.341,0.768 -7.325,1.366 -11.458,-0.85c-6.992,-3.748 -13.115,0.761 -13.177,8.627c-0.022,2.917 0.021,5.838 -0.074,8.753c-0.046,1.416 -0.801,2.553 -2.353,2.409c-1.185,-0.109 -1.879,-1.12 -1.852,-2.326c0.103,-4.723 -0.739,-9.512 0.444,-14.156c1.351,-5.303 5.059,-7.675 11.583,-8.017c1.373,-0.073 3.272,0.784 4.009,-0.719c0.885,-1.805 -1.296,-2.306 -2.265,-3.206c-3.38,-3.14 -5.757,-6.97 -5.321,-11.531c0.352,-3.679 -2.685,-6.118 -2.206,-9.812c1.079,-8.322 7.94,-15.166 16.425,-15.655c8.377,-0.483 16.799,5.525 17.917,13.714c1.211,8.867 2.253,18.052 -6.491,24.468c-0.497,0.364 -1.004,1.169 -0.96,1.727c0.1,1.261 1.28,0.921 2.119,1.033c9.265,1.233 9.793,0.783 9.793,-8.38c0,-9.12 0.155,-18.245 -0.07,-27.359c-0.101,-4.081 1.352,-5.36 5.401,-5.338c25.389,0.144 50.78,0.135 76.169,0.006c3.816,-0.019 5.095,1.201 5.063,5.036c-0.152,18.605 -0.154,37.211 0.001,55.816c0.033,3.829 -1.21,5.09 -5.043,5.033c-12.601,-0.187 -25.205,-0.07 -37.809,-0.07" style="fill:#008caa;fill-rule:nonzero;stroke:#008caa;stroke-width:0.75px;"/><path d="M111.097,127.591c4.182,0 8.371,0.123 12.544,-0.066c1.472,-0.067 3.945,1.332 4.16,-1.799c0.168,-2.464 -0.053,-5.518 -2.907,-5.643c-8.884,-0.389 -17.8,-0.392 -26.686,-0.049c-2.766,0.107 -3.259,3.018 -3.167,5.547c0.116,3.151 2.568,1.889 4.056,1.952c3.993,0.171 8,0.058 12,0.058m-11.875,-35.37c0.025,0.379 -0.249,2.502 0.376,4.318c1.264,3.674 8.148,7.073 12.98,6.546c4.732,-0.516 9.063,-2.275 10.928,-6.969c1.971,-4.957 -0.149,-10.738 -4.446,-13.678c-0.863,-0.589 -1.402,-1.289 -1.254,-2.197c0.63,-3.882 -1.684,-3.906 -4.545,-3.898c-10.371,0.023 -14.013,3.643 -14.039,15.878m12.326,39.647c-5.476,0 -10.952,-0.115 -16.422,0.047c-2.954,0.088 -4.192,-0.767 -4.303,-3.961c-0.301,-8.563 1.665,-11.132 10.39,-12.589c0.802,-0.135 1.977,0.298 2.123,-1.038c0.158,-1.45 0.262,-2.932 -1.167,-3.952c-9.473,-6.75 -7.578,-16.718 -6.835,-25.991c0.556,-6.94 6.491,-11.515 13.598,-11.919c2.183,-0.124 4.377,-0.007 6.566,-0.048c3.49,-0.063 7.397,-0.749 6.575,4.943c-0.068,0.466 0.203,1.286 0.557,1.466c7.067,3.586 4.951,10.166 5.294,15.95c0.369,6.238 -1.541,11.499 -6.64,15.342c-1.414,1.065 -1.424,2.455 -1.313,3.911c0.16,2.108 1.854,1.198 2.931,1.327c7.449,0.891 11.691,7.784 9.138,14.759c-0.801,2.188 -2.521,1.722 -4.069,1.736c-5.474,0.046 -10.949,0.017 -16.423,0.017" style="fill:#008caa;fill-rule:nonzero;stroke:#008caa;stroke-width:0.75px;"/><path d="M20.86,127.591c4.185,0 8.376,0.111 12.554,-0.055c1.641,-0.066 4.337,1.278 4.25,-2.324c-0.065,-2.59 -0.697,-5.191 -3.544,-5.285c-8.541,-0.284 -17.101,-0.293 -25.643,-0.043c-3.273,0.097 -3.706,2.922 -3.633,5.676c0.083,3.211 2.528,1.913 4.009,1.974c3.996,0.167 8.004,0.057 12.007,0.057m12.533,-36.139c-0.087,-9.118 -4.943,-14.982 -12.35,-14.91c-7.835,0.077 -12.204,5.898 -12.098,16.12c0.065,6.075 5.559,10.678 12.525,10.494c7.284,-0.193 11.988,-4.81 11.923,-11.704m-12.54,40.416c-5.295,0 -10.595,-0.139 -15.883,0.053c-3.19,0.115 -4.527,-0.73 -4.551,-4.244c-0.06,-8.6 1.589,-10.731 10.143,-12.343c3.932,-0.74 2.713,-3.573 0.959,-4.931c-8.585,-6.639 -7.281,-15.868 -6.376,-24.634c0.855,-8.275 8.33,-13.639 16.78,-13.289c8.392,0.347 15.168,6.745 15.701,15.333c0.52,8.42 1.047,17.002 -7.235,22.71c-1.454,1.002 -1.349,2.618 -0.977,3.977c0.363,1.323 1.803,0.759 2.804,0.869c7.794,0.856 11.685,6.899 9.462,14.456c-0.658,2.236 -2.225,2.036 -3.847,2.039c-5.661,0.011 -11.32,0.004 -16.98,0.004" style="fill:#008caa;fill-rule:nonzero;stroke:#008caa;stroke-width:0.75px;"/><path d="M66.749,113.256c-1.433,0.72 -4.131,-1.284 -4.383,1.445c-0.22,2.383 2.557,2.351 4.092,2.367c1.341,0.015 3.716,0.01 3.876,-2.069c0.226,-2.958 -2.374,-1.039 -3.585,-1.743m-0.915,14.335c4.198,0 8.402,0.134 12.591,-0.068c1.591,-0.076 4.346,1.478 4.315,-2.216c-0.022,-2.592 -0.632,-5.564 -3.395,-5.315c-8.755,0.793 -17.435,0.493 -26.179,0.024c-2.714,-0.144 -3.286,2.852 -3.288,5.436c-0.003,3.278 2.422,2.031 3.913,2.087c4.009,0.152 8.028,0.052 12.043,0.052m0.171,-18.471c4.566,0 9.137,-0.121 13.696,0.05c2.429,0.09 3.133,-0.764 3.061,-3.112c-0.157,-5.103 0.092,-10.218 -0.102,-15.317c-0.347,-9.144 -7.246,-15.989 -16.027,-16.141c-8.987,-0.156 -16.256,6.753 -16.666,16.084c-0.215,4.915 0.082,9.851 -0.118,14.766c-0.113,2.739 0.546,3.92 3.56,3.736c4.183,-0.258 8.396,-0.066 12.596,-0.066m-7.715,5.363c-1.959,-1.702 -3.648,-1.092 -5.175,-1.108c-8.244,-0.088 -7.474,0.765 -7.495,-7.805c-0.012,-4.919 -0.155,-9.846 0.047,-14.756c0.484,-11.719 9.436,-20.41 20.766,-20.358c11.332,0.055 20.198,8.81 20.58,20.544c0.19,5.823 -0.174,11.67 0.115,17.486c0.195,3.898 -1.208,5.284 -5.011,4.901c-2.398,-0.242 -4.842,-0.046 -7.305,-0.046c0.103,2.223 1.178,1.96 1.982,2.021c8.156,0.632 12.343,6.565 10.258,14.335c-0.594,2.212 -2.098,2.171 -3.771,2.171c-11.313,-0.001 -22.626,-0.064 -33.937,0.041c-2.926,0.028 -3.667,-1.204 -3.785,-3.921c-0.379,-8.687 1.355,-10.699 12.731,-13.505" style="fill:#008caa;fill-rule:nonzero;stroke:#008caa;stroke-width:0.75px;"/><path d="M8.499,59.34c1.159,-2.565 -1.376,-6.985 2.451,-6.881c3.383,0.092 1.693,4.42 1.758,6.82c0.058,2.228 1.467,6.347 -1.717,6.35c-4.138,0.006 -0.917,-4.458 -2.492,-6.289" style="fill:#008caa;fill-rule:nonzero;stroke:#008caa;stroke-width:0.75px;"/><path d="M88.591,56.035c2.725,0 5.454,0.078 8.176,-0.037c1.132,-0.046 2.117,-0.747 2.177,-2.017c0.062,-1.319 -0.923,-2.012 -2.061,-2.03c-5.271,-0.079 -10.543,-0.063 -15.813,-0.025c-1.196,0.009 -2.142,0.679 -2.178,1.93c-0.035,1.263 0.944,2.063 2.068,2.126c2.536,0.144 5.086,0.046 7.631,0.053m0.715,-10.529c-5.08,0 -10.16,-0.013 -15.241,0.007c-1.505,0.006 -3.137,0.214 -3.238,2.088c-0.108,2.006 1.582,2.151 3.061,2.155c9.981,0.024 19.96,0.022 29.939,0.003c1.45,-0.003 3.223,0.005 3.223,-1.978c-0.001,-2.284 -1.946,-2.256 -3.592,-2.266c-4.717,-0.03 -9.435,-0.011 -14.152,-0.009m-16.661,-20.784c-0.198,9.293 6.593,16.511 15.79,16.783c9.308,0.274 16.981,-7.011 17.079,-16.213c0.094,-8.847 -7.334,-16.447 -16.246,-16.625c-9.051,-0.18 -16.429,6.944 -16.623,16.055m15.881,37.196c-11.506,0 -23.014,0.037 -34.521,-0.039c-1.694,-0.012 -4.432,1.147 -4.099,-2.458c0.223,-2.414 -1.174,-5.13 3.243,-5.936c7.373,-1.348 11.607,-6.501 13.025,-13.785c0.751,-3.857 -0.531,-7.12 -4.568,-8.136c-4.139,-1.038 -6.473,1.325 -7.509,5.236c-0.317,1.198 -0.794,2.407 -1.46,3.441c-0.297,0.461 -1.259,0.729 -1.894,0.688c-0.973,-0.063 -0.818,-1.021 -0.819,-1.696c-0.018,-10.76 0.022,-21.522 -0.048,-32.284c-0.015,-2.207 1.264,-2.18 2.821,-2.18c24.11,0.016 48.221,0.031 72.332,-0.024c2.095,-0.005 2.844,0.615 2.835,2.775c-0.068,17.145 -0.111,34.291 0.03,51.436c0.026,3.128 -1.601,2.99 -3.749,2.983c-11.873,-0.044 -23.745,-0.021 -35.619,-0.021" style="fill:#fbfbfb;fill-rule:nonzero;stroke:#008caa;stroke-width:0.75px;"/><path d="M37.628,24.395c-0.203,7.035 -5.732,12.912 -12.251,13.021c-6.273,0.107 -11.83,-5.371 -12.49,-12.188c-0.227,-2.337 -0.006,-3.822 3.003,-3.684c4.808,0.219 9.333,-1.211 13.837,-2.822c4.663,-1.669 8.039,0.884 7.901,5.673" style="fill:#fbfbfb;fill-rule:nonzero;stroke:#008caa;stroke-width:0.75px;"/><path d="M15.038,17.25c-0.302,-0.027 -2.558,0.637 -3.531,-1.021c-0.972,-1.655 0.449,-3.412 1.397,-4.938c3.108,-5.007 9.173,-7.645 14.449,-6.083c1.992,0.59 4.94,1.124 4.776,3.598c-0.15,2.3 -1.306,4.871 -4.073,5.934c-3.74,1.435 -7.536,2.543 -13.018,2.51" style="fill:#fbfbfb;fill-rule:nonzero;stroke:#008caa;stroke-width:0.75px;"/><path d="M99.222,92.222c0.026,-12.237 3.668,-15.857 14.039,-15.88c2.861,-0.006 5.176,0.017 4.545,3.898c-0.148,0.908 0.391,1.609 1.254,2.199c4.297,2.939 6.418,8.721 4.447,13.678c-1.866,4.692 -6.197,6.453 -10.929,6.969c-4.832,0.527 -11.716,-2.874 -12.98,-6.546c-0.625,-1.816 -0.351,-3.941 -0.376,-4.318" style="fill:#fbfbfb;fill-rule:nonzero;stroke:#008caa;stroke-width:0.75px;"/><path d="M111.097,127.591c-4,0 -8.007,0.113 -12,-0.058c-1.488,-0.063 -3.94,1.199 -4.056,-1.952c-0.092,-2.529 0.401,-5.44 3.167,-5.547c8.886,-0.343 17.802,-0.34 26.686,0.049c2.854,0.125 3.075,3.179 2.907,5.644c-0.215,3.13 -2.688,1.731 -4.16,1.798c-4.173,0.189 -8.362,0.066 -12.544,0.066" style="fill:#fbfbfb;fill-rule:nonzero;stroke:#008caa;stroke-width:0.75px;"/><path d="M33.393,91.452c0.066,6.893 -4.638,11.511 -11.922,11.704c-6.968,0.185 -12.462,-4.42 -12.525,-10.494c-0.107,-10.222 4.262,-16.042 12.098,-16.12c7.405,-0.072 12.263,5.791 12.349,14.91" style="fill:#fbfbfb;fill-rule:nonzero;stroke:#008caa;stroke-width:0.75px;"/><path d="M20.86,127.591c-4.003,0 -8.011,0.11 -12.007,-0.057c-1.481,-0.061 -3.926,1.237 -4.009,-1.974c-0.073,-2.754 0.36,-5.579 3.633,-5.676c8.542,-0.25 17.102,-0.241 25.643,0.043c2.847,0.094 3.479,2.695 3.544,5.285c0.087,3.602 -2.609,2.258 -4.25,2.324c-4.178,0.166 -8.369,0.055 -12.554,0.055" style="fill:#fbfbfb;fill-rule:nonzero;stroke:#008caa;stroke-width:0.75px;"/><path d="M66.005,109.12c-4.201,0 -8.412,-0.191 -12.596,0.065c-3.015,0.186 -3.673,-0.995 -3.56,-3.734c0.2,-4.917 -0.097,-9.854 0.118,-14.768c0.41,-9.33 7.679,-16.239 16.666,-16.083c8.781,0.153 15.68,6.998 16.028,16.141c0.193,5.099 -0.056,10.215 0.101,15.317c0.072,2.348 -0.632,3.203 -3.061,3.111c-4.559,-0.17 -9.13,-0.049 -13.696,-0.049" style="fill:#fbfbfb;fill-rule:nonzero;stroke:#008caa;stroke-width:0.75px;"/><path d="M65.834,127.591c-4.015,0 -8.034,0.1 -12.043,-0.053c-1.491,-0.055 -3.916,1.193 -3.913,-2.086c0.002,-2.584 0.574,-5.581 3.288,-5.436c8.743,0.468 17.424,0.768 26.179,-0.023c2.763,-0.25 3.373,2.721 3.395,5.314c0.031,3.693 -2.724,2.139 -4.315,2.217c-4.189,0.2 -8.393,0.067 -12.591,0.067" style="fill:#fbfbfb;fill-rule:nonzero;stroke:#008caa;stroke-width:0.75px;"/><path d="M66.749,113.256c1.211,0.704 3.811,-1.215 3.585,1.743c-0.16,2.079 -2.535,2.084 -3.876,2.069c-1.535,-0.016 -4.312,0.016 -4.092,-2.367c0.252,-2.729 2.95,-0.725 4.383,-1.445" style="fill:#fbfbfb;fill-rule:nonzero;stroke:#008caa;stroke-width:0.75px;"/><path d="M98.895,31.608c3.421,-6.787 2.358,-12.454 -2.892,-16.174c-1.319,-0.934 -3.042,-3.083 -4.538,-1.06c-1.042,1.411 -1.14,3.951 0.599,5.502c1.561,1.396 3.069,2.856 2.81,5.004c-0.396,3.28 1.38,5.045 4.021,6.728m-3.497,3.558c-2.778,-3.459 -2.77,-3.539 -6.662,-3.98c-3.115,-0.352 -5.07,-2.004 -5.782,-4.935c-0.625,-2.578 0.6,-4.581 2.636,-6.124c2.198,-1.663 2.055,-4.462 0.924,-5.839c-1.627,-1.978 -3.569,0.313 -5.023,1.396c-4.845,3.609 -6.064,10.432 -2.965,15.597c3.525,5.877 9.597,7.394 16.872,3.885m-22.753,-10.444c0.194,-9.11 7.571,-16.236 16.622,-16.056c8.914,0.179 16.34,7.779 16.246,16.625c-0.096,9.204 -7.771,16.489 -17.077,16.214c-9.197,-0.271 -15.99,-7.489 -15.791,-16.783" style="fill:#008caa;fill-rule:nonzero;stroke:#008caa;stroke-width:0.75px;"/><path d="M89.306,45.504c4.717,-0.001 9.435,-0.02 14.152,0.011c1.646,0.01 3.591,-0.018 3.592,2.266c0,1.983 -1.773,1.976 -3.223,1.978c-9.979,0.019 -19.958,0.021 -29.937,-0.002c-1.481,-0.005 -3.171,-0.15 -3.063,-2.156c0.101,-1.874 1.733,-2.082 3.238,-2.088c5.08,-0.022 10.161,-0.007 15.241,-0.009" style="fill:#008caa;fill-rule:nonzero;stroke:#008caa;stroke-width:0.75px;"/><path d="M88.59,56.031c-2.544,-0.004 -5.094,0.094 -7.63,-0.048c-1.124,-0.065 -2.103,-0.865 -2.068,-2.126c0.035,-1.251 0.982,-1.921 2.178,-1.93c5.27,-0.038 10.542,-0.054 15.812,0.025c1.139,0.016 2.123,0.711 2.062,2.028c-0.06,1.271 -1.045,1.971 -2.177,2.017c-2.72,0.114 -5.451,0.038 -8.177,0.034" style="fill:#008caa;fill-rule:nonzero;stroke:#008caa;stroke-width:0.75px;"/><path d="M95.398,35.166c-7.275,3.509 -13.347,1.992 -16.872,-3.884c-3.099,-5.167 -1.88,-11.988 2.965,-15.598c1.454,-1.083 3.396,-3.374 5.021,-1.396c1.133,1.377 1.276,4.176 -0.921,5.84c-2.037,1.542 -3.263,3.545 -2.637,6.123c0.711,2.931 2.667,4.583 5.782,4.935c3.893,0.441 3.884,0.521 6.662,3.98" style="fill:#fbfbfb;fill-rule:nonzero;stroke:#008caa;stroke-width:0.75px;"/><path d="M98.895,31.608c-2.641,-1.683 -4.417,-3.448 -4.021,-6.728c0.259,-2.148 -1.249,-3.608 -2.81,-5.004c-1.739,-1.551 -1.641,-4.091 -0.599,-5.502c1.496,-2.023 3.219,0.126 4.538,1.06c5.25,3.72 6.313,9.387 2.892,16.174" style="fill:#fbfbfb;fill-rule:nonzero;stroke:#008caa;stroke-width:0.75px;"/></g></svg>