<?xml version="1.0" encoding="UTF-8" standalone="no"?><!DOCTYPE svg PUBLIC "-//W3C//DTD SVG 1.1//EN" "http://www.w3.org/Graphics/SVG/1.1/DTD/svg11.dtd"><svg width="100%" height="100%" viewBox="0 0 364 347" version="1.1" xmlns="http://www.w3.org/2000/svg" xmlns:xlink="http://www.w3.org/1999/xlink" xml:space="preserve" xmlns:serif="http://www.serif.com/" style="fill-rule:evenodd;clip-rule:evenodd;stroke-linejoin:round;stroke-miterlimit:2;"><g><ellipse cx="181.679" cy="173.247" rx="181.679" ry="173.247" style="fill:#9470b0;"/><ellipse cx="181.679" cy="277.744" rx="72.096" ry="68.75" style="fill:#43c4df;"/><ellipse cx="181.679" cy="198.439" rx="155.261" ry="148.055" style="fill:#a8d056;"/><ellipse cx="181.679" cy="218.285" rx="134.448" ry="128.208" style="fill:#fdbb19;"/><ellipse cx="181.679" cy="240.961" rx="110.669" ry="105.532" style="fill:#43c4df;"/><ellipse cx="181.679" cy="265.898" rx="84.518" ry="80.596" style="fill:#f26a51;"/><ellipse cx="181.679" cy="290.174" rx="59.061" ry="56.32" style="fill:#876e76;"/><text x="125.688px" y="294.175px" style="font-family:'Calibri-Bold', 'Calibri', sans-serif;font-weight:700;font-size:24.174px;fill:#fff;">R<tspan x="138.943px 151.113px " y="294.175px 294.175px ">em</tspan>ember</text><text x="122.808px" y="229.54px" style="font-family:'Calibri-Bold', 'Calibri', sans-serif;font-weight:700;font-size:24.174px;fill:#fff;">Under<tspan x="185.002px " y="229.54px ">s</tspan>ta<tspan x="214.453px " y="229.54px ">n</tspan>d</text><text x="152.669px" y="170.158px" style="font-family:'Calibri-Bold', 'Calibri', sans-serif;font-weight:700;font-size:24.174px;fill:#fff;">Apply</text><text x="142.943px" y="120.891px" style="font-family:'Calibri-Bold', 'Calibri', sans-serif;font-weight:700;font-size:24.174px;fill:#fff;">Analy<tspan x="199.743px 208.903px " y="120.891px 120.891px ">ze</tspan></text><text x="138.796px" y="78.924px" style="font-family:'Calibri-Bold', 'Calibri', sans-serif;font-weight:700;font-size:24.174px;fill:#fff;">E<tspan x="149.962px 161.046px 172.98px " y="78.924px 78.924px 78.924px ">val</tspan>ua<tspan x="203.599px " y="78.924px ">t</tspan>e</text><text x="149.065px" y="34.249px" style="font-family:'Calibri-Bold', 'Calibri', sans-serif;font-weight:700;font-size:24.174px;fill:#fff;">Cr<tspan x="170.182px 182.352px 194.061px " y="34.249px 34.249px 34.249px ">eat</tspan>e</text></g></svg>