<?xml version="1.0" encoding="UTF-8" standalone="no"?><!DOCTYPE svg PUBLIC "-//W3C//DTD SVG 1.1//EN" "http://www.w3.org/Graphics/SVG/1.1/DTD/svg11.dtd"><svg width="100%" height="100%" viewBox="0 0 112 112" version="1.1" xmlns="http://www.w3.org/2000/svg" xmlns:xlink="http://www.w3.org/1999/xlink" xml:space="preserve" xmlns:serif="http://www.serif.com/" style="fill-rule:evenodd;clip-rule:evenodd;stroke-linejoin:round;stroke-miterlimit:2;"><g><path d="M0.889,111.097c-0.743,0 -0.89,-0.146 -0.889,-0.891" style="fill:#fefefe;fill-rule:nonzero;"/><path d="M111.398,51.907c-0.659,-0.151 -0.487,-0.715 -0.533,-1.137c-0.529,-4.878 -1.364,-9.687 -3.022,-14.327c-1.216,-3.402 -2.765,-6.619 -5.059,-9.435c-0.578,-0.71 -0.845,-1.48 -0.828,-2.399c0.029,-1.63 0.045,-3.263 -0.003,-4.893c-0.103,-3.481 -2.286,-6.323 -5.482,-7.139c-1.315,-0.336 -2.666,-0.141 -4.001,-0.156c-2.445,-0.028 -2.455,-0.009 -2.442,-2.491c0.006,-1.126 -0.058,-2.241 -0.216,-3.358c-0.502,-3.534 -3.444,-6.171 -6.998,-6.239c-3.437,-0.065 -6.486,2.517 -7.127,5.971c-0.281,1.514 -0.203,3.032 -0.237,4.552c-0.029,1.318 -0.226,1.52 -1.514,1.551c-0.976,0.023 -1.959,0.07 -2.93,-0.005c-3.603,-0.28 -7.229,2.655 -7.464,7.037c-0.101,1.88 -0.061,3.769 -0.006,5.653c0.04,1.385 0.543,1.862 1.961,1.902c1.771,0.05 3.545,-0.003 5.318,0.021c2.705,0.035 4.624,1.868 4.637,4.408c0.012,2.677 -1.895,4.626 -4.634,4.691c-1.772,0.042 -3.546,-0.011 -5.319,0.019c-1.412,0.023 -1.916,0.484 -1.962,1.884c-0.06,1.883 -0.096,3.772 0.005,5.653c0.224,4.136 3.329,7.039 7.453,7.051c1.266,0.004 2.533,-0.033 3.798,0.018c1.058,0.042 1.363,0.366 1.272,1.429c-0.11,1.3 -0.39,2.578 -0.618,3.863c-0.752,4.249 -1.528,8.503 -1.282,12.844c0.286,5.019 1.196,9.866 4.36,13.996c0.133,0.173 0.24,0.378 0.409,0.506c1.502,1.142 1.354,2.756 1.276,4.361c-0.043,0.895 -0.693,1.19 -1.364,1.504c-2.203,1.032 -3.628,2.703 -4.137,5.116c-0.098,0.464 -0.121,0.933 -0.121,1.405c-0.002,4.169 -0.006,8.338 0.001,12.507c0.003,1.758 0.485,2.253 2.266,2.266c3.22,0.022 6.44,0.009 9.66,0.004c0.399,-0.001 0.798,-0.02 1.181,-0.141c0.628,-0.198 1.166,-0.523 1.114,-1.272c-0.052,-0.771 -0.573,-1.126 -1.309,-1.194c-0.325,-0.031 -0.651,-0.022 -0.976,-0.022c-2.533,-0.001 -5.065,0.01 -7.598,-0.005c-1.501,-0.008 -1.701,-0.203 -1.707,-1.694c-0.015,-3.407 -0.027,-6.815 0.002,-10.222c0.024,-2.652 1.53,-4.337 4.148,-4.73c0.539,-0.08 1.082,-0.077 1.624,-0.077c5.572,-0.001 11.144,0 16.715,-0.001c0.689,0 1.372,0.018 2.048,0.184c2.31,0.569 3.619,2.127 3.647,4.497c0.04,3.48 0.023,6.96 0.005,10.44c-0.007,1.366 -0.233,1.589 -1.583,1.601c-2.641,0.022 -5.282,0.004 -7.923,0.008c-0.398,0 -0.799,-0.024 -1.188,0.078c-0.547,0.142 -0.877,0.495 -0.931,1.066c-0.049,0.527 0.193,0.907 0.652,1.152c0.492,0.264 1.029,0.33 1.577,0.331c3.22,0.006 6.44,0.026 9.66,-0.007c1.906,-0.019 2.366,-0.51 2.369,-2.401c0.005,-3.988 -0.008,-7.976 0.005,-11.963c0.009,-3.076 -1.284,-5.356 -4.011,-6.815c-1.21,-0.648 -1.288,-0.919 -0.869,-2.279c1.039,-3.369 2.564,-6.544 3.939,-9.776c2.033,-4.778 3.275,-9.743 3.75,-14.908c0.034,-0.359 0.016,-0.727 0.213,-1.053c0.088,-0.119 0.198,-0.144 0.329,-0.076" style="fill:#fefefe;fill-rule:nonzero;"/><path d="M111.216,61.293c-0.299,6.038 -1.865,11.755 -4.295,17.265c-1.326,3.004 -2.688,5.996 -3.641,9.154c-0.19,0.63 -0.162,0.898 0.518,1.197c2.97,1.303 4.517,3.639 4.549,6.889c0.043,4.313 0.015,8.626 0.009,12.94c-0.002,1.413 -0.563,2.031 -1.939,2.039c-3.726,0.022 -7.452,0.012 -11.178,0.004c-0.727,-0.001 -1.348,-0.225 -1.698,-0.941c-0.282,-0.579 -0.22,-1.127 0.129,-1.642c0.416,-0.615 1.052,-0.682 1.73,-0.679c2.894,0.01 5.788,-0.021 8.682,0.021c0.761,0.011 1.058,-0.112 1.044,-0.981c-0.058,-3.551 -0.016,-7.104 -0.027,-10.656c-0.008,-2.526 -1.653,-4.298 -4.166,-4.316c-6.403,-0.045 -12.806,-0.042 -19.209,-0.002c-2.548,0.015 -4.193,1.739 -4.204,4.265c-0.015,3.588 0.023,7.177 -0.024,10.765c-0.011,0.812 0.276,0.933 0.992,0.924c2.893,-0.038 5.788,-0.021 8.682,-0.014c1.299,0.003 2.033,0.566 2.069,1.553c0.038,1.03 -0.743,1.699 -2.06,1.703c-3.617,0.012 -7.235,0.014 -10.853,0c-1.533,-0.006 -2.067,-0.567 -2.068,-2.118c-0.005,-4.168 -0.006,-8.336 -0.001,-12.505c0.006,-3.73 1.656,-6.158 5.116,-7.474c0.412,-0.156 0.615,-0.321 0.56,-0.757c-0.009,-0.071 -0.007,-0.145 -0.001,-0.217c0.165,-1.736 -0.21,-3.129 -1.499,-4.546c-2.577,-2.833 -3.514,-6.492 -4.168,-10.199c-0.976,-5.527 -0.22,-10.971 0.758,-16.406c0.282,-1.567 0.502,-3.145 0.794,-4.709c0.116,-0.619 -0.03,-0.82 -0.68,-0.8c-1.446,0.044 -2.894,0.031 -4.341,0.01c-4.291,-0.064 -7.498,-3.281 -7.561,-7.597c-0.027,-1.885 -0.016,-3.77 -0.001,-5.654c0.011,-1.405 0.591,-1.993 1.97,-2.003c1.881,-0.015 3.762,0.009 5.643,-0.008c2.509,-0.021 4.39,-1.872 4.373,-4.277c-0.016,-2.377 -1.857,-4.183 -4.319,-4.208c-1.845,-0.018 -3.69,0.002 -5.535,-0.006c-1.543,-0.007 -2.154,-0.567 -2.127,-2.072c0.044,-2.351 -0.225,-4.716 0.159,-7.054c0.558,-3.385 3.501,-5.976 6.913,-6.111c1.372,-0.054 2.749,-0.05 4.123,-0.013c0.618,0.017 0.809,-0.175 0.804,-0.796c-0.012,-1.557 -0.056,-3.124 0.098,-4.669c0.372,-3.728 3.635,-6.585 7.396,-6.59c3.798,-0.005 7.069,2.899 7.419,6.688c0.139,1.51 0.097,3.041 0.082,4.562c-0.005,0.609 0.169,0.827 0.797,0.805c1.228,-0.045 2.46,-0.033 3.689,-0.009c4.253,0.083 7.429,3.253 7.518,7.524c0.038,1.847 0.009,3.696 0.007,5.545c0,0.396 -0.003,0.763 0.293,1.108c3.795,4.424 5.759,9.712 7.125,15.274c0.797,3.242 1.27,6.535 1.526,9.861c0.015,0.197 -0.076,0.449 0.21,0.547l0,7.178c-0.279,0.718 0.031,1.485 -0.182,2.208" style="fill:#008caa;fill-rule:nonzero;"/><path d="M111.216,61.293c-0.055,-0.745 -0.155,-1.495 0.182,-2.208l0,2.176l-0.085,0.048l-0.097,-0.016Z" style="fill:#6d6d6d;fill-rule:nonzero;"/><path d="M20.336,91.571c-3.075,0 -6.15,-0.008 -9.225,0.002c-2.936,0.01 -4.572,1.652 -4.575,4.573c-0.004,3.48 0.022,6.96 -0.02,10.439c-0.009,0.763 0.199,0.968 0.957,0.956c2.93,-0.045 5.86,-0.024 8.79,-0.015c1.305,0.004 1.998,0.579 1.995,1.612c-0.003,1.026 -0.711,1.637 -1.997,1.642c-3.654,0.015 -7.308,0.017 -10.961,0c-1.452,-0.007 -2.017,-0.602 -2.019,-2.072c-0.007,-4.313 -0.04,-8.627 0.01,-12.94c0.038,-3.249 1.604,-5.571 4.575,-6.87c0.619,-0.271 0.687,-0.514 0.51,-1.112c-1.051,-3.546 -2.614,-6.887 -4.094,-10.256c-3.442,-7.841 -4.395,-16.069 -3.953,-24.525c0.345,-6.58 1.429,-13.009 4.026,-19.116c0.694,-1.633 1.451,-3.245 2.491,-4.676c0.64,-0.882 0.82,-1.764 0.829,-2.812c0.021,-2.715 -0.258,-5.444 0.145,-8.142c0.516,-3.454 3.478,-6.055 6.947,-6.191c1.337,-0.052 2.679,-0.064 4.015,-0.007c0.746,0.033 0.915,-0.236 0.899,-0.93c-0.031,-1.448 -0.059,-2.905 0.059,-4.346c0.312,-3.795 3.512,-6.715 7.335,-6.784c3.776,-0.067 7.109,2.827 7.49,6.605c0.148,1.473 0.14,2.97 0.088,4.451c-0.03,0.851 0.254,1.049 1.045,1.004c1.154,-0.067 2.315,-0.037 3.472,-0.012c4.245,0.089 7.413,3.279 7.495,7.546c0.024,1.196 0.053,2.395 -0.012,3.588c-0.04,0.744 0.231,0.904 0.913,0.878c1.265,-0.049 2.532,-0.032 3.798,-0.002c4.012,0.097 7.253,3.414 7.276,7.425c0.023,4.071 -3.204,7.453 -7.253,7.57c-1.337,0.039 -2.677,0.039 -4.015,-0.003c-0.584,-0.019 -0.71,0.174 -0.717,0.732c-0.022,1.7 0.158,3.406 -0.14,5.099c-0.613,3.484 -3.565,6.059 -7.104,6.168c-0.868,0.027 -1.745,0.088 -2.602,-0.006c-1.013,-0.112 -1.102,0.312 -0.956,1.156c0.568,3.28 1.159,6.559 1.609,9.856c0.771,5.642 0.438,11.2 -1.617,16.574c-0.837,2.186 -1.987,4.181 -3.724,5.783c-0.329,0.304 -0.453,0.613 -0.422,1.039c0.025,0.361 0.048,0.731 -0.003,1.086c-0.191,1.315 0.189,2.026 1.567,2.614c2.634,1.126 4.034,3.382 4.086,6.269c0.082,4.493 0.034,8.989 0.025,13.483c-0.002,1.216 -0.566,1.857 -1.763,1.867c-3.798,0.034 -7.597,0.028 -11.395,0.003c-1.101,-0.007 -1.8,-0.685 -1.816,-1.613c-0.017,-0.975 0.702,-1.627 1.878,-1.633c2.967,-0.015 5.934,-0.03 8.899,0.013c0.75,0.011 0.975,-0.18 0.966,-0.952c-0.043,-3.552 -0.01,-7.104 -0.023,-10.656c-0.01,-2.648 -1.672,-4.33 -4.342,-4.355c-3.147,-0.03 -6.295,-0.007 -9.442,-0.007" style="fill:#008caa;fill-rule:nonzero;"/><path d="M102.246,31.663c2.468,3.897 3.842,8.141 4.683,12.561c1.615,8.491 1.794,16.976 -0.304,25.426c-0.917,3.698 -2.488,7.155 -4.001,10.63c-1.038,2.385 -2.019,4.794 -2.676,7.315c-0.155,0.598 -0.414,0.723 -0.963,0.722c-4.991,-0.016 -9.982,-0.022 -14.973,0.005c-0.666,0.004 -0.937,-0.169 -0.831,-0.843c0.034,-0.212 -0.013,-0.436 0.008,-0.652c0.21,-2.129 -0.205,-3.807 -1.98,-5.429c-2.447,-2.236 -3.087,-5.554 -3.681,-8.743c-0.912,-4.896 -0.329,-9.739 0.537,-14.571c0.946,-5.277 1.778,-10.565 1.832,-15.948c0.025,-2.45 1.915,-4.286 4.269,-4.264c2.354,0.022 4.208,1.89 4.217,4.33c0.022,5.544 0.008,11.089 0.009,16.633c0,0.29 -0.01,0.58 0.003,0.87c0.046,1.093 0.679,1.779 1.632,1.779c0.955,0 1.607,-0.687 1.614,-1.782c0.018,-2.536 0.051,-5.074 -0.017,-7.609c-0.024,-0.891 0.263,-1.083 1.083,-1.049c1.116,0.046 2.262,0.087 3.353,-0.108c3.627,-0.648 6.131,-3.689 6.175,-7.453c0.043,-3.587 0.011,-7.175 0.011,-10.763l0,-1.057" style="fill:#fefefe;fill-rule:nonzero;"/><path d="M98.99,31.562c0,3.842 0.006,7.685 -0.002,11.527c-0.007,2.989 -1.723,4.71 -4.72,4.7c-0.851,-0.002 -1.983,0.394 -2.477,-0.182c-0.417,-0.487 -0.113,-1.586 -0.145,-2.413c-0.059,-1.517 0.158,-3.045 -0.163,-4.553c-0.809,-3.803 -4.192,-6.335 -7.998,-5.989c-3.833,0.349 -6.717,3.421 -6.85,7.279c-0.058,1.666 -0.175,3.331 -0.208,4.997c-0.015,0.71 -0.268,0.915 -0.968,0.889c-1.518,-0.054 -3.039,-0.001 -4.558,-0.022c-2.629,-0.036 -4.38,-1.814 -4.413,-4.467c-0.014,-1.123 0.039,-2.249 -0.018,-3.37c-0.035,-0.698 0.157,-0.914 0.884,-0.915c1.695,-0.004 3.4,0.192 5.086,-0.145c3.823,-0.764 6.322,-4.141 5.995,-8.094c-0.308,-3.709 -3.475,-6.667 -7.251,-6.747c-1.338,-0.029 -2.678,-0.028 -4.016,-0.002c-0.501,0.01 -0.708,-0.12 -0.694,-0.663c0.036,-1.34 -0.039,-2.685 0.03,-4.022c0.12,-2.34 1.897,-4.016 4.257,-4.057c1.737,-0.029 3.474,-0.005 5.21,-0.007c2.078,-0.001 2.504,-0.418 2.508,-2.456c0.003,-1.776 -0.044,-3.554 0.016,-5.329c0.076,-2.285 1.579,-3.921 3.764,-4.216c1.93,-0.26 3.825,0.947 4.482,2.848c0.217,0.628 0.238,1.277 0.239,1.93c0.002,1.74 -0.014,3.48 0.007,5.22c0.017,1.402 0.586,1.98 1.985,1.998c1.845,0.023 3.69,-0.007 5.536,0.009c2.709,0.023 4.463,1.776 4.477,4.506c0.019,3.915 0.005,7.831 0.005,11.746" style="fill:#fefefe;fill-rule:nonzero;"/><path d="M7.656,34.924c0,2.847 -0.028,5.695 0.007,8.542c0.046,3.794 2.616,6.943 6.267,7.479c1.631,0.24 3.322,0.16 4.981,0.092c0.944,-0.038 1.121,0.275 1.098,1.149c-0.063,2.39 -0.024,4.783 -0.021,7.175c0.003,1.388 0.554,2.111 1.604,2.122c1.061,0.012 1.648,-0.718 1.649,-2.087c0.006,-5.763 -0.007,-11.525 0.013,-17.287c0.006,-1.935 1.333,-3.623 3.125,-4.096c1.809,-0.477 3.708,0.264 4.718,1.846c0.397,0.621 0.647,1.296 0.646,2.041c-0.012,6.373 1.241,12.595 2.254,18.845c0.977,6.035 0.866,11.975 -1.599,17.695c-0.711,1.651 -1.693,3.109 -3.18,4.175c-0.577,0.413 -0.798,0.98 -0.778,1.691c0.031,1.086 -0.018,2.175 0.019,3.26c0.018,0.545 -0.111,0.756 -0.708,0.754c-5.063,-0.023 -10.127,-0.013 -15.191,-0.012c-0.369,0 -0.689,0.017 -0.816,-0.483c-1.045,-4.119 -2.905,-7.926 -4.569,-11.804c-3.186,-7.422 -4.027,-15.193 -3.579,-23.168c0.323,-5.737 1.237,-11.358 3.356,-16.735c0.164,-0.417 0.345,-0.827 0.517,-1.24c0.063,0.016 0.125,0.031 0.187,0.046" style="fill:#fefefe;fill-rule:nonzero;"/><path d="M17.94,15.307c1.013,-0.001 2.026,0.02 3.039,-0.006c1.337,-0.035 1.914,-0.604 1.932,-1.941c0.026,-1.921 -0.022,-3.842 0.021,-5.762c0.049,-2.187 1.381,-3.821 3.359,-4.222c1.933,-0.392 3.837,0.542 4.691,2.303c0.34,0.7 0.438,1.448 0.439,2.216c0.001,1.776 -0.009,3.552 0.005,5.327c0.012,1.536 0.553,2.07 2.113,2.082c1.809,0.013 3.617,-0.011 5.426,0.006c2.647,0.026 4.412,1.78 4.445,4.428c0.023,1.885 -0.006,3.769 0.009,5.654c0.011,1.327 0.589,1.9 1.934,1.912c1.881,0.017 3.763,-0.009 5.643,0.008c2.524,0.024 4.396,1.852 4.387,4.256c-0.008,2.395 -1.901,4.213 -4.424,4.231c-1.845,0.013 -3.69,-0.004 -5.535,0.006c-1.467,0.007 -2,0.552 -2.007,2.048c-0.008,1.812 0.011,3.624 -0.006,5.436c-0.025,2.715 -1.778,4.473 -4.481,4.509c-0.976,0.013 -1.954,-0.029 -2.929,0.015c-0.572,0.025 -0.761,-0.195 -0.779,-0.739c-0.053,-1.629 -0.163,-3.257 -0.206,-4.887c-0.117,-4.325 -3.413,-7.631 -7.579,-7.574c-4.209,0.057 -7.415,3.372 -7.447,7.707c-0.011,1.559 -0.043,3.119 0.016,4.675c0.027,0.705 -0.214,0.844 -0.855,0.82c-1.3,-0.049 -2.604,0.002 -3.906,-0.022c-2.468,-0.046 -4.305,-1.766 -4.317,-4.219c-0.04,-8.009 -0.038,-16.019 -0.002,-24.029c0.012,-2.46 1.835,-4.182 4.301,-4.234c0.905,-0.02 1.809,-0.004 2.713,-0.004" style="fill:#fefefe;fill-rule:nonzero;"/></g></svg>