<?xml version="1.0" encoding="UTF-8" standalone="no"?><!DOCTYPE svg PUBLIC "-//W3C//DTD SVG 1.1//EN" "http://www.w3.org/Graphics/SVG/1.1/DTD/svg11.dtd"><svg width="100%" height="100%" viewBox="0 0 149 150" version="1.1" xmlns="http://www.w3.org/2000/svg" xmlns:xlink="http://www.w3.org/1999/xlink" xml:space="preserve" xmlns:serif="http://www.serif.com/" style="fill-rule:evenodd;clip-rule:evenodd;stroke-linejoin:round;stroke-miterlimit:2;"><g><path d="M74.606,104.028c-0.882,1.813 -1.181,2.306 -1.373,2.838c-1.811,5.032 -3.636,10.062 -5.391,15.114c-1.05,3.026 3.037,13.196 5.824,14.529c0.433,0.208 1.134,0.197 1.576,-0.008c2.171,-1.002 7.041,-11.143 6.277,-13.347c-2.068,-5.971 -4.285,-11.892 -6.913,-19.126m-7.148,-4.618c-19.031,4 -30.85,14.409 -36.896,31.23c-3.745,10.426 -3.495,10.517 7.387,10.517l29.131,0c-2.177,-3.489 -3.364,-5.925 -5.04,-7.96c-3.504,-4.259 -3.986,-8.382 -1.638,-13.581c2.762,-6.115 4.493,-12.695 7.056,-20.206m14.639,41.735c12.573,0 23.867,-0.023 35.16,0.017c2.448,0.008 3.229,-0.999 2.908,-3.418c-2.678,-20.221 -22.467,-37.68 -38.25,-37.318c0.768,2.411 1.26,4.839 2.282,7.016c5.237,11.157 8.435,22.17 -2.1,33.703m11.205,-70.045c-0.038,-10.841 -8.989,-19.813 -19.694,-19.738c-10.575,0.073 -19.776,9.351 -19.738,19.902c0.036,10.723 9.043,19.577 19.895,19.557c10.968,-0.018 19.575,-8.707 19.537,-19.721m-2.525,22.251c14.058,5.373 24.957,13.7 31.625,26.871c3.593,7.099 5.554,14.591 5.949,22.567c0.227,4.549 -1.544,6.331 -6.075,6.317c-31.8,-0.082 -63.602,-0.106 -95.403,0.017c-5.391,0.02 -6.777,-2.424 -6.314,-7.307c2.075,-21.847 12.86,-37.497 32.98,-46.4c3.229,-1.429 3.381,-1.951 0.901,-4.559c-11.206,-11.784 -11.111,-28.707 -0.09,-39.401c10.904,-10.579 28.391,-10.383 39.09,0.434c10.983,11.108 10.652,27.307 -0.802,39.351c-0.424,0.446 -0.816,0.923 -1.861,2.11" style="fill:#008caa;fill-rule:nonzero;"/><path d="M138.814,59.912c0,10.679 -0.038,19.952 0.024,29.223c0.018,2.896 -0.307,5.828 -3.751,6.017c-3.984,0.215 -4.305,-3.05 -4.315,-6.069c-0.028,-9.267 -0.01,-18.537 -0.01,-27.704c-0.626,-0.261 -1.123,-0.639 -1.306,-0.521c-2.491,1.589 -5.009,4.714 -7.856,1.02c-2.437,-3.161 0.439,-5.276 2.448,-7.293c12.233,-12.279 9.58,-11.902 21.365,-0.081c0.727,0.729 1.454,1.462 2.108,2.256c1.475,1.783 1.924,3.649 0.16,5.523c-1.518,1.615 -3.27,1.56 -5.03,0.482c-0.992,-0.607 -1.879,-1.386 -3.837,-2.853" style="fill:#008caa;fill-rule:nonzero;"/><path d="M18.024,59.627c0,10.666 0.01,19.925 -0.006,29.185c-0.005,2.954 0.02,6.421 -3.991,6.336c-3.894,-0.081 -3.918,-3.435 -3.904,-6.461c0.041,-9.178 0.015,-18.36 0.015,-27.409c-2.411,-0.591 -2.999,1.227 -4.264,1.754c-1.961,0.816 -3.623,0.617 -4.963,-1.08c-1.17,-1.484 -1.255,-3.182 -0.01,-4.529c3.494,-3.775 6.92,-7.666 10.811,-11.001c2.108,-1.807 4.824,-0.878 6.466,1.442c3.166,4.476 11.025,6.655 9.209,13.3c-1.428,5.222 -5.536,1.313 -9.363,-1.537" style="fill:#008caa;fill-rule:nonzero;"/><path d="M69.668,14.17c-2.043,1.615 -2.919,2.532 -3.984,3.096c-1.77,0.941 -3.588,1.012 -5.022,-0.723c-1.422,-1.724 -1.194,-3.529 0.219,-5.052c3.227,-3.482 6.454,-6.981 9.913,-10.225c2.163,-2.028 4.491,-1.475 6.513,0.636c2.574,2.686 5.187,5.335 7.828,7.955c1.87,1.854 3.6,3.985 1.698,6.467c-2.222,2.9 -4.673,1.502 -6.879,-0.475c-0.395,-0.354 -1.058,-0.409 -2.151,-0.8c0,4.845 0.042,9.357 -0.015,13.866c-0.036,2.923 -0.796,5.64 -4.397,5.393c-3.112,-0.212 -3.784,-2.652 -3.741,-5.421c0.068,-4.489 0.018,-8.981 0.018,-14.717" style="fill:#008caa;fill-rule:nonzero;"/><path d="M42.31,29.68c0,5.67 -0.014,10.359 0.005,15.049c0.01,2.876 -1.123,5.032 -4.208,4.926c-2.763,-0.095 -3.702,-2.252 -3.709,-4.802c-0.012,-4.641 -0.003,-9.284 -0.003,-13.605c-2.398,-0.864 -2.938,0.688 -3.94,1.227c-1.886,1.015 -3.675,1.009 -5.053,-0.568c-1.384,-1.584 -1.273,-3.575 0.124,-5.093c3.35,-3.639 6.751,-7.248 10.344,-10.642c2.05,-1.937 4.218,-1.03 5.986,0.785c2.305,2.361 4.595,4.737 6.815,7.176c1.992,2.186 5.504,4.287 2.582,7.703c-2.966,3.466 -5.438,-0.023 -8.943,-2.156" style="fill:#008caa;fill-rule:nonzero;"/><path d="M103.975,31.267c-2.465,-0.785 -3.139,0.987 -4.396,1.517c-1.763,0.745 -3.368,0.498 -4.529,-0.784c-1.389,-1.533 -1.412,-3.527 0,-5.067c3.337,-3.634 6.748,-7.209 10.298,-10.632c2.017,-1.945 4.166,-1.268 5.986,0.563c2.32,2.333 4.649,4.66 6.87,7.086c1.995,2.179 5.512,4.338 2.793,7.714c-3.094,3.84 -5.699,0.131 -9.178,-2.447c0,5.716 -0.025,10.516 0.01,15.315c0.021,2.783 -0.77,5.149 -3.951,5.088c-3.149,-0.059 -3.911,-2.49 -3.904,-5.229c0.008,-4.454 0.001,-8.908 0.001,-13.124" style="fill:#008caa;fill-rule:nonzero;"/></g></svg>