<?xml version="1.0" encoding="UTF-8" standalone="no"?><!DOCTYPE svg PUBLIC "-//W3C//DTD SVG 1.1//EN" "http://www.w3.org/Graphics/SVG/1.1/DTD/svg11.dtd"><svg width="100%" height="100%" viewBox="0 0 108 108" version="1.1" xmlns="http://www.w3.org/2000/svg" xmlns:xlink="http://www.w3.org/1999/xlink" xml:space="preserve" xmlns:serif="http://www.serif.com/" style="fill-rule:evenodd;clip-rule:evenodd;stroke-linejoin:round;stroke-miterlimit:2;"><path d="M94.57,54.205c0,-16.512 -0.005,-33.022 0.003,-49.535c0.002,-4.259 0.348,-4.647 4.49,-4.61c8.375,0.073 8.492,-1.522 8.477,8.338c-0.044,31.174 -0.014,62.35 -0.019,93.525c0,4.79 -0.651,5.44 -5.344,5.462c-7.607,0.033 -7.607,0.033 -7.607,-7.456l0,-45.724" style="fill:#008da9;fill-rule:nonzero;"/><path d="M75.794,62.809c0,-13.504 -0.006,-27.009 0.005,-40.512c0.004,-3.968 0.646,-4.609 4.55,-4.717c8.091,-0.222 8.091,-0.222 8.091,7.751c0.001,26.201 -0.037,52.402 0.057,78.6c0.008,2.652 -0.585,3.805 -3.408,3.471c-2.951,-0.348 -6.798,1.219 -8.677,-0.622c-1.884,-1.848 -0.573,-5.692 -0.59,-8.654c-0.067,-11.771 -0.028,-23.544 -0.028,-35.317" style="fill:#008da9;fill-rule:nonzero;"/><path d="M69.599,71.483c0,10.855 -0.066,21.711 0.051,32.566c0.026,2.408 -0.322,3.708 -3.138,3.356c-3.065,-0.381 -7.057,1.267 -9.023,-0.667c-1.973,-1.942 -0.611,-5.925 -0.621,-9.005c-0.061,-19.287 -0.033,-38.571 -0.028,-57.858c0,-5.16 0.156,-5.311 5.178,-5.326c7.581,-0.021 7.581,-0.021 7.581,7.486l0,29.448" style="fill:#008ba9;fill-rule:nonzero;"/><path d="M37.747,80.168c0,-7.852 0.076,-15.704 -0.036,-23.554c-0.046,-3.228 1.191,-4.562 4.481,-4.571c8.557,-0.027 8.557,-0.115 8.557,8.484c0,14.432 -0.051,28.867 0.048,43.299c0.016,2.525 -0.375,3.929 -3.343,3.583c-3.069,-0.358 -7.052,1.235 -9.035,-0.615c-2.014,-1.882 -0.581,-5.89 -0.639,-8.96c-0.113,-5.886 -0.033,-11.777 -0.033,-17.666" style="fill:#008da9;fill-rule:nonzero;"/><path d="M46.786,6.347c-2.075,0 -3.455,-0.026 -4.833,0.007c-2.144,0.051 -3.425,-1.36 -3.441,-3.095c-0.015,-1.827 1.012,-3.356 3.494,-3.254c4.151,0.169 8.313,0.108 12.469,0.023c2.694,-0.054 3.78,1.409 3.839,3.801c0.089,3.578 0.044,7.159 0.013,10.738c-0.02,2.365 -0.438,4.465 -3.548,4.322c-2.817,-0.13 -3.313,-1.986 -3.225,-4.304c0.035,-0.92 0.005,-1.843 0.005,-3.123c-2.395,1.334 -3.862,3.347 -5.557,5.03c-13.172,13.081 -26.286,26.224 -39.416,39.349c-0.325,0.325 -0.629,0.672 -0.956,0.997c-1.361,1.358 -2.958,2.152 -4.507,0.553c-1.554,-1.6 -1.449,-3.607 0.029,-5.223c2.177,-2.381 4.551,-4.582 6.834,-6.867c12.161,-12.152 24.32,-24.308 36.474,-36.467c0.635,-0.636 1.23,-1.312 2.326,-2.487" style="fill:#008da9;fill-rule:nonzero;"/><path d="M18.94,88.137c0.003,-5.423 0.08,-10.848 -0.032,-16.269c-0.054,-2.548 1.242,-3.504 3.489,-3.731c0.229,-0.023 0.462,0 0.694,-0.009c8.376,-0.355 8.484,-0.253 8.484,8.067c0,9.345 -0.064,18.692 0.046,28.037c0.026,2.298 -0.453,3.431 -3.011,3.168c-3.073,-0.315 -7.065,1.249 -9.022,-0.609c-1.979,-1.878 -0.517,-5.889 -0.625,-8.962c-0.114,-3.228 -0.027,-6.461 -0.023,-9.692" style="fill:#008da9;fill-rule:nonzero;"/><path d="M12.711,95.814c0.002,1.268 0.076,2.54 -0.015,3.801c-0.175,2.487 1.172,6.17 -0.576,7.199c-2.714,1.596 -6.484,0.616 -9.79,0.415c-1.561,-0.095 -2.154,-1.372 -2.136,-3.008c0.064,-6.105 0.025,-12.213 0.03,-18.319c0.001,-0.458 -0.125,-1.095 0.12,-1.343c2.874,-2.936 6.49,-1.162 9.774,-1.365c1.982,-0.124 2.656,1.383 2.611,3.287c-0.07,3.109 -0.019,6.222 -0.018,9.333" style="fill:#008da9;fill-rule:nonzero;"/></svg>