<?xml version="1.0" encoding="UTF-8" standalone="no"?><!DOCTYPE svg PUBLIC "-//W3C//DTD SVG 1.1//EN" "http://www.w3.org/Graphics/SVG/1.1/DTD/svg11.dtd"><svg width="100%" height="100%" viewBox="0 0 182 186" version="1.1" xmlns="http://www.w3.org/2000/svg" xmlns:xlink="http://www.w3.org/1999/xlink" xml:space="preserve" xmlns:serif="http://www.serif.com/" style="fill-rule:evenodd;clip-rule:evenodd;stroke-linejoin:round;stroke-miterlimit:2;"><path d="M118.07,165.196c-1.696,-3.254 -3.297,-6.264 -4.831,-9.309c-0.372,-0.739 -0.887,-0.803 -1.587,-0.802c-14.065,0.014 -28.13,0.008 -42.196,0.02c-0.438,0.001 -0.977,-0.222 -1.28,0.357c-1.677,3.205 -3.357,6.407 -5.1,9.734l54.994,0Zm-27.512,15.567c16.526,0 33.053,0.001 49.579,0c0.601,0 1.205,0.026 1.802,-0.023c3.907,-0.322 6.357,-4.18 4.812,-7.688c-1.158,-2.629 -3.342,-3.517 -6.132,-3.515c-33.353,0.03 -66.707,0.019 -100.061,0.02c-0.48,0 -0.964,-0.019 -1.441,0.026c-2.727,0.26 -4.923,2.466 -5.171,5.175c-0.235,2.561 1.402,4.871 4,5.732c0.884,0.293 1.774,0.271 2.672,0.271c16.646,0.003 33.293,0.002 49.94,0.002m0.091,-47.721c-28.196,0 -56.391,0.011 -84.587,-0.032c-1.386,-0.002 -1.801,0.308 -1.762,1.743c0.108,3.973 0.03,7.95 0.039,11.926c0.007,2.939 1.113,4.075 4.004,4.075c54.828,0.004 109.656,0.004 164.484,0c2.812,0 3.966,-1.144 3.977,-3.921c0.015,-3.976 -0.1,-7.955 0.053,-11.925c0.064,-1.676 -0.487,-1.902 -1.982,-1.9c-28.075,0.046 -56.15,0.034 -84.226,0.034m-0.23,-4.338c28.199,0 56.398,-0.015 84.596,0.039c1.525,0.003 1.83,-0.388 1.828,-1.863c-0.044,-39.339 -0.035,-78.678 -0.036,-118.017c0,-3.551 -0.959,-4.524 -4.462,-4.524c-54.534,-0.001 -109.067,-0.001 -163.601,0c-3.406,0 -4.406,0.998 -4.406,4.398c-0.001,39.399 0.01,78.799 -0.042,118.198c-0.002,1.576 0.462,1.804 1.888,1.802c28.078,-0.045 56.157,-0.033 84.235,-0.033m52.833,56.398l-106.081,0c-0.234,-0.614 -0.86,-0.548 -1.324,-0.752c-2.523,-1.109 -4.437,-2.854 -5.513,-5.417c-2.693,-6.411 2.133,-13.599 9.25,-13.697c5.769,-0.08 11.539,-0.008 17.309,-0.033c0.594,-0.002 1.284,0.305 1.716,-0.543c1.596,-3.137 3.254,-6.244 4.996,-9.565l-2.152,0c-17.55,0 -35.1,0.001 -52.65,0c-6.022,0 -8.796,-2.783 -8.796,-8.824c0,-45.828 0,-91.656 0.001,-137.483c0,-0.542 -0.025,-1.087 0.015,-1.626c0.216,-2.932 1.587,-5.106 4.234,-6.447c0.403,-0.204 0.965,-0.171 1.162,-0.715l169.585,0c5.033,2.04 6.133,3.718 6.133,9.353c0.001,45.732 0.001,91.465 -0.001,137.197c0,5.672 -2.872,8.544 -8.538,8.544c-17.68,0.002 -35.359,0.001 -53.039,0.001l-2.014,0c1.618,3.102 3.136,5.894 4.532,8.746c0.518,1.056 1.124,1.426 2.323,1.411c5.772,-0.074 11.546,-0.09 17.318,-0.011c4.906,0.068 8.887,3.647 9.725,8.549c0.742,4.336 -1.873,8.788 -6.131,10.573c-0.68,0.286 -1.537,0.053 -2.06,0.739" style="fill:#008caa;fill-rule:nonzero;"/><path d="M12.274,76.934c0,12.77 -0.002,25.54 0.001,38.309c0,3.154 0.612,3.61 3.771,3.223c9.775,-1.201 19.558,-2.341 29.337,-3.512c11.628,-1.393 23.247,-2.87 34.887,-4.152c4.509,-0.497 8.989,-1.679 13.6,-0.899c1.952,0.331 3.932,0.495 5.9,0.728c10.556,1.254 21.114,2.496 31.669,3.761c11.449,1.372 22.894,2.777 34.344,4.139c2.362,0.281 3.082,-0.381 3.083,-2.75c0.008,-25.961 0.008,-51.922 0,-77.883c-0.001,-2.013 -0.823,-2.812 -2.851,-2.827c-2.464,-0.019 -4.932,-0.079 -7.393,0.026c-1.289,0.055 -1.744,-0.208 -1.698,-1.629c0.119,-3.731 0.058,-7.468 0.036,-11.203c-0.034,-5.647 0.844,-5.686 -5.555,-6.563c-8.365,-1.147 -16.741,-1.688 -25.161,-0.779c-12.334,1.332 -23.868,5.151 -34.617,11.341c-0.777,0.447 -1.335,0.447 -2.112,-0.01c-3.209,-1.882 -6.555,-3.493 -9.977,-4.956c-17.194,-7.35 -34.992,-8.265 -53.183,-5.059c-1.556,0.273 -2.203,1.197 -2.19,2.78c0.042,4.758 -0.025,9.517 0.042,14.275c0.019,1.298 -0.158,1.918 -1.692,1.813c-2.274,-0.156 -4.566,-0.042 -6.85,-0.04c-2.743,0.003 -3.39,0.645 -3.39,3.378c-0.002,12.829 -0.001,25.66 -0.001,38.489m78.145,51.769c-28.078,0 -56.157,-0.011 -84.235,0.034c-1.426,0.002 -1.89,-0.226 -1.888,-1.802c0.052,-39.399 0.041,-78.799 0.042,-118.198c0,-3.4 1,-4.398 4.406,-4.398c45.286,-0.001 90.571,-0.001 135.857,-0.001c9.248,0 18.496,0.001 27.744,0.001c3.503,0 4.462,0.973 4.462,4.524c0.001,39.339 -0.009,78.678 0.036,118.017c0.002,1.475 -0.304,1.865 -1.827,1.863c-28.199,-0.054 -56.398,-0.04 -84.597,-0.04" style="fill:#fefefe;fill-rule:nonzero;"/><path d="M161.043,139.913l0,0.008c-0.84,0 -1.682,-0.037 -2.521,0.01c-1.208,0.067 -1.861,0.757 -1.906,1.962c-0.047,1.252 0.537,2.191 1.792,2.293c1.729,0.141 3.487,0.157 5.214,0.006c1.274,-0.11 2.064,-1.019 1.959,-2.36c-0.099,-1.269 -0.947,-1.882 -2.197,-1.915c-0.78,-0.02 -1.561,-0.004 -2.341,-0.004m-28.373,0.004c-0.839,0 -1.679,-0.019 -2.518,0.004c-1.291,0.036 -2.005,0.716 -2.04,2.014c-0.035,1.252 0.574,2.171 1.828,2.259c1.789,0.126 3.602,0.133 5.389,-0.012c1.252,-0.101 1.825,-1.054 1.773,-2.302c-0.05,-1.205 -0.709,-1.886 -1.915,-1.95c-0.836,-0.045 -1.678,-0.009 -2.517,-0.013m14.176,4.327c0.841,0 1.689,0.065 2.522,-0.015c1.304,-0.127 2.14,-0.892 2.144,-2.219c0.004,-1.371 -0.866,-2.062 -2.205,-2.089c-1.622,-0.033 -3.245,-0.027 -4.868,-0.003c-1.338,0.021 -2.218,0.695 -2.233,2.065c-0.014,1.328 0.816,2.104 2.117,2.242c0.832,0.088 1.681,0.017 2.523,0.019m-56.197,-11.202c28.076,0 56.151,0.012 84.227,-0.034c1.494,-0.002 2.045,0.223 1.981,1.9c-0.153,3.97 -0.038,7.949 -0.053,11.925c-0.011,2.777 -1.165,3.921 -3.977,3.921c-54.828,0.004 -109.656,0.004 -164.485,0c-2.891,0 -3.996,-1.136 -4.003,-4.075c-0.009,-3.976 0.069,-7.954 -0.04,-11.926c-0.039,-1.435 0.377,-1.745 1.763,-1.743c28.196,0.042 56.391,0.032 84.587,0.032" style="fill:#fefefe;fill-rule:nonzero;"/><path d="M90.558,180.764c-16.647,0 -33.294,0.001 -49.94,-0.002c-0.898,-0.001 -1.788,0.021 -2.672,-0.272c-2.598,-0.862 -4.235,-3.171 -4,-5.732c0.248,-2.708 2.444,-4.915 5.171,-5.175c0.477,-0.045 0.961,-0.026 1.441,-0.026c33.354,-0.001 66.707,0.01 100.061,-0.02c2.79,-0.003 4.974,0.886 6.132,3.514c1.545,3.508 -0.905,7.366 -4.811,7.689c-0.598,0.049 -1.202,0.023 -1.802,0.023c-16.527,0.001 -33.054,0.001 -49.58,0.001" style="fill:#fefefe;fill-rule:nonzero;"/><path d="M118.07,165.196l-54.994,0c1.743,-3.327 3.423,-6.529 5.1,-9.734c0.303,-0.579 0.842,-0.356 1.28,-0.357c14.066,-0.012 28.131,-0.006 42.196,-0.02c0.7,-0.001 1.215,0.063 1.587,0.802c1.534,3.045 3.135,6.055 4.831,9.309" style="fill:#fefefe;fill-rule:nonzero;"/><path d="M164.538,114.232l0,-2.008c0,-22.341 0.009,-44.681 -0.015,-67.021c-0.001,-1.901 0.821,-4.447 -0.355,-5.517c-1.031,-0.938 -3.545,-0.148 -5.387,-0.31c-1.495,-0.131 -1.861,0.316 -1.856,1.833c0.061,18.064 0.039,36.129 0.039,54.194c0,0.541 0.083,1.105 -0.034,1.621c-0.28,1.236 -0.927,1.996 -2.388,1.761c-6.634,-1.067 -13.304,-1.79 -20.021,-2.096c-8.862,-0.405 -17.621,0.171 -26.151,2.771c-4.46,1.36 -8.638,3.341 -12.578,6.471c23.077,2.786 45.83,5.534 68.746,8.301m-79.115,-8.302c-0.584,-0.437 -0.848,-0.661 -1.136,-0.845c-1.262,-0.806 -2.491,-1.674 -3.804,-2.386c-8.557,-4.647 -17.902,-5.897 -27.427,-6.113c-8.84,-0.2 -17.61,0.804 -26.33,2.184c-1.27,0.201 -1.991,-0.236 -2.395,-1.283c-0.205,-0.533 -0.145,-1.181 -0.145,-1.778c-0.006,-18.248 -0.019,-36.496 0.024,-54.744c0.003,-1.237 -0.245,-1.705 -1.549,-1.585c-1.371,0.125 -2.774,0.142 -4.142,-0.002c-1.558,-0.164 -1.961,0.301 -1.956,1.916c0.064,21.922 0.043,43.844 0.043,65.766c0,1.987 0.028,3.975 -0.013,5.962c-0.017,0.848 0.055,1.274 1.14,1.133c6.014,-0.777 12.041,-1.462 18.062,-2.189c12.697,-1.535 25.393,-3.075 38.09,-4.617c3.725,-0.452 7.45,-0.916 11.538,-1.419m7.315,-3.474c1.453,-0.973 2.649,-1.845 3.91,-2.609c9.089,-5.503 19.153,-7.272 29.562,-7.648c8.369,-0.301 16.682,0.492 24.963,1.559c1.463,0.188 1.48,-0.228 1.479,-1.38c-0.028,-23.499 -0.038,-46.998 0.021,-70.496c0.004,-1.448 -0.523,-1.82 -1.764,-1.973c-2.923,-0.36 -5.844,-0.688 -8.785,-0.898c-17.275,-1.241 -33.376,2.564 -48.392,11.151c-0.707,0.404 -1.014,0.817 -1.013,1.669c0.025,23.438 0.019,46.876 0.019,70.625m-4.332,0.1c0,-23.844 -0.01,-47.283 0.03,-70.721c0.002,-1.091 -0.581,-1.425 -1.327,-1.852c-17.815,-10.197 -36.898,-13.116 -57.044,-10.051c-1.248,0.19 -1.59,0.655 -1.587,1.941c0.048,23.439 0.034,46.878 0.044,70.316c0,0.573 -0.175,1.182 0.164,1.712c4.973,-0.585 9.915,-1.158 14.887,-1.476c9.515,-0.61 18.96,-0.334 28.237,2.079c5.938,1.544 11.448,4.065 16.596,8.052m-76.132,-25.622c0,-12.83 -0.001,-25.66 0,-38.489c0.001,-2.733 0.648,-3.375 3.391,-3.378c2.284,-0.002 4.577,-0.116 6.85,0.04c1.534,0.106 1.711,-0.515 1.692,-1.813c-0.067,-4.758 0,-9.517 -0.041,-14.276c-0.014,-1.582 0.633,-2.506 2.189,-2.78c18.191,-3.205 35.99,-2.29 53.183,5.06c3.422,1.463 6.768,3.074 9.976,4.956c0.778,0.457 1.336,0.457 2.112,0.01c10.75,-6.19 22.284,-10.009 34.618,-11.341c8.42,-0.909 16.796,-0.368 25.161,0.779c6.399,0.877 5.521,0.916 5.555,6.564c0.022,3.734 0.083,7.471 -0.036,11.202c-0.046,1.421 0.409,1.684 1.698,1.629c2.461,-0.105 4.929,-0.044 7.393,-0.026c2.028,0.016 2.85,0.813 2.851,2.827c0.008,25.96 0.008,51.922 0,77.883c-0.001,2.369 -0.721,3.031 -3.083,2.75c-11.45,-1.363 -22.895,-2.767 -34.344,-4.139c-10.555,-1.265 -21.113,-2.507 -31.669,-3.761c-1.968,-0.233 -3.948,-0.398 -5.9,-0.728c-4.611,-0.78 -9.091,0.402 -13.6,0.899c-11.64,1.282 -23.259,2.76 -34.887,4.152c-9.779,1.172 -19.562,2.311 -29.337,3.512c-3.158,0.387 -3.771,-0.069 -3.772,-3.223c-0.002,-12.769 0,-25.539 0,-38.309" style="fill:#008caa;fill-rule:nonzero;"/><path d="M146.846,144.243c-0.842,-0.001 -1.691,0.07 -2.523,-0.018c-1.301,-0.138 -2.131,-0.913 -2.117,-2.242c0.015,-1.371 0.895,-2.044 2.233,-2.064c1.623,-0.025 3.246,-0.031 4.868,0.002c1.339,0.026 2.209,0.718 2.205,2.089c-0.004,1.328 -0.84,2.092 -2.144,2.219c-0.833,0.08 -1.681,0.015 -2.522,0.014" style="fill:#008d81;fill-rule:nonzero;"/><path d="M132.67,139.919c0.839,0.002 1.681,-0.034 2.517,0.011c1.206,0.064 1.865,0.745 1.915,1.95c0.052,1.248 -0.521,2.201 -1.773,2.302c-1.787,0.145 -3.6,0.138 -5.389,0.012c-1.254,-0.088 -1.862,-1.007 -1.828,-2.259c0.035,-1.298 0.749,-1.978 2.04,-2.014c0.839,-0.023 1.679,-0.004 2.518,-0.002" style="fill:#008d81;fill-rule:nonzero;"/><path d="M161.043,139.913c0.78,0 1.561,-0.016 2.341,0.004c1.25,0.033 2.098,0.646 2.197,1.915c0.105,1.341 -0.685,2.25 -1.959,2.36c-1.727,0.151 -3.485,0.135 -5.214,-0.006c-1.255,-0.102 -1.839,-1.041 -1.792,-2.293c0.045,-1.205 0.698,-1.895 1.906,-1.962c0.839,-0.047 1.681,-0.01 2.521,-0.01l0,-0.008Z" style="fill:#008d81;fill-rule:nonzero;"/><path d="M73.818,84.641c1.346,-0.088 2.382,-0.636 2.61,-1.896c0.233,-1.291 -0.521,-2.154 -1.809,-2.498c-11.178,-2.987 -22.355,-5.982 -33.535,-8.961c-1.357,-0.362 -2.463,0.049 -2.801,1.485c-0.331,1.405 0.349,2.147 1.807,2.543c8.967,2.433 17.908,4.959 26.86,7.45c2.308,0.642 4.622,1.264 6.868,1.877m-33.399,-27.591c-1.339,0.091 -2.064,0.726 -2.187,1.896c-0.135,1.281 0.512,1.899 1.782,2.247c10.755,2.94 21.492,5.95 32.235,8.933c2.267,0.629 3.874,0.085 4.213,-1.395c0.312,-1.358 -0.65,-2.288 -2.979,-2.91c-8.977,-2.398 -17.953,-4.803 -26.932,-7.197c-2.083,-0.555 -4.177,-1.073 -6.132,-1.574m33.47,-0.609c1.409,-0.141 2.409,-0.732 2.554,-2.023c0.147,-1.308 -0.671,-2.065 -1.951,-2.406c-11.123,-2.96 -22.239,-5.947 -33.36,-8.917c-1.349,-0.36 -2.476,-0.001 -2.839,1.43c-0.349,1.38 0.27,2.175 1.75,2.577c10.875,2.957 21.728,5.992 32.589,9.002c0.459,0.127 0.919,0.247 1.257,0.337m0.026,-14.076c1.325,-0.182 2.364,-0.717 2.526,-2.014c0.162,-1.305 -0.632,-2.086 -1.917,-2.429c-11.123,-2.963 -22.239,-5.948 -33.359,-8.921c-1.344,-0.359 -2.487,-0.033 -2.866,1.392c-0.399,1.5 0.369,2.242 1.885,2.652c8.909,2.415 17.793,4.928 26.687,7.4c2.365,0.658 4.736,1.292 7.044,1.92m14.491,60.191c-5.148,-3.987 -10.658,-6.508 -16.596,-8.052c-9.277,-2.413 -18.722,-2.689 -28.236,-2.079c-4.974,0.318 -9.915,0.891 -14.888,1.476c-0.339,-0.53 -0.164,-1.139 -0.164,-1.712c-0.01,-23.438 0.004,-46.877 -0.044,-70.316c-0.003,-1.286 0.339,-1.751 1.587,-1.941c20.146,-3.065 39.229,-0.146 57.044,10.051c0.746,0.427 1.329,0.761 1.327,1.853c-0.04,23.437 -0.03,46.876 -0.03,70.72" style="fill:#fefefe;fill-rule:nonzero;"/><path d="M122.709,88.575c14.656,-0.007 26.65,-11.844 26.677,-26.327c0.028,-14.874 -11.919,-26.845 -26.765,-26.819c-14.451,0.025 -26.269,12.045 -26.276,26.726c-0.008,14.472 11.923,26.427 26.364,26.42m-29.971,13.881c0,-23.749 0.006,-47.187 -0.019,-70.626c-0.001,-0.851 0.306,-1.264 1.013,-1.668c15.016,-8.587 31.117,-12.392 48.392,-11.152c2.941,0.212 5.862,0.539 8.785,0.899c1.241,0.153 1.767,0.525 1.764,1.973c-0.059,23.499 -0.049,46.998 -0.021,70.497c0.001,1.151 -0.016,1.567 -1.479,1.378c-8.281,-1.066 -16.594,-1.859 -24.963,-1.557c-10.41,0.375 -20.473,2.144 -29.562,7.647c-1.261,0.763 -2.457,1.636 -3.91,2.609" style="fill:#fefefe;fill-rule:nonzero;"/><path d="M85.423,105.93c-4.088,0.503 -7.813,0.967 -11.538,1.42c-12.696,1.541 -25.393,3.081 -38.09,4.615c-6.021,0.729 -12.048,1.413 -18.062,2.19c-1.085,0.141 -1.157,-0.285 -1.139,-1.134c0.04,-1.986 0.012,-3.974 0.012,-5.961c0,-21.922 0.021,-43.845 -0.043,-65.766c-0.005,-1.616 0.398,-2.08 1.956,-1.916c1.368,0.144 2.771,0.128 4.142,0.002c1.304,-0.12 1.552,0.348 1.549,1.584c-0.043,18.249 -0.031,36.497 -0.024,54.745c0,0.597 -0.061,1.246 0.145,1.778c0.404,1.047 1.125,1.484 2.395,1.283c8.72,-1.38 17.49,-2.384 26.33,-2.184c9.525,0.216 18.87,1.466 27.427,6.112c1.313,0.713 2.542,1.581 3.804,2.387c0.288,0.184 0.552,0.407 1.136,0.845" style="fill:#fefefe;fill-rule:nonzero;"/><path d="M164.538,114.232c-22.916,-2.767 -45.669,-5.515 -68.746,-8.301c3.94,-3.13 8.118,-5.111 12.578,-6.471c8.53,-2.6 17.289,-3.176 26.151,-2.771c6.717,0.306 13.387,1.029 20.021,2.096c1.461,0.235 2.108,-0.525 2.388,-1.761c0.117,-0.516 0.034,-1.08 0.034,-1.621c0,-18.065 0.022,-36.13 -0.039,-54.194c-0.005,-1.517 0.361,-1.964 1.856,-1.833c1.842,0.162 4.356,-0.628 5.387,0.31c1.176,1.07 0.354,3.616 0.355,5.517c0.024,22.34 0.015,44.68 0.015,67.021l0,2.008Z" style="fill:#fefefe;fill-rule:nonzero;"/><path d="M73.915,42.43c-2.308,-0.627 -4.679,-1.261 -7.045,-1.919c-8.893,-2.473 -17.777,-4.985 -26.687,-7.4c-1.515,-0.41 -2.283,-1.152 -1.884,-2.652c0.379,-1.425 1.522,-1.751 2.866,-1.392c11.12,2.973 22.236,5.958 33.359,8.921c1.285,0.343 2.079,1.124 1.917,2.429c-0.162,1.297 -1.201,1.832 -2.526,2.013" style="fill:#008caa;fill-rule:nonzero;"/><path d="M73.889,56.507c-0.338,-0.09 -0.798,-0.21 -1.257,-0.337c-10.86,-3.01 -21.714,-6.045 -32.589,-9.002c-1.48,-0.402 -2.1,-1.197 -1.75,-2.577c0.363,-1.431 1.49,-1.79 2.839,-1.43c11.121,2.97 22.237,5.957 33.36,8.918c1.281,0.34 2.098,1.097 1.951,2.404c-0.145,1.292 -1.145,1.883 -2.554,2.024" style="fill:#008caa;fill-rule:nonzero;"/><path d="M40.419,57.116c1.955,0.501 4.049,1.019 6.132,1.574c8.979,2.393 17.955,4.799 26.932,7.197c2.329,0.622 3.291,1.552 2.979,2.91c-0.339,1.48 -1.946,2.024 -4.213,1.395c-10.743,-2.983 -21.48,-5.993 -32.235,-8.933c-1.27,-0.348 -1.917,-0.966 -1.782,-2.247c0.123,-1.171 0.848,-1.805 2.187,-1.896" style="fill:#008caa;fill-rule:nonzero;"/><path d="M73.818,84.641c-2.246,-0.613 -4.56,-1.235 -6.868,-1.877c-8.952,-2.491 -17.893,-5.017 -26.86,-7.45c-1.458,-0.396 -2.138,-1.138 -1.807,-2.543c0.338,-1.436 1.444,-1.847 2.801,-1.485c11.18,2.979 22.357,5.974 33.535,8.961c1.288,0.344 2.042,1.207 1.809,2.498c-0.228,1.26 -1.264,1.808 -2.61,1.896" style="fill:#008caa;fill-rule:nonzero;"/><path d="M122.716,84.234c12.342,-0.011 22.365,-9.94 22.337,-22.127c-0.028,-12.236 -10.189,-22.357 -22.425,-22.337c-12.052,0.021 -21.931,10.073 -21.951,22.336c-0.019,12.313 9.767,22.139 22.039,22.128m-0.007,4.341c-14.441,0.007 -26.372,-11.948 -26.364,-26.42c0.007,-14.681 11.826,-26.701 26.276,-26.726c14.846,-0.026 26.793,11.945 26.765,26.818c-0.027,14.484 -12.021,26.32 -26.677,26.328" style="fill:#008caa;fill-rule:nonzero;"/><path d="M111.859,62.238c0,3.192 -0.01,6.385 0.003,9.577c0.011,2.825 1.452,3.677 3.939,2.263c5.215,-2.966 10.412,-5.961 15.595,-8.981c2.898,-1.69 2.906,-4.505 0.024,-6.181c-5.186,-3.015 -10.387,-6.004 -15.596,-8.98c-2.373,-1.356 -3.935,-0.423 -3.958,2.363c-0.029,3.313 -0.007,6.626 -0.007,9.939m10.857,21.996c-12.272,0.011 -22.059,-9.815 -22.039,-22.128c0.02,-12.263 9.899,-22.315 21.951,-22.336c12.236,-0.021 22.397,10.101 22.425,22.337c0.028,12.187 -9.994,22.115 -22.337,22.127" style="fill:#fefefe;fill-rule:nonzero;"/><path d="M128.085,62.181c-4.058,-2.344 -7.86,-4.54 -11.812,-6.823l0,13.289c3.955,-2.165 7.755,-4.245 11.812,-6.466m-16.226,0.057c0,-3.313 -0.022,-6.626 0.007,-9.939c0.024,-2.786 1.585,-3.719 3.958,-2.363c5.209,2.976 10.41,5.965 15.596,8.98c2.882,1.676 2.874,4.491 -0.024,6.18c-5.183,3.021 -10.381,6.016 -15.595,8.982c-2.486,1.414 -3.928,0.562 -3.939,-2.263c-0.012,-3.192 -0.003,-6.384 -0.003,-9.577" style="fill:#008caa;fill-rule:nonzero;"/><path d="M128.085,62.181c-4.057,2.221 -7.857,4.301 -11.812,6.466l0,-13.289c3.952,2.283 7.754,4.479 11.812,6.823" style="fill:#fff;fill-rule:nonzero;"/></svg>