<?xml version="1.0" encoding="UTF-8" standalone="no"?><!DOCTYPE svg PUBLIC "-//W3C//DTD SVG 1.1//EN" "http://www.w3.org/Graphics/SVG/1.1/DTD/svg11.dtd"><svg width="100%" height="100%" viewBox="0 0 127 144" version="1.1" xmlns="http://www.w3.org/2000/svg" xmlns:xlink="http://www.w3.org/1999/xlink" xml:space="preserve" xmlns:serif="http://www.serif.com/" style="fill-rule:evenodd;clip-rule:evenodd;stroke-linejoin:round;stroke-miterlimit:2;"><g><path d="M60.769,82.954c0,3.318 -0.041,6.638 0.026,9.954c0.02,0.953 -0.321,1.421 -1.118,1.87c-3.708,2.088 -7.377,4.246 -11.059,6.376c-2.006,1.161 -4.026,2.298 -6.017,3.482c-0.847,0.506 -1.142,1.277 -0.617,2.178c0.508,0.874 1.279,1.068 2.187,0.617c0.381,-0.189 0.746,-0.41 1.114,-0.623c5.364,-3.098 10.734,-6.183 16.077,-9.317c0.741,-0.434 1.272,-0.451 2.025,-0.009c5.464,3.206 10.96,6.361 16.447,9.529c0.327,0.189 0.655,0.387 1.004,0.523c0.845,0.332 1.477,0.001 1.924,-0.723c0.44,-0.714 0.279,-1.389 -0.309,-1.919c-0.381,-0.343 -0.853,-0.59 -1.303,-0.85c-5.362,-3.1 -10.717,-6.212 -16.106,-9.266c-0.81,-0.46 -1.102,-0.948 -1.096,-1.882c0.045,-6.637 0.017,-13.273 0.031,-19.91c0.002,-1.144 -0.318,-2.024 -1.617,-2.02c-1.307,0.003 -1.607,0.898 -1.599,2.035c0.02,3.318 0.006,6.636 0.006,9.955m2.66,-18.482c6.969,0 13.938,-0.011 20.908,0.01c1.268,0.004 2.207,-0.348 2.201,-1.775c-0.023,-5.356 0.282,-10.723 -0.131,-16.065c-0.568,-7.354 -7.092,-13.599 -14.433,-14.092c-0.471,-0.031 -1.137,0.247 -1.354,-0.431c-0.226,-0.698 0.395,-0.965 0.837,-1.316c2.833,-2.24 4.632,-5.103 5.059,-8.723c0.384,-3.257 0.362,-6.544 0.104,-9.796c-0.551,-6.968 -5.834,-11.941 -12.784,-12.27c-6.48,-0.305 -12.194,4.41 -13.384,11.118c-0.449,2.535 -0.074,5.111 -0.192,7.664c-0.232,5.032 1.421,9.199 5.556,12.235c0.398,0.293 0.565,0.618 0.483,1.08c-0.099,0.556 -0.568,0.395 -0.91,0.427c-9.014,0.862 -15.027,7.435 -15.053,16.477c-0.013,4.314 -0.005,8.63 -0.002,12.944c0.002,2.075 0.429,2.511 2.472,2.512c6.874,0.003 13.749,0.001 20.623,0.001m-40.355,78.606c6.971,0 13.942,0.005 20.913,-0.003c1.668,-0.002 2.235,-0.489 2.242,-2.023c0.019,-4.79 0.117,-9.585 -0.029,-14.371c-0.251,-8.209 -6.688,-14.972 -14.576,-15.542c-0.448,-0.032 -1.111,0.344 -1.329,-0.393c-0.206,-0.701 0.382,-0.985 0.825,-1.333c2.77,-2.165 4.517,-4.958 5.014,-8.453c0.449,-3.158 0.223,-6.345 0.17,-9.516c-0.106,-6.418 -5.136,-11.944 -11.435,-12.717c-6.648,-0.814 -12.756,3.283 -14.491,9.694c-0.835,3.083 -0.381,6.224 -0.486,9.34c-0.165,4.872 1.548,8.89 5.499,11.852c0.421,0.317 0.728,0.655 0.571,1.178c-0.175,0.58 -0.718,0.325 -1.098,0.349c-7.718,0.494 -14.279,6.854 -14.698,14.598c-0.269,4.966 -0.124,9.955 -0.145,14.934c-0.009,2.001 0.41,2.403 2.425,2.404c6.876,0.005 13.752,0.002 20.628,0.002m80.664,0c6.968,0 13.938,0.004 20.906,-0.003c1.661,-0.002 2.229,-0.445 2.233,-1.853c0.014,-5.073 0.113,-10.151 -0.05,-15.219c-0.246,-7.666 -6.961,-14.383 -14.607,-14.866c-0.436,-0.028 -1.092,0.339 -1.295,-0.409c-0.195,-0.717 0.414,-0.96 0.853,-1.304c2.514,-1.964 4.251,-4.463 4.855,-7.613c0.675,-3.512 0.426,-7.082 0.287,-10.622c-0.255,-6.513 -5.375,-11.926 -11.641,-12.485c-6.907,-0.616 -12.822,3.595 -14.36,10.233c-0.607,2.619 -0.282,5.282 -0.327,7.927c-0.027,1.562 -0.076,3.133 0.252,4.675c0.709,3.335 2.432,6.025 5.183,8.045c0.401,0.293 0.723,0.574 0.64,1.144c-0.093,0.628 -0.566,0.381 -0.882,0.405c-8.675,0.662 -14.979,7.339 -15.066,16.03c-0.044,4.504 -0.011,9.009 -0.007,13.514c0.001,2.025 0.371,2.398 2.404,2.399c6.874,0.005 13.748,0.002 20.622,0.002" style="fill:#fdfdfd;fill-rule:nonzero;"/><path d="M107.656,112.924c-0.146,-0.467 0.5,-1.496 -0.829,-1.175c-2.059,0.5 -4.118,0.477 -6.178,-0.011c-0.379,-0.09 -0.692,-0.156 -0.767,0.456c-0.311,2.552 1.25,4.778 3.525,4.934c2.498,0.171 4.225,-1.529 4.249,-4.204m-13.597,-22.702c0.387,-0.068 0.662,-0.09 0.922,-0.166c3.668,-1.056 7.264,-0.902 10.828,0.51c1.45,0.574 2.992,0.857 4.559,0.966c3.867,0.271 4.131,-0.113 2.529,-3.739c-1.772,-4.008 -6.19,-6.507 -10.363,-5.862c-4.492,0.695 -7.99,4.053 -8.475,8.291m19.693,7.631c0,-0.522 -0.056,-1.05 0.013,-1.562c0.141,-1.065 -0.187,-1.43 -1.342,-1.415c-2.856,0.038 -5.64,-0.49 -8.322,-1.512c-3.212,-1.224 -6.4,-0.909 -9.578,0.169c-0.523,0.177 -0.731,0.446 -0.715,1.023c0.045,1.704 -0.048,3.413 0.047,5.113c0.325,5.812 6.062,10.178 11.751,9.052c4.468,-0.883 8.513,-4.822 8.146,-10.868m-10.08,42.016c3.129,0 6.259,-0.056 9.386,0.028c1.23,0.032 1.706,-0.205 1.653,-1.577c-0.119,-3.077 -0.037,-6.162 -0.037,-9.243c0,-0.806 -0.018,-1.612 0.008,-2.418c0.033,-1.027 0.497,-1.79 1.589,-1.808c1.171,-0.021 1.648,0.763 1.688,1.856c0.012,0.332 0.004,0.663 0.004,0.996c0,3.698 0.03,7.395 -0.021,11.093c-0.012,0.888 0.24,1.147 1.114,1.093c1.228,-0.077 2.466,-0.064 3.696,-0.004c0.765,0.038 0.956,-0.232 0.949,-0.968c-0.038,-4.077 0.07,-8.156 -0.055,-12.23c-0.2,-6.53 -5.211,-11.713 -11.714,-12.323c-0.707,-0.066 -1.101,0.022 -1.309,0.831c-0.608,2.366 -2.138,3.965 -4.434,4.783c-0.6,0.214 -0.783,0.522 -0.771,1.136c0.037,1.849 0.009,3.698 0.014,5.546c0.004,1.135 -0.4,2.049 -1.638,2.06c-1.247,0.012 -1.658,-0.896 -1.654,-2.035c0.006,-1.802 -0.022,-3.604 0.013,-5.404c0.014,-0.691 -0.128,-1.071 -0.873,-1.35c-2.216,-0.828 -3.697,-2.429 -4.327,-4.729c-0.182,-0.663 -0.426,-0.904 -1.157,-0.856c-5.829,0.384 -10.945,5.015 -11.653,10.815c-0.564,4.622 -0.109,9.282 -0.238,13.922c-0.018,0.642 0.239,0.81 0.832,0.796c1.328,-0.031 2.657,-0.054 3.982,0.007c0.777,0.036 0.948,-0.261 0.94,-0.977c-0.033,-3.034 -0.015,-6.069 -0.012,-9.102c0.001,-1.138 -0.037,-2.279 0.034,-3.412c0.057,-0.911 0.6,-1.523 1.543,-1.55c1.011,-0.03 1.554,0.591 1.686,1.561c0.05,0.373 0.019,0.757 0.019,1.136c0.002,3.746 0.028,7.491 -0.018,11.235c-0.01,0.856 0.188,1.132 1.09,1.115c3.223,-0.059 6.447,-0.023 9.671,-0.023m0.066,3.21c-6.874,0 -13.749,0.002 -20.623,-0.002c-2.032,-0.002 -2.401,-0.375 -2.403,-2.4c-0.003,-4.504 -0.037,-9.009 0.008,-13.513c0.087,-8.692 6.39,-15.369 15.065,-16.031c0.315,-0.025 0.79,0.223 0.881,-0.404c0.084,-0.572 -0.239,-0.851 -0.639,-1.144c-2.751,-2.02 -4.474,-4.712 -5.184,-8.046c-0.328,-1.542 -0.277,-3.114 -0.251,-4.676c0.045,-2.645 -0.279,-5.307 0.328,-7.927c1.538,-6.636 7.451,-10.848 14.359,-10.231c6.266,0.558 11.385,5.97 11.641,12.485c0.139,3.539 0.387,7.108 -0.286,10.621c-0.605,3.15 -2.342,5.649 -4.856,7.614c-0.44,0.343 -1.048,0.586 -0.853,1.303c0.202,0.747 0.86,0.381 1.294,0.408c7.648,0.483 14.362,7.201 14.608,14.868c0.163,5.068 0.064,10.144 0.05,15.218c-0.004,1.409 -0.571,1.852 -2.233,1.853c-6.969,0.007 -13.937,0.004 -20.906,0.004" style="fill:#008caa;fill-rule:nonzero;"/><path d="M26.966,112.961c-0.546,-0.162 0.727,-1.467 -0.654,-1.205c-2.176,0.412 -4.311,0.473 -6.465,-0.039c-0.263,-0.062 -0.567,-0.146 -0.59,0.309c-0.081,1.548 -0.004,3.052 1.296,4.159c1.227,1.045 2.634,1.281 4.1,0.642c1.586,-0.691 2.345,-1.975 2.313,-3.866m-13.63,-22.694c5.541,-1.31 6.917,-1.266 12.308,0.479c2.007,0.649 4.08,0.771 6.156,0.961c1.167,0.107 1.318,-0.322 1.172,-1.373c-0.645,-4.655 -4.811,-8.371 -9.61,-8.479c-4.943,-0.112 -9.169,3.383 -10.026,8.412m-0.179,6.916l0.039,0c0,0.756 -0.04,1.516 0.006,2.27c0.306,4.94 4.04,8.901 8.832,9.391c4.989,0.509 9.508,-2.644 10.752,-7.523c0.427,-1.67 0.26,-3.386 0.35,-5.083c0.053,-1.025 -0.185,-1.378 -1.296,-1.358c-2.807,0.049 -5.565,-0.412 -8.189,-1.432c-2.516,-0.976 -5.058,-1.064 -7.662,-0.527c-2.832,0.584 -2.832,0.581 -2.832,3.409l0,0.853m9.943,42.686c3.179,0 6.359,-0.068 9.534,0.034c1.242,0.04 1.459,-0.363 1.437,-1.5c-0.074,-3.746 -0.031,-7.495 -0.026,-11.242c0.001,-1.568 0.555,-2.351 1.63,-2.334c1.068,0.017 1.571,0.768 1.574,2.386c0.005,3.843 0.022,7.685 -0.015,11.527c-0.008,0.818 0.126,1.217 1.072,1.15c1.227,-0.086 2.467,-0.064 3.698,-0.005c0.754,0.037 0.965,-0.215 0.957,-0.957c-0.044,-4.221 0.059,-8.446 -0.076,-12.664c-0.201,-6.235 -5.587,-11.578 -11.808,-11.911c-0.591,-0.032 -0.893,0.034 -1.078,0.731c-0.637,2.396 -2.133,4.095 -4.511,4.903c-0.688,0.234 -0.793,0.634 -0.782,1.263c0.032,1.85 -0.006,3.701 0.017,5.549c0.014,1.123 -0.453,1.917 -1.596,1.924c-1.14,0.007 -1.633,-0.764 -1.619,-1.897c0.024,-1.85 -0.022,-3.701 0.021,-5.55c0.017,-0.708 -0.153,-1.067 -0.885,-1.331c-2.179,-0.787 -3.687,-2.323 -4.291,-4.577c-0.259,-0.971 -0.708,-1.099 -1.591,-0.982c-6.81,0.9 -11.42,6.085 -11.466,12.991c-0.026,3.746 0.027,7.494 -0.027,11.241c-0.013,0.952 0.169,1.368 1.217,1.273c1.083,-0.097 2.186,-0.092 3.27,-0.001c1.005,0.083 1.269,-0.247 1.253,-1.248c-0.06,-3.89 -0.007,-7.78 -0.034,-11.669c-0.009,-1.134 0.282,-2 1.542,-2.132c1.044,-0.109 1.663,0.706 1.666,2.134c0.009,3.937 0.032,7.875 -0.018,11.811c-0.011,0.892 0.249,1.116 1.117,1.103c3.272,-0.05 6.546,-0.02 9.818,-0.02m-0.026,3.209c-6.876,0 -13.753,0.003 -20.628,-0.002c-2.015,0 -2.434,-0.403 -2.425,-2.404c0.021,-4.979 -0.125,-9.968 0.144,-14.934c0.421,-7.745 6.982,-14.105 14.698,-14.598c0.381,-0.024 0.924,0.232 1.099,-0.349c0.157,-0.523 -0.15,-0.862 -0.572,-1.178c-3.95,-2.963 -5.663,-6.979 -5.499,-11.852c0.106,-3.116 -0.347,-6.257 0.487,-9.34c1.734,-6.41 7.843,-10.509 14.49,-9.693c6.3,0.772 11.33,6.297 11.436,12.716c0.052,3.17 0.278,6.358 -0.17,9.517c-0.496,3.494 -2.243,6.287 -5.013,8.452c-0.445,0.347 -1.032,0.632 -0.825,1.333c0.217,0.738 0.881,0.36 1.328,0.393c7.888,0.571 14.325,7.334 14.575,15.543c0.147,4.786 0.049,9.579 0.029,14.37c-0.005,1.534 -0.573,2.021 -2.241,2.023c-6.971,0.008 -13.942,0.003 -20.913,0.003" style="fill:#008caa;fill-rule:nonzero;"/><path d="M59.726,33.009c-0.264,2.008 -0.139,3.795 1.707,4.943c1.366,0.85 2.79,0.839 4.129,-0.04c1.786,-1.173 1.97,-2.957 1.715,-4.945c-2.523,0.7 -5.033,0.66 -7.551,0.042m12.464,-19.984c1.393,0.051 1.393,0.051 1.098,-1.621c-0.784,-4.433 -4.722,-7.949 -9.132,-8.15c-4.885,-0.225 -8.975,2.68 -10.284,7.219c-0.302,1.047 -0.16,1.239 0.905,0.923c3.515,-1.041 7,-0.88 10.428,0.441c1.961,0.756 4.004,1.099 6.985,1.188m-18.717,5.355l0.014,0c0,0.711 -0.032,1.423 0.005,2.132c0.277,5.292 4.067,9.23 9.328,9.712c4.741,0.434 9.296,-2.992 10.389,-7.861c0.366,-1.631 0.142,-3.306 0.23,-4.959c0.045,-0.841 -0.157,-1.127 -1.074,-1.131c-3.048,-0.01 -6.025,-0.511 -8.884,-1.623c-2.185,-0.85 -4.45,-0.872 -6.715,-0.442c-3.298,0.627 -3.293,0.655 -3.293,4.03l0,0.142Zm-9.889,34.858c0,1.474 -0.04,2.518 0.01,3.559c0.069,1.451 -0.644,3.387 0.312,4.211c0.828,0.713 2.715,0.139 4.124,0.255c1.092,0.09 1.35,-0.297 1.333,-1.349c-0.064,-3.888 -0.019,-7.777 -0.029,-11.664c-0.003,-0.867 0.158,-1.626 1.078,-1.947c1.158,-0.407 2.133,0.424 2.14,1.867c0.019,3.983 0.027,7.966 -0.01,11.949c-0.009,0.818 0.127,1.153 1.065,1.146c6.542,-0.044 13.087,-0.036 19.629,-0.006c0.844,0.004 1.196,-0.194 1.144,-1.102c-0.071,-1.276 -0.017,-2.559 -0.017,-3.839c0.001,-2.751 0.005,-5.5 0.001,-8.25c-0.001,-0.772 0.223,-1.432 0.982,-1.729c0.546,-0.214 1.111,-0.179 1.612,0.221c0.59,0.471 0.645,1.105 0.644,1.791c-0.01,3.936 0.022,7.871 -0.026,11.806c-0.01,0.879 0.228,1.159 1.111,1.105c1.228,-0.077 2.467,-0.065 3.696,-0.004c0.781,0.039 0.944,-0.268 0.938,-0.983c-0.035,-4.172 0.06,-8.347 -0.054,-12.517c-0.171,-6.223 -5.57,-11.672 -11.715,-12.028c-0.735,-0.042 -1.065,0.125 -1.264,0.868c-0.621,2.307 -2.123,3.902 -4.34,4.72c-0.758,0.278 -0.887,0.642 -0.874,1.332c0.036,1.849 0.009,3.699 0.013,5.547c0.002,1.128 -0.503,1.855 -1.672,1.841c-1.118,-0.013 -1.548,-0.753 -1.544,-1.807c0.006,-1.801 -0.029,-3.604 0.014,-5.404c0.019,-0.794 -0.13,-1.239 -0.999,-1.556c-2.118,-0.774 -3.601,-2.324 -4.181,-4.507c-0.27,-1.014 -0.732,-1.096 -1.573,-1.015c-5.272,0.504 -9.82,4.401 -11.126,9.564c-0.698,2.758 -0.302,5.569 -0.422,7.925m19.845,11.234c-6.875,0 -13.749,0.002 -20.624,-0.001c-2.042,-0.001 -2.47,-0.437 -2.471,-2.512c-0.002,-4.315 -0.011,-8.629 0.001,-12.943c0.026,-9.044 6.04,-15.616 15.053,-16.478c0.342,-0.033 0.811,0.13 0.91,-0.427c0.084,-0.462 -0.084,-0.788 -0.483,-1.08c-4.134,-3.036 -5.787,-7.202 -5.555,-12.235c0.118,-2.553 -0.256,-5.13 0.193,-7.663c1.189,-6.709 6.903,-11.425 13.384,-11.118c6.948,0.328 12.232,5.301 12.784,12.27c0.257,3.251 0.28,6.538 -0.105,9.795c-0.427,3.619 -2.226,6.483 -5.059,8.724c-0.443,0.349 -1.062,0.617 -0.838,1.315c0.218,0.678 0.885,0.399 1.356,0.431c7.341,0.492 13.864,6.738 14.433,14.092c0.412,5.342 0.108,10.71 0.13,16.066c0.006,1.426 -0.933,1.779 -2.202,1.774c-6.968,-0.022 -13.937,-0.01 -20.907,-0.01" style="fill:#008caa;fill-rule:nonzero;"/><path d="M60.769,82.954c0,-3.319 0.013,-6.637 -0.007,-9.955c-0.007,-1.137 0.292,-2.032 1.6,-2.035c1.3,-0.004 1.619,0.876 1.616,2.02c-0.014,6.637 0.014,13.273 -0.03,19.91c-0.006,0.934 0.285,1.422 1.096,1.882c5.389,3.054 10.744,6.166 16.106,9.266c0.45,0.26 0.922,0.507 1.304,0.85c0.586,0.53 0.748,1.205 0.308,1.919c-0.448,0.724 -1.08,1.055 -1.924,0.723c-0.349,-0.136 -0.677,-0.334 -1.004,-0.523c-5.488,-3.168 -10.983,-6.323 -16.447,-9.529c-0.753,-0.442 -1.284,-0.425 -2.025,0.009c-5.342,3.134 -10.714,6.219 -16.077,9.317c-0.369,0.213 -0.733,0.434 -1.114,0.623c-0.908,0.451 -1.679,0.257 -2.188,-0.617c-0.524,-0.901 -0.229,-1.672 0.618,-2.178c1.991,-1.184 4.011,-2.321 6.016,-3.482c3.683,-2.13 7.352,-4.288 11.059,-6.376c0.798,-0.449 1.139,-0.917 1.119,-1.87c-0.068,-3.316 -0.026,-6.636 -0.026,-9.954" style="fill:#008caa;fill-rule:nonzero;"/><path d="M103.672,139.869c-3.224,0 -6.448,-0.035 -9.671,0.024c-0.902,0.015 -1.1,-0.26 -1.09,-1.115c0.046,-3.745 0.02,-7.491 0.019,-11.236c-0.001,-0.379 0.03,-0.763 -0.02,-1.136c-0.132,-0.971 -0.675,-1.59 -1.686,-1.561c-0.943,0.027 -1.486,0.64 -1.543,1.55c-0.071,1.133 -0.033,2.274 -0.034,3.412c-0.003,3.034 -0.021,6.068 0.012,9.102c0.008,0.716 -0.163,1.012 -0.94,0.977c-1.325,-0.061 -2.654,-0.038 -3.981,-0.008c-0.594,0.015 -0.851,-0.154 -0.833,-0.795c0.129,-4.641 -0.326,-9.301 0.238,-13.922c0.708,-5.8 5.824,-10.431 11.653,-10.815c0.731,-0.049 0.975,0.193 1.157,0.857c0.63,2.299 2.111,3.901 4.327,4.728c0.745,0.278 0.887,0.658 0.873,1.35c-0.035,1.801 -0.007,3.602 -0.013,5.404c-0.004,1.139 0.407,2.046 1.654,2.035c1.238,-0.011 1.642,-0.925 1.638,-2.059c-0.005,-1.849 0.023,-3.699 -0.014,-5.546c-0.012,-0.614 0.171,-0.923 0.771,-1.137c2.296,-0.818 3.826,-2.416 4.434,-4.783c0.208,-0.81 0.602,-0.898 1.309,-0.831c6.503,0.611 11.514,5.794 11.714,12.323c0.125,4.073 0.017,8.154 0.055,12.23c0.007,0.736 -0.184,1.005 -0.949,0.968c-1.23,-0.06 -2.468,-0.074 -3.696,0.004c-0.874,0.055 -1.126,-0.206 -1.114,-1.093c0.051,-3.697 0.021,-7.396 0.021,-11.093c0,-0.332 0.009,-0.665 -0.004,-0.996c-0.04,-1.092 -0.516,-1.876 -1.688,-1.856c-1.092,0.019 -1.556,0.781 -1.589,1.808c-0.026,0.805 -0.008,1.612 -0.008,2.418c0,3.081 -0.082,6.166 0.037,9.243c0.053,1.372 -0.423,1.61 -1.653,1.577c-3.127,-0.083 -6.257,-0.028 -9.386,-0.028" style="fill:#fcfcfc;fill-rule:nonzero;"/><path d="M113.753,97.853c0.366,6.046 -3.678,9.985 -8.147,10.868c-5.688,1.126 -11.425,-3.24 -11.751,-9.052c-0.096,-1.7 -0.001,-3.409 -0.048,-5.113c-0.015,-0.577 0.193,-0.846 0.717,-1.023c3.177,-1.078 6.365,-1.393 9.577,-0.169c2.682,1.022 5.465,1.55 8.321,1.512c1.156,-0.015 1.484,0.35 1.343,1.416c-0.068,0.511 -0.012,1.039 -0.012,1.561" style="fill:#fdfdfd;fill-rule:nonzero;"/><path d="M94.059,90.222c0.485,-4.238 3.982,-7.596 8.475,-8.291c4.173,-0.645 8.591,1.854 10.363,5.862c1.603,3.626 1.338,4.01 -2.529,3.739c-1.567,-0.109 -3.109,-0.392 -4.559,-0.966c-3.564,-1.412 -7.159,-1.566 -10.828,-0.51c-0.26,0.076 -0.535,0.098 -0.922,0.166" style="fill:#fcfcfc;fill-rule:nonzero;"/><path d="M107.656,112.924c-0.024,2.675 -1.751,4.375 -4.249,4.204c-2.275,-0.156 -3.836,-2.382 -3.525,-4.934c0.075,-0.612 0.388,-0.546 0.767,-0.456c2.06,0.488 4.119,0.511 6.178,0.011c1.329,-0.321 0.683,0.708 0.829,1.175" style="fill:#fcfcfc;fill-rule:nonzero;"/><path d="M23.101,139.869c-3.273,0 -6.547,-0.03 -9.819,0.02c-0.868,0.014 -1.129,-0.211 -1.117,-1.103c0.05,-3.936 0.028,-7.874 0.018,-11.811c-0.004,-1.428 -0.622,-2.243 -1.666,-2.134c-1.26,0.132 -1.55,0.998 -1.543,2.132c0.028,3.889 -0.025,7.779 0.036,11.669c0.016,1.001 -0.25,1.331 -1.254,1.248c-1.084,-0.091 -2.187,-0.097 -3.27,0.001c-1.048,0.095 -1.231,-0.321 -1.217,-1.273c0.054,-3.747 0.002,-7.494 0.027,-11.241c0.047,-6.906 4.656,-12.091 11.466,-12.991c0.883,-0.117 1.331,0.01 1.592,0.982c0.602,2.253 2.111,3.79 4.291,4.577c0.731,0.264 0.901,0.623 0.884,1.331c-0.044,1.849 0.003,3.7 -0.02,5.549c-0.014,1.134 0.477,1.905 1.618,1.898c1.143,-0.008 1.61,-0.801 1.596,-1.923c-0.023,-1.85 0.015,-3.7 -0.016,-5.55c-0.012,-0.629 0.093,-1.03 0.781,-1.263c2.378,-0.808 3.874,-2.508 4.51,-4.903c0.185,-0.697 0.488,-0.763 1.079,-0.731c6.221,0.333 11.607,5.676 11.807,11.911c0.135,4.218 0.033,8.443 0.076,12.663c0.009,0.743 -0.202,0.994 -0.956,0.958c-1.231,-0.059 -2.47,-0.081 -3.698,0.006c-0.946,0.066 -1.08,-0.333 -1.072,-1.151c0.037,-3.842 0.019,-7.684 0.015,-11.527c-0.002,-1.618 -0.506,-2.369 -1.574,-2.386c-1.075,-0.017 -1.629,0.766 -1.631,2.334c-0.004,3.748 -0.047,7.496 0.027,11.241c0.023,1.138 -0.195,1.541 -1.438,1.501c-3.174,-0.102 -6.354,-0.034 -9.532,-0.034" style="fill:#fcfcfc;fill-rule:nonzero;"/><path d="M13.157,97.183l0,-0.852c0,-2.829 0.001,-2.825 2.832,-3.409c2.604,-0.538 5.146,-0.451 7.661,0.527c2.625,1.019 5.383,1.48 8.191,1.431c1.11,-0.02 1.349,0.333 1.295,1.358c-0.089,1.698 0.077,3.413 -0.35,5.083c-1.244,4.878 -5.763,8.032 -10.752,7.522c-4.792,-0.489 -8.527,-4.45 -8.832,-9.39c-0.047,-0.754 -0.007,-1.514 -0.007,-2.27l-0.038,0" style="fill:#fcfcfc;fill-rule:nonzero;"/><path d="M13.336,90.267c0.858,-5.029 5.083,-8.524 10.026,-8.412c4.799,0.108 8.966,3.824 9.61,8.479c0.146,1.051 -0.005,1.48 -1.172,1.374c-2.075,-0.191 -4.149,-0.313 -6.156,-0.962c-5.39,-1.746 -6.768,-1.789 -12.308,-0.479" style="fill:#fcfcfc;fill-rule:nonzero;"/><path d="M26.966,112.961c0.032,1.891 -0.727,3.175 -2.313,3.866c-1.466,0.639 -2.873,0.403 -4.1,-0.642c-1.3,-1.107 -1.377,-2.611 -1.296,-4.159c0.023,-0.455 0.327,-0.371 0.59,-0.309c2.154,0.512 4.289,0.451 6.465,0.039c1.381,-0.262 0.108,1.043 0.654,1.205" style="fill:#fcfcfc;fill-rule:nonzero;"/><path d="M43.584,53.237c0.12,-2.354 -0.275,-5.166 0.421,-7.923c1.307,-5.164 5.855,-9.061 11.127,-9.565c0.841,-0.08 1.302,0 1.572,1.016c0.581,2.181 2.063,3.732 4.182,4.506c0.869,0.317 1.018,0.762 1,1.555c-0.044,1.801 -0.009,3.603 -0.015,5.405c-0.003,1.054 0.427,1.793 1.544,1.806c1.169,0.015 1.674,-0.712 1.671,-1.839c-0.002,-1.85 0.024,-3.7 -0.012,-5.548c-0.013,-0.69 0.116,-1.053 0.874,-1.333c2.217,-0.816 3.719,-2.412 4.34,-4.719c0.2,-0.742 0.529,-0.91 1.264,-0.867c6.145,0.355 11.543,5.804 11.714,12.027c0.115,4.169 0.021,8.344 0.055,12.517c0.006,0.714 -0.157,1.022 -0.937,0.983c-1.231,-0.061 -2.469,-0.073 -3.697,0.003c-0.882,0.055 -1.121,-0.225 -1.11,-1.104c0.047,-3.935 0.015,-7.871 0.025,-11.806c0.001,-0.686 -0.053,-1.321 -0.644,-1.792c-0.501,-0.399 -1.065,-0.434 -1.611,-0.22c-0.76,0.297 -0.985,0.957 -0.984,1.728c0.005,2.75 0,5.501 0,8.251c-0.001,1.28 -0.054,2.563 0.018,3.839c0.05,0.907 -0.301,1.105 -1.144,1.101c-6.544,-0.03 -13.087,-0.037 -19.63,0.007c-0.938,0.006 -1.073,-0.327 -1.066,-1.146c0.039,-3.983 0.03,-7.966 0.011,-11.949c-0.007,-1.444 -0.981,-2.273 -2.141,-1.868c-0.92,0.323 -1.08,1.08 -1.078,1.947c0.012,3.888 -0.033,7.777 0.029,11.664c0.017,1.053 -0.24,1.44 -1.332,1.35c-1.409,-0.117 -3.297,0.459 -4.125,-0.255c-0.955,-0.824 -0.241,-2.76 -0.312,-4.211c-0.049,-1.04 -0.009,-2.086 -0.009,-3.56" style="fill:#fcfcfc;fill-rule:nonzero;"/><path d="M53.473,18.38l0,-0.142c0,-3.375 -0.005,-3.403 3.293,-4.029c2.265,-0.431 4.529,-0.41 6.715,0.441c2.86,1.112 5.836,1.613 8.884,1.623c0.916,0.003 1.119,0.289 1.074,1.132c-0.089,1.652 0.136,3.327 -0.23,4.958c-1.093,4.869 -5.647,8.295 -10.389,7.861c-5.261,-0.482 -9.05,-4.421 -9.328,-9.712c-0.037,-0.709 -0.005,-1.421 -0.005,-2.132l-0.014,0" style="fill:#fcfcfc;fill-rule:nonzero;"/><path d="M72.19,13.024c-2.98,-0.088 -5.024,-0.431 -6.985,-1.186c-3.428,-1.322 -6.913,-1.484 -10.427,-0.441c-1.065,0.315 -1.207,0.122 -0.906,-0.924c1.309,-4.539 5.399,-7.443 10.284,-7.22c4.41,0.202 8.349,3.718 9.132,8.15c0.296,1.673 0.296,1.673 -1.098,1.621" style="fill:#fcfcfc;fill-rule:nonzero;"/><path d="M59.726,33.009c2.518,0.618 5.028,0.658 7.551,-0.042c0.255,1.988 0.071,3.772 -1.715,4.945c-1.339,0.879 -2.763,0.89 -4.129,0.04c-1.846,-1.148 -1.971,-2.935 -1.707,-4.943" style="fill:#fcfcfc;fill-rule:nonzero;"/></g></svg>