<?xml version="1.0" encoding="UTF-8" standalone="no"?><!DOCTYPE svg PUBLIC "-//W3C//DTD SVG 1.1//EN" "http://www.w3.org/Graphics/SVG/1.1/DTD/svg11.dtd"><svg width="100%" height="100%" viewBox="0 0 131 131" version="1.1" xmlns="http://www.w3.org/2000/svg" xmlns:xlink="http://www.w3.org/1999/xlink" xml:space="preserve" xmlns:serif="http://www.serif.com/" style="fill-rule:evenodd;clip-rule:evenodd;stroke-linejoin:round;stroke-miterlimit:2;"><path d="M100.153,106.669c4.742,0.013 8.654,-3.856 8.728,-8.633c0.073,-4.688 -3.876,-8.69 -8.622,-8.737c-4.799,-0.048 -8.798,3.91 -8.784,8.694c0.015,4.749 3.928,8.662 8.678,8.676m-69.599,-0.001c4.751,-0.029 8.673,-3.975 8.649,-8.703c-0.024,-4.756 -3.936,-8.66 -8.685,-8.669c-4.791,-0.009 -8.831,4.053 -8.721,8.768c0.112,4.801 4.011,8.632 8.757,8.604m34.76,-76.216c4.759,0.023 8.677,-3.856 8.71,-8.621c0.033,-4.786 -3.981,-8.824 -8.724,-8.775c-4.748,0.049 -8.65,3.987 -8.646,8.726c0.004,4.765 3.882,8.647 8.66,8.67m8.709,67.5c-0.017,-4.753 -3.931,-8.653 -8.683,-8.654c-4.751,-0.001 -8.665,3.898 -8.685,8.651c-0.019,4.805 3.944,8.754 8.747,8.718c4.756,-0.036 8.639,-3.961 8.621,-8.715m1.051,-8.618c2.521,3.007 3.582,6.295 3.244,9.951c-0.343,3.697 -2.129,6.684 -5.064,9.096c4.229,1.934 7.289,4.934 9.527,8.93c2.213,-4.109 5.343,-6.997 9.464,-8.945c-2.898,-2.416 -4.679,-5.356 -5.033,-9.061c-0.355,-3.715 0.764,-6.993 3.194,-9.971l-15.332,0Zm-17.645,19.033c-2.94,-2.376 -4.7,-5.355 -5.063,-9.027c-0.365,-3.688 0.724,-7.006 3.195,-9.973l-15.299,0c2.47,2.948 3.532,6.207 3.208,9.883c-0.329,3.73 -2.136,6.688 -5.038,9.127c4.187,1.962 7.277,4.885 9.485,8.945c2.215,-4.056 5.332,-7.022 9.512,-8.955m42.74,17.929c4.713,0 9.426,-0.026 14.139,0.023c0.912,0.009 1.222,-0.242 1.052,-1.124c-0.072,-0.373 -0.054,-0.763 -0.119,-1.138c-1.248,-7.141 -6.398,-12.034 -13.602,-12.932c-8.193,-1.02 -16.366,5.891 -16.671,14.061c-0.033,0.862 0.131,1.145 1.061,1.134c4.712,-0.052 9.426,-0.024 14.14,-0.024m-69.679,0c4.756,0 9.512,-0.02 14.267,0.02c0.794,0.007 1.089,-0.195 0.944,-0.983c-0.061,-0.332 -0.031,-0.679 -0.084,-1.013c-1.173,-7.279 -6.346,-12.281 -13.635,-13.193c-8.148,-1.02 -16.26,5.773 -16.671,13.921c-0.048,0.94 0.099,1.293 1.167,1.278c4.67,-0.068 9.342,-0.03 14.012,-0.03m34.864,0l12.62,0c2.959,0 2.959,0 2.315,-2.998c-1.589,-7.393 -8.224,-12.622 -15.538,-12.246c-7.753,0.4 -13.761,6.153 -14.599,13.914c-0.111,1.024 0.031,1.378 1.18,1.36c4.673,-0.072 9.348,-0.03 14.022,-0.03m2.171,-77.29c0,2.934 0.03,5.868 -0.02,8.802c-0.014,0.807 0.24,0.99 1.008,0.982c3.657,-0.038 7.314,-0.045 10.969,0.003c0.885,0.011 1.148,-0.228 1.136,-1.128c-0.049,-3.826 -0.009,-7.653 -0.028,-11.48c-0.005,-1.058 0.242,-1.961 1.281,-2.415c1.018,-0.446 1.879,-0.076 2.682,0.61c1.747,1.488 3.497,2.973 5.287,4.41c3.281,2.631 7.25,2.232 9.735,-1.089c3.435,-4.59 6.756,-9.265 10.145,-13.89c0.378,-0.515 0.413,-0.808 -0.163,-1.207c-1.255,-0.872 -2.493,-1.777 -3.664,-2.756c-0.691,-0.576 -1.019,-0.514 -1.539,0.23c-2.772,3.968 -5.602,7.896 -8.418,11.834c-1.398,1.955 -2.464,2.109 -4.316,0.631c-2.026,-1.616 -4.057,-3.227 -6.067,-4.863c-2.068,-1.683 -4.37,-2.784 -7.077,-2.789c-8.758,-0.019 -17.515,-0.019 -26.272,-0.001c-2.708,0.005 -5.01,1.107 -7.078,2.789c-1.978,1.609 -3.976,3.192 -5.969,4.782c-2.002,1.598 -2.973,1.454 -4.481,-0.656c-2.814,-3.939 -5.64,-7.871 -8.427,-11.829c-0.447,-0.635 -0.733,-0.723 -1.359,-0.202c-1.14,0.95 -2.343,1.832 -3.57,2.668c-0.733,0.499 -0.753,0.86 -0.219,1.579c3.287,4.437 6.504,8.925 9.768,13.377c2.671,3.643 6.669,4.119 10.167,1.236c1.672,-1.379 3.342,-2.761 4.987,-4.172c0.828,-0.71 1.702,-1.165 2.781,-0.694c1.103,0.48 1.292,1.449 1.286,2.541c-0.022,3.827 0.013,7.654 -0.027,11.48c-0.008,0.79 0.22,1.009 1.002,1.001c3.613,-0.039 7.228,-0.051 10.841,0.005c0.973,0.016 1.286,-0.207 1.274,-1.239c-0.058,-5.017 -0.026,-10.035 -0.026,-15.052c0,-3.392 -0.001,-3.362 3.395,-3.319c0.8,0.011 1.004,0.248 0.992,1.019c-0.041,2.934 -0.016,5.868 -0.016,8.802m-2.163,14.133c-14.117,0 -28.235,-0.005 -42.353,0.009c-1.094,0.001 -2.589,-0.487 -3.172,0.216c-0.552,0.666 -0.117,2.112 -0.212,3.207c-0.075,0.863 0.32,0.968 1.038,0.947c1.572,-0.044 3.147,-0.023 4.72,-0.011c2.251,0.015 2.95,0.727 2.952,3c0.004,4.465 0.023,8.931 -0.018,13.396c-0.007,0.827 0.205,1.056 1.048,1.055c23.983,-0.024 47.965,-0.024 71.949,0c0.843,0.001 1.057,-0.228 1.048,-1.056c-0.045,-3.656 -0.055,-7.314 0.004,-10.971c0.015,-0.936 -0.294,-1.106 -1.145,-1.087c-1.045,0.022 -2.478,0.499 -3.04,-0.202c-0.526,-0.657 -0.097,-2.035 -0.202,-3.085c-0.097,-0.959 0.311,-1.086 1.147,-1.072c2.933,0.05 5.868,0.039 8.802,0.009c1.009,-0.011 2.344,0.452 2.933,-0.209c0.495,-0.557 0.089,-1.869 0.193,-2.834c0.113,-1.043 -0.217,-1.342 -1.298,-1.339c-14.798,0.039 -29.596,0.027 -44.394,0.027m19.595,-12.727c0,2.47 0.084,4.684 -0.033,6.889c-0.066,1.245 0.296,1.512 1.514,1.503c8.675,-0.06 17.349,-0.036 26.025,-0.028c2.19,0.002 2.924,0.733 2.932,2.884c0.011,2.466 0.012,4.933 -0.001,7.399c-0.01,2.024 -0.744,2.777 -2.753,2.806c-1.701,0.025 -3.403,0.033 -5.102,-0.008c-0.663,-0.015 -0.885,0.18 -0.863,0.858c0.048,1.444 0.084,2.895 -0.009,4.335c-0.065,1.029 0.182,1.355 1.287,1.343c5.697,-0.065 11.396,-0.065 17.093,0c1.1,0.012 1.287,-0.311 1.285,-1.334c-0.03,-23.772 -0.034,-47.545 0.006,-71.316c0.003,-1.194 -0.334,-1.422 -1.457,-1.421c-39.716,0.029 -79.432,0.029 -119.148,-0.001c-1.084,0 -1.397,0.202 -1.394,1.358c0.046,16.16 0.031,32.32 0.031,48.48c0,7.697 -0.001,15.395 0.002,23.092c0,0.56 -0.209,1.144 0.814,1.136c5.995,-0.05 11.991,-0.036 17.987,-0.008c0.707,0.003 0.844,-0.244 0.828,-0.882c-0.041,-1.573 -0.05,-3.148 0.003,-4.72c0.025,-0.734 -0.207,-0.943 -0.929,-0.923c-1.743,0.05 -3.488,0.051 -5.23,0.006c-1.782,-0.045 -2.541,-0.832 -2.558,-2.61c-0.024,-2.424 -0.008,-4.848 -0.006,-7.272c0.002,-2.591 0.624,-3.204 3.255,-3.205c7.952,-0.002 15.904,0.008 23.856,-0.011c1.083,-0.003 2.529,0.482 3.149,-0.233c0.534,-0.616 0.169,-2.022 0.177,-3.078c0.013,-1.621 0.004,-3.241 0.004,-5.056c-0.81,0.674 -1.389,1.17 -1.982,1.649c-5.424,4.389 -12.266,3.535 -16.406,-2.09c-3.777,-5.133 -7.507,-10.299 -11.247,-15.456c-1.235,-1.703 -1.077,-2.718 0.596,-3.982c2.475,-1.869 4.958,-3.728 7.442,-5.585c1.947,-1.455 2.9,-1.311 4.311,0.659c2.772,3.867 5.573,7.713 8.277,11.626c0.648,0.939 1.037,0.891 1.806,0.213c1.307,-1.151 2.695,-2.209 4.065,-3.285c2.667,-2.093 5.622,-3.457 9.072,-3.572c1.239,-0.041 2.477,-0.112 3.807,-0.175c-5.554,-7.432 -2.893,-14.607 0.974,-18.105c4.881,-4.413 11.779,-4.782 16.594,-1.036c2.575,2.002 4.368,4.522 5.046,7.718c0.891,4.193 -0.174,7.964 -3.001,11.5c0.955,0 1.656,0.007 2.357,-0.001c4.112,-0.044 7.746,1.242 10.915,3.869c1.276,1.056 2.619,2.035 3.865,3.126c0.728,0.639 1.113,0.665 1.716,-0.203c2.789,-4.009 5.646,-7.972 8.499,-11.936c1.169,-1.623 2.26,-1.777 3.872,-0.579c2.591,1.925 5.174,3.862 7.75,5.809c1.568,1.186 1.763,2.241 0.645,3.787c-3.834,5.3 -7.639,10.623 -11.556,15.862c-3.364,4.501 -8.546,5.797 -13.596,3.536c-1.671,-0.748 -2.984,-2.043 -4.586,-3.332m45.698,-48.881l0,79.866c-0.824,1.161 -1.981,1.359 -3.33,1.348c-6.208,-0.048 -12.416,-0.021 -18.624,-0.021c-2.01,0 -1.937,0.003 -2.036,1.985c-0.067,1.335 0.285,2.153 1.455,3.009c4.343,3.178 6.084,8.874 4.556,13.983c-0.802,2.684 -2.384,4.827 -4.538,6.641c1.03,0.601 2.024,1.09 2.921,1.719c5.992,4.207 8.803,10.024 8.699,17.311c-0.038,2.689 -0.594,3.272 -3.303,3.272c-34.102,0 -68.204,0 -102.306,-0.001c-0.425,0 -0.858,0.032 -1.273,-0.037c-1.072,-0.18 -1.819,-0.777 -1.896,-1.908c-0.413,-6.043 1.148,-11.425 5.385,-15.904c1.762,-1.862 3.863,-3.251 6.206,-4.426c-0.257,-0.235 -0.411,-0.379 -0.567,-0.519c-6.159,-5.509 -6.141,-14.629 0.238,-19.834c1.462,-1.193 1.952,-2.333 1.746,-4.017c-0.005,-0.042 -0.007,-0.087 0,-0.128c0.192,-0.996 -0.275,-1.173 -1.192,-1.167c-6.506,0.039 -13.011,0.021 -19.518,0.02c-2.68,0 -3.255,-0.586 -3.255,-3.312c0,-25.302 0.008,-50.604 -0.023,-75.906c-0.001,-1.388 0.19,-2.586 1.299,-3.505l127.825,0c0.608,0.412 1.118,0.922 1.531,1.531" style="fill:#008caa;fill-rule:nonzero;"/><path d="M102.392,13.044c-2.214,0 -2.214,0 -2.214,-2.267c0,-2.085 0,-2.085 2.145,-2.085c2.223,0 2.223,0 2.223,2.27c0,2.082 0,2.082 -2.154,2.082" style="fill:#008caa;fill-rule:nonzero;"/><path d="M113.257,10.906c0,2.137 0,2.137 -2.095,2.137c-2.262,0 -2.262,0 -2.262,-2.205c0,-2.145 0,-2.145 2.205,-2.145c2.152,0 2.152,0 2.152,2.213" style="fill:#008caa;fill-rule:nonzero;"/><path d="M119.899,8.692c2.064,0 2.064,0 2.064,2.039c0,2.313 0,2.313 -2.294,2.313c-2.056,0 -2.056,0 -2.056,-2.031c0,-2.321 0,-2.321 2.286,-2.321" style="fill:#008caa;fill-rule:nonzero;"/><path d="M93.652,69.678c0,2.192 0,2.192 -2.171,2.192c-2.178,0 -2.178,0 -2.178,-2.184c0,-2.182 0,-2.182 2.17,-2.182c2.179,0 2.179,0 2.179,2.174" style="fill:#008caa;fill-rule:nonzero;"/></svg>