<?xml version="1.0" encoding="UTF-8" standalone="no"?><!DOCTYPE svg PUBLIC "-//W3C//DTD SVG 1.1//EN" "http://www.w3.org/Graphics/SVG/1.1/DTD/svg11.dtd"><svg width="100%" height="100%" viewBox="0 0 53 53" version="1.1" xmlns="http://www.w3.org/2000/svg" xmlns:xlink="http://www.w3.org/1999/xlink" xml:space="preserve" xmlns:serif="http://www.serif.com/" style="fill-rule:evenodd;clip-rule:evenodd;stroke-linejoin:round;stroke-miterlimit:2;"><g id="Layer-1" serif:id="Layer 1"><path d="M47.267,23.52c-0.016,1.911 -0.217,3.684 -0.621,5.433c-0.104,0.447 0.53,1.127 0.986,1.046c0.389,-0.069 0.772,-0.169 1.16,-0.244c1.383,-0.27 2.6,0.286 3.326,1.514c0.807,1.365 0.79,2.693 -0.218,3.757c-0.684,0.722 -1.035,1.395 -0.805,2.434c0.205,0.932 0.107,1.925 -0.091,2.872c-0.075,0.359 0.032,0.575 0.255,0.817c0.534,0.579 1.104,1.136 1.312,1.942c0.601,2.321 -1.478,4.57 -3.822,4.047c-0.901,-0.201 -1.593,-0.179 -2.318,0.482c-0.747,0.68 -1.693,1.104 -2.66,1.43c-0.271,0.091 -0.423,0.237 -0.497,0.514c-0.098,0.364 -0.224,0.721 -0.355,1.074c-0.492,1.321 -1.57,2.021 -3.093,2.018c-1.436,-0.004 -2.585,-0.703 -2.962,-2.027c-0.291,-1.024 -0.783,-1.666 -1.822,-1.999c-0.916,-0.294 -1.692,-0.905 -2.426,-1.532c-0.187,-0.16 -0.347,-0.202 -0.599,-0.154c-0.687,0.132 -1.367,0.375 -2.085,0.259c-0.219,-0.035 -0.474,-0.035 -0.646,-0.151c-0.556,-0.374 -1.125,-0.267 -1.721,-0.162c-9.344,1.644 -18.916,-2.644 -23.959,-10.722c-2.617,-4.192 -3.794,-8.766 -3.582,-13.692c0.452,-10.539 8.056,-19.585 18.376,-21.892c13.147,-2.938 26.018,5.511 28.47,18.691c0.268,1.44 0.389,2.896 0.397,4.245" style="fill:#0097ae;fill-rule:nonzero;"/><path d="M41.594,24.666c-0.787,-0.417 -1.628,-0.506 -2.493,-0.331c-1.097,0.221 -1.936,0.843 -2.219,1.919c-0.282,1.075 -0.826,1.713 -1.896,2.06c-0.894,0.291 -1.66,0.893 -2.376,1.516c-0.189,0.164 -0.35,0.206 -0.6,0.147c-0.517,-0.122 -1.044,-0.242 -1.571,-0.269c-1.474,-0.076 -2.426,0.712 -3.031,1.977c-0.558,1.163 -0.491,2.33 0.395,3.264c0.74,0.781 1.07,1.525 0.846,2.623c-0.193,0.951 -0.081,1.956 0.129,2.922c0.059,0.267 0.001,0.427 -0.273,0.507c-0.743,0.219 -1.502,0.362 -2.263,0.495c-0.221,0.039 -0.316,-0.022 -0.303,-0.262c0.017,-0.309 0.008,-0.62 0.003,-0.929c-0.023,-1.349 -0.985,-2.338 -2.288,-2.357c-1.303,-0.019 -2.321,0.996 -2.357,2.354c-0.007,0.275 -0.023,0.552 0.004,0.825c0.032,0.326 -0.068,0.413 -0.397,0.358c-4.159,-0.7 -7.683,-2.582 -10.566,-5.66c-0.305,-0.326 -0.575,-0.684 -0.875,-1.016c-0.153,-0.168 -0.161,-0.265 0.06,-0.377c0.305,-0.155 0.601,-0.332 0.891,-0.515c1.096,-0.697 1.435,-2.062 0.792,-3.158c-0.632,-1.076 -1.964,-1.451 -3.096,-0.863c-0.38,0.198 -0.748,0.42 -1.152,0.649c-0.569,-1.264 -0.93,-2.58 -1.148,-3.931c-0.514,-3.187 -0.235,-6.304 0.902,-9.335c0.231,-0.615 0.237,-0.618 0.792,-0.29c0.641,0.38 1.281,0.732 2.078,0.582c0.934,-0.176 1.688,-0.862 1.883,-1.756c0.209,-0.963 -0.144,-1.896 -0.95,-2.44c-0.383,-0.258 -0.793,-0.478 -1.221,-0.734c1.257,-1.653 2.748,-3.033 4.474,-4.157c2.187,-1.423 4.569,-2.348 7.158,-2.732c0.293,-0.043 0.387,-0.003 0.378,0.311c-0.014,0.462 -0.045,0.927 0.059,1.388c0.258,1.143 1.304,1.923 2.466,1.824c1.156,-0.099 2.063,-1.053 2.109,-2.224c0.009,-0.223 0.005,-0.447 0.005,-0.671c0.001,-0.697 0.002,-0.708 0.675,-0.588c4.572,0.819 8.307,3.048 11.21,6.673c0.041,0.051 0.071,0.112 0.118,0.189c-0.367,0.216 -0.725,0.417 -1.074,0.635c-1.115,0.696 -1.469,2.031 -0.837,3.14c0.628,1.103 1.976,1.492 3.129,0.893c0.304,-0.158 0.599,-0.335 0.893,-0.513c0.154,-0.093 0.25,-0.142 0.341,0.09c0.973,2.465 1.427,5.014 1.26,7.665c-0.002,0.029 -0.034,0.056 -0.064,0.102" style="fill:#fefefe;fill-rule:nonzero;"/><path d="M45.72,23.574c-0.025,1.552 -0.166,3.038 -0.466,4.51c-0.069,0.341 -0.16,0.404 -0.453,0.219c-0.172,-0.109 -0.373,-0.172 -0.562,-0.252c-0.989,-0.419 -1.264,-0.918 -1.157,-2.008c0.757,-7.681 -1.957,-13.879 -8.159,-18.432c-7.656,-5.621 -18.643,-4.589 -25.267,2.257c-4.029,4.164 -6.01,9.175 -5.58,14.94c0.587,7.859 4.641,13.468 11.772,16.779c3.468,1.611 7.152,2.018 10.935,1.375c0.341,-0.058 0.466,0.005 0.361,0.371c-0.162,0.57 -0.071,1.141 0.164,1.662c0.164,0.363 0.025,0.389 -0.268,0.432c-4.384,0.645 -8.631,0.155 -12.624,-1.778c-7.087,-3.43 -11.416,-9.049 -12.617,-16.846c-1.719,-11.155 5.403,-21.732 16.375,-24.579c12.124,-3.146 24.61,4.671 27.084,16.946c0.296,1.474 0.438,2.958 0.462,4.404" style="fill:#fefefe;fill-rule:nonzero;"/><path d="M30.492,31.254c0.484,0.095 1.128,0.203 1.763,0.351c0.394,0.092 0.702,0 0.989,-0.269c1.082,-1.017 2.336,-1.745 3.755,-2.178c0.401,-0.122 0.645,-0.354 0.767,-0.75c0.161,-0.525 0.333,-1.046 0.523,-1.561c0.268,-0.73 0.754,-1.035 1.598,-1.034c0.829,0.001 1.33,0.322 1.594,1.048c0.193,0.532 0.372,1.07 0.54,1.611c0.106,0.342 0.314,0.549 0.658,0.655c1.451,0.447 2.74,1.179 3.849,2.22c0.27,0.254 0.565,0.356 0.942,0.262c0.499,-0.124 1.007,-0.217 1.513,-0.313c0.885,-0.168 1.398,0.071 1.847,0.851c0.452,0.784 0.401,1.32 -0.203,2.015c-0.327,0.377 -0.652,0.756 -0.995,1.118c-0.26,0.274 -0.353,0.574 -0.269,0.941c0.34,1.5 0.333,3.001 -0.002,4.5c-0.078,0.349 0.008,0.635 0.251,0.898c0.385,0.417 0.762,0.841 1.127,1.277c0.476,0.569 0.511,1.13 0.137,1.811c-0.419,0.765 -0.906,1.057 -1.656,0.944c-0.577,-0.086 -1.149,-0.21 -1.719,-0.334c-0.386,-0.084 -0.7,-0.003 -0.992,0.271c-1.094,1.03 -2.369,1.757 -3.803,2.198c-0.363,0.112 -0.583,0.322 -0.692,0.686c-0.153,0.509 -0.329,1.012 -0.503,1.514c-0.271,0.777 -0.759,1.116 -1.595,1.12c-0.894,0.005 -1.383,-0.313 -1.661,-1.098c-0.183,-0.517 -0.36,-1.037 -0.521,-1.561c-0.106,-0.345 -0.319,-0.551 -0.661,-0.656c-1.451,-0.445 -2.741,-1.176 -3.847,-2.22c-0.276,-0.261 -0.58,-0.337 -0.946,-0.257c-0.554,0.121 -1.109,0.238 -1.668,0.329c-0.805,0.13 -1.278,-0.133 -1.716,-0.915c-0.407,-0.726 -0.361,-1.278 0.169,-1.894c0.359,-0.417 0.727,-0.827 1.095,-1.236c0.235,-0.262 0.316,-0.542 0.233,-0.899c-0.339,-1.481 -0.347,-2.968 -0.004,-4.449c0.093,-0.399 -0.014,-0.697 -0.278,-0.984c-0.396,-0.43 -0.792,-0.862 -1.157,-1.319c-0.405,-0.506 -0.424,-1.065 -0.126,-1.641c0.319,-0.615 0.736,-1.084 1.664,-1.052" style="fill:#fefefe;fill-rule:nonzero;"/><path d="M29.18,25.927c-0.465,0 -0.93,0.018 -1.394,-0.003c-0.862,-0.04 -1.608,0.07 -2.377,0.632c-1.375,1.004 -3.351,0.601 -4.458,-0.718c-1.092,-1.301 -1.086,-3.197 0.048,-4.494c0.224,-0.257 0.306,-0.498 0.302,-0.824c-0.014,-1.17 -0.025,-2.341 0.002,-3.511c0.027,-1.206 0.9,-2.153 2.048,-2.278c1.186,-0.13 2.232,0.58 2.523,1.732c0.058,0.229 0.065,0.476 0.066,0.715c0.007,1.136 0.002,2.272 0.004,3.408c0.001,0.613 0.078,0.693 0.678,0.694c1.704,0.002 3.408,-0.011 5.112,0.005c1.153,0.01 2.044,0.745 2.299,1.85c0.226,0.975 -0.272,2.04 -1.181,2.525c-0.356,0.19 -0.738,0.27 -1.142,0.268c-0.843,-0.005 -1.687,-0.001 -2.53,-0.001" style="fill:#0097ae;fill-rule:nonzero;"/><path d="M39.885,46.582c-4.49,0.004 -8.142,-3.633 -8.146,-8.114c-0.004,-4.478 3.645,-8.128 8.131,-8.131c4.486,-0.004 8.143,3.639 8.146,8.116c0.004,4.481 -3.641,8.125 -8.131,8.129" style="fill:#0097ae;fill-rule:nonzero;"/><path d="M23.653,21.675c1.063,0.011 1.917,0.891 1.903,1.961c-0.013,1.073 -0.881,1.916 -1.957,1.903c-1.069,-0.013 -1.92,-0.886 -1.907,-1.956c0.012,-1.059 0.896,-1.919 1.961,-1.908" style="fill:#fefefe;fill-rule:nonzero;"/><path d="M39.849,45.033c-3.608,-0.009 -6.556,-2.958 -6.561,-6.562c-0.005,-3.624 2.962,-6.588 6.592,-6.585c3.634,0.003 6.592,2.963 6.587,6.591c-0.006,3.623 -2.976,6.565 -6.618,6.556" style="fill:#fefefe;fill-rule:nonzero;"/><path d="M35.492,38.44c0.014,-2.428 1.985,-4.384 4.407,-4.373c2.415,0.011 4.394,2.008 4.377,4.415c-0.018,2.443 -2.009,4.388 -4.47,4.366c-2.389,-0.021 -4.328,-2.002 -4.314,-4.408" style="fill:#0097ae;fill-rule:nonzero;"/></g></svg>