<?xml version="1.0" encoding="UTF-8" standalone="no"?><!DOCTYPE svg PUBLIC "-//W3C//DTD SVG 1.1//EN" "http://www.w3.org/Graphics/SVG/1.1/DTD/svg11.dtd"><svg width="100%" height="100%" viewBox="0 0 136 136" version="1.1" xmlns="http://www.w3.org/2000/svg" xmlns:xlink="http://www.w3.org/1999/xlink" xml:space="preserve" xmlns:serif="http://www.serif.com/" style="fill-rule:evenodd;clip-rule:evenodd;stroke-linejoin:round;stroke-miterlimit:2;"><rect x="41.422" y="11.926" width="84.406" height="48.426" style="fill:#fcfcfc;"/><path d="M88.525,41.276c-1.933,0 -3.866,-0.015 -5.798,0.005c-1.361,0.015 -2.186,0.748 -2.222,1.91c-0.037,1.203 0.831,2.042 2.23,2.05c3.822,0.021 7.644,0.021 11.465,-0.001c1.375,-0.008 2.286,-0.889 2.239,-2.058c-0.046,-1.129 -0.913,-1.886 -2.247,-1.901c-1.889,-0.019 -3.778,-0.005 -5.667,-0.005m11.095,-17.455l7.391,0c3.256,-0.001 6.512,0.001 9.767,-0.002c0.924,-0.001 1.593,-0.397 1.965,-1.272c0.335,-0.79 0.122,-1.471 -0.407,-2.071c-0.55,-0.624 -1.302,-0.633 -2.066,-0.633c-9.283,0.008 -18.566,0.005 -27.85,0.005c-1.935,0 -3.872,-0.023 -5.807,0.011c-1.308,0.023 -2.144,0.869 -2.109,2.032c0.035,1.195 0.897,1.923 2.354,1.926c5.587,0.009 11.174,0.003 16.762,0.004m0.16,6.728c-5.454,0 -10.907,-0.004 -16.361,0.006c-0.523,0.001 -1.068,0.006 -1.566,0.144c-0.919,0.256 -1.357,0.965 -1.336,1.891c0.021,0.926 0.493,1.604 1.422,1.826c0.463,0.111 0.96,0.104 1.441,0.104c10.863,0.006 21.727,0.005 32.59,0.002c0.439,0 0.885,0.007 1.314,-0.069c1.002,-0.177 1.558,-0.855 1.596,-1.825c0.04,-1.036 -0.509,-1.767 -1.561,-1.984c-0.467,-0.097 -0.96,-0.091 -1.442,-0.092c-5.366,-0.005 -10.731,-0.003 -16.097,-0.003" style="fill:#fdfdfd;fill-rule:nonzero;"/><path d="M20.775,63.399l-0.053,0c0,-0.968 -0.035,-1.939 0.012,-2.905c0.034,-0.7 -0.235,-0.834 -0.851,-0.665c-1.409,0.384 -2.477,1.923 -2.427,3.539c0.048,1.526 1.202,2.99 2.586,3.29c0.521,0.113 0.82,0.082 0.753,-0.621c-0.083,-0.872 -0.02,-1.758 -0.02,-2.638m35.72,-0.073l-0.066,0c0,0.879 0.077,1.766 -0.021,2.633c-0.098,0.872 0.306,0.857 0.905,0.694c1.383,-0.377 2.455,-1.844 2.47,-3.379c0.015,-1.545 -1.027,-3.023 -2.387,-3.441c-0.701,-0.216 -0.953,-0.018 -0.913,0.725c0.05,0.92 0.012,1.845 0.012,2.768m31.773,18.605c-0.064,-1.213 -0.552,-2.242 -1.463,-3.107c-0.712,-0.677 -1.345,-0.706 -2.049,-0.015c-0.69,0.678 -1.421,1.314 -2.119,1.984c-0.725,0.695 -1.694,1.266 -1.906,2.304c-0.406,1.991 -1.117,3.881 -1.745,5.798c-0.173,0.527 -0.189,0.759 0.439,0.899c1.025,0.227 2.031,0.551 3.033,0.87c0.359,0.114 0.606,0.095 0.712,-0.293c0.659,-2.405 2.393,-4.051 4.033,-5.768c0.698,-0.731 0.983,-1.646 1.065,-2.672m-43.573,30.804c0.207,0 0.333,0.024 0.443,-0.007c0.12,-0.034 0.254,-0.094 0.333,-0.186c2.791,-3.227 5.628,-6.418 7.501,-10.32c0.43,-0.898 0.402,-1.537 -0.33,-2.324c-1.756,-1.893 -1.834,-3.816 -0.431,-6.008c0.332,-0.519 0.664,-1.038 1.023,-1.538c0.402,-0.561 0.307,-0.949 -0.319,-1.25c-1.283,-0.616 -2.555,-1.253 -3.985,-1.957c1.468,8.473 -1.156,16.04 -4.235,23.59m-11.73,-10.826c1.347,5.206 3.432,9.911 5.564,14.669c1.712,-2.555 5.525,-12.698 5.512,-14.618c-3.612,0.819 -7.224,0.822 -11.076,-0.051m-3.779,-19.734c0.411,-1.419 -0.26,-2.23 -1.381,-3.026c-2.368,-1.681 -4.211,-3.898 -5.308,-6.595c-0.548,-1.348 -1.182,-2.045 -2.711,-1.932c-0.859,0.064 -1.711,-0.366 -2.46,-0.835c-0.454,-0.284 -0.669,-0.253 -0.847,0.278c-0.626,1.871 -1.362,3.709 -1.911,5.602c-1.474,5.075 1.385,10.217 6.421,11.734c0.806,0.243 1.5,0.239 2.259,-0.175c1.384,-0.756 2.784,-1.5 4.238,-2.103c1.388,-0.575 2.204,-1.356 1.7,-2.948m18.833,-0.02c-0.484,1.59 0.283,2.379 1.7,2.949c1.498,0.602 2.92,1.404 4.349,2.169c0.67,0.358 1.293,0.381 2.012,0.178c5.311,-1.503 8.294,-7.195 6.45,-12.405c-0.584,-1.651 -1.402,-3.217 -1.788,-4.942c-0.111,-0.498 -0.324,-0.619 -0.814,-0.306c-1.058,0.676 -2.257,0.985 -3.501,0.976c-0.745,-0.006 -1.043,0.31 -1.308,0.971c-1.203,3.002 -3.09,5.527 -5.713,7.412c-1.101,0.791 -1.829,1.576 -1.387,2.998m-4.111,-0.1c-3.343,0.97 -6.644,1.088 -9.935,0.15c-0.831,-0.237 -0.771,0.197 -0.751,0.712c0.063,1.64 -0.229,3.219 -0.617,4.815c-0.709,2.919 -0.988,5.889 -0.657,8.904c0.076,0.69 0.333,0.945 0.973,1.134c3.724,1.098 7.436,1.067 11.175,0.081c0.847,-0.223 1.101,-0.62 1.223,-1.51c0.675,-4.875 -1.428,-9.44 -1.411,-14.286m26.018,-49.489c0,-2.557 -0.006,-5.114 0.004,-7.671c0.003,-0.644 -0.078,-1.094 -0.915,-1.087c-3.651,0.03 -7.304,0.023 -10.956,0.004c-0.679,-0.004 -0.936,0.247 -0.934,0.931c0.017,4.541 -0.007,9.082 0.019,13.623c0.008,1.215 1.806,2.908 2.984,2.909c2.816,0.002 5.633,-0.043 8.448,0.024c1.031,0.024 1.4,-0.261 1.371,-1.327c-0.066,-2.467 -0.021,-4.937 -0.021,-7.406m15.718,-24.594l34.861,0c3.169,0 6.338,0.004 9.507,-0.005c0.424,-0.001 1.029,0.166 1.181,-0.334c0.311,-1.017 0.33,-2.136 0.032,-3.122c-0.253,-0.837 -1.224,-0.479 -1.884,-0.48c-29.051,-0.014 -58.102,-0.012 -87.153,-0.012c-0.308,0 -0.617,0.014 -0.924,-0.002c-0.761,-0.04 -1.167,0.268 -1.125,1.075c0.021,0.395 0.05,0.8 -0.006,1.189c-0.188,1.321 0.308,1.726 1.671,1.721c14.613,-0.049 29.227,-0.03 43.84,-0.03m-25.975,48.44c0.827,-6.536 -3.499,-14.708 -10.077,-18.549c-7.736,-4.516 -15.551,-4.334 -22.969,0.682c-6.205,4.195 -9.145,10.284 -9.2,18.001c1.082,-0.502 2.005,-0.814 2.969,-0.817c0.856,-0.003 1.436,-0.318 2.006,-0.963c0.972,-1.101 2.274,-1.658 3.754,-1.623c5.598,0.133 10.335,-1.79 14.46,-5.604c3.343,-3.09 8.379,-2.448 11.178,1.156c0.863,1.112 1.704,2.242 2.608,3.319c0.795,0.949 1.62,1.869 1.893,3.119c0.08,0.368 0.239,0.535 0.596,0.56c0.965,0.068 1.862,0.429 2.782,0.719m-7.221,4.844l0.08,0c0,-1.323 -0.008,-2.646 0.003,-3.968c0.006,-0.761 -0.071,-1.45 -0.615,-2.084c-1.088,-1.268 -2.107,-2.596 -3.132,-3.917c-1.599,-2.059 -3.927,-2.343 -5.831,-0.559c-4.588,4.299 -10.004,6.397 -16.268,6.379c-1.453,-0.004 -1.974,0.527 -1.99,1.996c-0.024,1.984 -0.056,3.969 0.005,5.952c0.232,7.571 6.135,13.62 13.431,13.803c7.538,0.188 13.665,-5.342 14.299,-12.977c0.127,-1.532 0.018,-3.083 0.018,-4.625m-7.343,70.229c8.846,0 17.692,0.009 26.538,-0.004c3.067,-0.004 5.042,-1.722 5.56,-4.724c0.561,-3.253 1.153,-6.501 1.728,-9.752c1.25,-7.065 2.491,-14.131 3.757,-21.193c0.123,-0.688 0.006,-1.017 -0.744,-1.19c-1.494,-0.346 -2.978,-0.76 -4.429,-1.254c-0.754,-0.256 -0.95,-0.044 -1.174,0.651c-1.093,3.388 -2.253,6.754 -3.384,10.129c-1.941,5.79 -3.879,11.58 -5.814,17.372c-0.29,0.866 -0.658,1.644 -1.682,1.827c-1.714,0.305 -2.728,-1.128 -2.098,-3.023c1.746,-5.255 3.499,-10.508 5.288,-15.748c0.255,-0.747 0.182,-1.281 -0.306,-1.91c-2.793,-3.599 -6.285,-6.238 -10.523,-7.899c-0.703,-0.276 -1.299,-0.492 -1.73,0.411c-0.385,0.807 -1.345,1.417 -0.221,2.473c1.606,1.508 1.891,3.378 1.019,5.442c-0.635,1.507 -1.395,2.937 -2.302,4.29c-4,5.969 -8.994,11.059 -14.14,16.012c-1.442,1.388 -2.223,1.363 -3.718,-0.035c-3.187,-2.982 -6.217,-6.118 -9.061,-9.429c-2.525,-2.941 -4.907,-5.987 -6.724,-9.443c-1.359,-2.584 -1.619,-4.984 0.687,-7.217c0.953,-0.923 -0.306,-1.438 -0.562,-2.127c-0.194,-0.522 -0.524,-0.806 -1.224,-0.531c-8.753,3.443 -14.042,9.777 -15.51,19.073c-0.786,4.974 -0.235,10.037 -0.277,15.059c-0.014,1.629 1.212,2.683 2.957,2.729c1.715,0.045 3.434,-0.027 5.148,0.029c0.776,0.025 0.968,-0.251 0.957,-0.983c-0.038,-2.425 -0.034,-4.851 -0.006,-7.276c0.017,-1.552 0.787,-2.388 2.062,-2.346c1.224,0.04 1.875,0.823 1.889,2.366c0.022,2.293 0.069,4.589 -0.021,6.879c-0.043,1.119 0.311,1.373 1.39,1.367c8.89,-0.044 17.78,-0.025 26.67,-0.025m-12.644,-18.061c0.096,-0.026 0.191,-0.051 0.287,-0.077c-0.023,-0.035 -0.045,-0.07 -0.067,-0.106c-0.075,0.077 -0.15,0.153 -0.225,0.229c0.455,-0.478 -0.015,-0.862 -0.165,-1.241c-2.916,-7.363 -5.466,-14.788 -4.006,-23.076c-0.846,0.416 -1.513,0.739 -2.175,1.069c-2.586,1.287 -2.586,1.287 -1.042,3.742c1.203,1.912 1.379,3.92 -0.068,5.364c-1.471,1.468 -1.033,2.654 -0.177,4.038c0.254,0.411 0.485,0.837 0.737,1.249c1.965,3.203 4.53,5.935 6.901,8.809m-27.113,22.081c-0.076,-0.094 -0.136,-0.24 -0.233,-0.273c-3.699,-1.246 -5.189,-3.908 -5.062,-7.707c0.149,-4.493 -0.336,-9.011 0.228,-13.481c1.42,-11.25 7.691,-18.782 18.027,-23.199c-0.018,-0.446 -0.532,-0.409 -0.83,-0.569c-6.323,-3.382 -9.023,-10.841 -6.183,-17.418c1.513,-3.502 2.177,-7.119 2.195,-10.916c0.017,-3.739 -0.276,-7.489 0.518,-11.204c3.671,-17.18 23.361,-25.468 38.096,-16.016c0.284,0.182 0.571,0.359 1.065,0.67l0,-1.446c0,-3.176 -0.023,-6.351 0.008,-9.526c0.026,-2.575 1.846,-4.521 4.34,-4.554c4.004,-0.053 8.011,-0.05 12.016,-0.001c2.461,0.031 4.24,1.852 4.342,4.406c0.073,1.85 0.021,3.704 0.022,5.556c0.001,3.528 0.025,7.057 -0.008,10.585c-0.029,3.055 -1.833,4.82 -4.876,4.834c-2.464,0.012 -4.927,0.002 -7.554,0.002c0.654,1.808 1.338,3.507 1.733,5.297c0.767,3.484 0.608,7.016 0.554,10.538c-0.063,4.147 0.436,8.162 2.271,11.948c0.516,1.065 0.781,2.237 0.909,3.431c0.639,5.98 -2.142,11.184 -7.476,13.959c-0.185,0.096 -0.37,0.191 -0.789,0.407c4.686,1.773 8.544,4.406 11.812,8.182c0.774,-2.283 1.507,-4.41 2.211,-6.547c0.294,-0.894 0.652,-1.746 1.419,-2.326c0.429,-0.325 0.558,-0.776 0.7,-1.23c0.691,-2.221 1.604,-4.372 2.048,-6.672c0.204,-1.058 0.71,-2.011 1.469,-2.762c1.409,-1.393 2.872,-2.732 4.333,-4.07c0.286,-0.262 0.651,-0.574 1.002,-0.605c1.696,-0.147 2.072,-1.415 2.527,-2.716c0.756,-2.155 1.557,-4.298 2.419,-6.412c0.358,-0.878 0.146,-1.025 -0.72,-1.019c-4.797,0.032 -9.595,0.016 -14.393,0.016c-0.572,0 -10.237,0.005 -10.809,0.001c-1.76,-0.014 -1.748,-1.079 -1.74,-2.346c0.009,-1.269 0.065,-1.627 1.816,-1.628c5.81,-0.004 20.657,-0.022 26.467,0.019c0.924,0.007 1.382,-0.232 1.711,-1.151c1.241,-3.475 2.579,-6.915 3.894,-10.363c0.578,-1.518 1.49,-2.07 2.653,-1.652c1.234,0.444 1.624,1.534 1.055,3.053c-1.14,3.045 -2.272,6.093 -3.463,9.118c-0.3,0.761 -0.234,0.989 0.63,0.987c9.684,-0.02 19.367,-0.02 29.051,-0.004c1.034,0.002 1.376,-0.449 1.375,-1.447c-0.017,-15.436 -0.018,-30.872 0.007,-46.308c0.001,-0.824 -0.232,-1.02 -1.037,-1.019c-26.234,0.021 -52.468,0.022 -78.701,-0.001c-0.859,-0.001 -1.127,0.212 -1.114,1.093c0.049,3.396 0.172,14.494 0.168,17.89c-0.003,1.844 -1.697,3.447 -3.007,3.461c-1.35,0.015 -1.104,-9.347 -1.106,-11.244c-0.004,-3.352 -0.02,-6.704 0.013,-10.055c0.008,-0.782 -0.098,-1.128 -1.033,-1.182c-2.258,-0.129 -3.961,-1.971 -4.116,-4.238c-0.033,-0.484 0.02,-0.974 -0.032,-1.454c-0.331,-3.046 0.845,-5.158 3.781,-6.197l91.392,0c1.968,0.541 3.272,1.794 3.963,3.705l0,5.029c-0.371,0.086 -0.377,0.448 -0.517,0.701c-0.749,1.356 -1.865,2.365 -3.396,2.417c-1.293,0.043 -1.328,0.605 -1.327,1.601c0.024,15.119 0.017,30.239 0.016,45.359c0,4.091 -1.769,5.854 -5.874,5.855c-9.943,0.002 -19.886,0.013 -29.828,-0.022c-0.896,-0.003 -1.316,0.253 -1.613,1.108c-0.821,2.364 -1.648,4.735 -2.66,7.02c-0.761,1.716 -0.862,2.944 0.509,4.602c2.612,3.163 2.115,7.256 -0.952,10.373c-2.007,2.039 -3.489,4.175 -2.934,7.218c0.069,0.376 -0.022,0.792 -0.091,1.181c-1.835,10.445 -3.667,20.89 -5.524,31.33c-0.685,3.844 -2.845,6.432 -6.61,7.642c-0.422,0.135 -0.983,-0.159 -1.272,0.386l-67.885,0Z" style="fill:#008caa;fill-rule:nonzero;"/><path d="M99.78,30.549c5.366,0 10.732,-0.002 16.097,0.003c0.482,0.001 0.975,-0.005 1.442,0.092c1.052,0.217 1.601,0.948 1.561,1.984c-0.038,0.969 -0.595,1.648 -1.596,1.825c-0.429,0.076 -0.876,0.069 -1.314,0.069c-10.863,0.003 -21.727,0.004 -32.59,-0.001c-0.481,-0.001 -0.978,0.006 -1.441,-0.105c-0.929,-0.222 -1.401,-0.9 -1.422,-1.826c-0.021,-0.926 0.417,-1.635 1.336,-1.891c0.498,-0.138 1.043,-0.144 1.566,-0.145c5.454,-0.009 10.908,-0.005 16.361,-0.005" style="fill:#008caa;fill-rule:nonzero;"/><path d="M99.62,23.821c-5.588,0 -11.175,0.005 -16.762,-0.004c-1.457,-0.003 -2.319,-0.731 -2.354,-1.926c-0.035,-1.164 0.801,-2.009 2.109,-2.032c1.935,-0.035 3.872,-0.011 5.807,-0.011c9.284,0 18.567,0.003 27.85,-0.005c0.764,0 1.516,0.009 2.066,0.632c0.529,0.6 0.742,1.282 0.407,2.073c-0.372,0.874 -1.041,1.27 -1.965,1.271c-3.255,0.003 -6.511,0.002 -9.767,0.002l-7.391,0" style="fill:#008caa;fill-rule:nonzero;"/><path d="M88.525,41.276c1.889,0.001 3.778,-0.015 5.667,0.006c1.334,0.014 2.201,0.771 2.247,1.901c0.047,1.168 -0.864,2.049 -2.239,2.057c-3.821,0.022 -7.643,0.022 -11.465,0.001c-1.399,-0.008 -2.267,-0.847 -2.23,-2.05c0.036,-1.162 0.861,-1.895 2.222,-1.91c1.932,-0.02 3.865,-0.005 5.798,-0.005" style="fill:#008caa;fill-rule:nonzero;"/><path d="M45.105,131.485c-8.89,0 -17.78,-0.019 -26.67,0.026c-1.079,0.005 -1.434,-0.249 -1.39,-1.368c0.09,-2.29 0.042,-4.586 0.021,-6.879c-0.014,-1.543 -0.665,-2.326 -1.889,-2.366c-1.276,-0.042 -2.044,0.794 -2.062,2.346c-0.028,2.425 -0.032,4.851 0.006,7.276c0.012,0.732 -0.18,1.008 -0.956,0.983c-1.715,-0.056 -3.434,0.016 -5.149,-0.029c-1.745,-0.046 -2.971,-1.1 -2.957,-2.729c0.043,-5.022 -0.509,-10.085 0.277,-15.059c1.468,-9.296 6.757,-15.63 15.51,-19.073c0.7,-0.275 1.03,0.009 1.224,0.531c0.255,0.689 1.515,1.204 0.562,2.127c-2.306,2.233 -2.046,4.634 -0.687,7.217c1.818,3.456 4.199,6.502 6.724,9.443c2.844,3.312 5.874,6.447 9.061,9.429c1.495,1.398 2.275,1.423 3.718,0.035c5.146,-4.953 10.14,-10.043 14.14,-16.012c0.907,-1.353 1.667,-2.783 2.302,-4.29c0.871,-2.064 0.587,-3.934 -1.019,-5.442c-1.124,-1.056 -0.164,-1.666 0.221,-2.473c0.431,-0.903 1.028,-0.687 1.73,-0.411c4.238,1.661 7.731,4.3 10.524,7.899c0.487,0.629 0.56,1.163 0.305,1.91c-1.789,5.24 -3.542,10.493 -5.288,15.748c-0.63,1.895 0.384,3.328 2.098,3.023c1.024,-0.183 1.392,-0.961 1.682,-1.827c1.935,-5.792 3.873,-11.582 5.813,-17.372c1.132,-3.375 2.292,-6.741 3.385,-10.129c0.224,-0.695 0.421,-0.907 1.174,-0.651c1.451,0.494 2.935,0.908 4.429,1.254c0.749,0.173 0.867,0.502 0.744,1.19c-1.266,7.062 -2.507,14.128 -3.757,21.193c-0.576,3.251 -1.167,6.499 -1.728,9.752c-0.518,3.002 -2.493,4.72 -5.56,4.724c-8.846,0.012 -17.692,0.004 -26.538,0.004" style="fill:#fcfcfc;fill-rule:nonzero;"/><path d="M52.448,61.256c0,1.542 0.109,3.093 -0.018,4.624c-0.634,7.636 -6.761,13.167 -14.299,12.978c-7.296,-0.183 -13.199,-6.231 -13.431,-13.803c-0.061,-1.983 -0.029,-3.969 -0.005,-5.952c0.016,-1.469 0.537,-2 1.99,-1.996c6.264,0.018 11.68,-2.08 16.268,-6.379c1.904,-1.784 4.232,-1.5 5.831,0.559c1.025,1.321 2.044,2.649 3.132,3.917c0.544,0.634 0.621,1.323 0.615,2.083c-0.011,1.323 -0.003,2.646 -0.003,3.969l-0.08,0Z" style="fill:#fcfcfc;fill-rule:nonzero;"/><path d="M59.669,56.412c-0.92,-0.29 -1.817,-0.651 -2.782,-0.719c-0.358,-0.025 -0.516,-0.192 -0.596,-0.56c-0.273,-1.25 -1.098,-2.171 -1.893,-3.119c-0.904,-1.077 -1.745,-2.208 -2.608,-3.319c-2.799,-3.604 -7.835,-4.246 -11.178,-1.156c-4.125,3.814 -8.862,5.736 -14.46,5.604c-1.48,-0.035 -2.782,0.522 -3.754,1.623c-0.57,0.645 -1.15,0.96 -2.006,0.963c-0.964,0.003 -1.888,0.314 -2.969,0.817c0.055,-7.717 2.995,-13.806 9.2,-18.001c7.418,-5.016 15.233,-5.199 22.969,-0.682c6.578,3.84 10.904,12.014 10.077,18.549" style="fill:#fcfcfc;fill-rule:nonzero;"/><path d="M85.644,7.972c-14.614,0 -29.227,-0.019 -43.841,0.031c-1.362,0.004 -1.858,-0.401 -1.669,-1.722c0.055,-0.389 0.026,-0.793 0.005,-1.19c-0.042,-0.807 0.364,-1.114 1.125,-1.074c0.307,0.016 0.616,0.002 0.924,0.002c29.051,0 58.102,-0.001 87.153,0.012c0.66,0.001 1.631,-0.357 1.884,0.48c0.298,0.985 0.279,2.105 -0.032,3.122c-0.152,0.5 -0.758,0.333 -1.181,0.334c-3.169,0.009 -6.338,0.005 -9.507,0.005l-34.861,0" style="fill:#fcfcfc;fill-rule:nonzero;"/><path d="M69.926,32.566c0,2.469 -0.045,4.939 0.021,7.406c0.029,1.066 -0.34,1.351 -1.371,1.327c-2.815,-0.067 -5.632,-0.022 -8.448,-0.024c-1.178,-0.001 -2.976,-1.695 -2.984,-2.909c-0.026,-4.541 -0.002,-9.082 -0.019,-13.623c-0.002,-0.684 0.255,-0.935 0.934,-0.931c3.652,0.019 7.305,0.026 10.956,-0.004c0.837,-0.007 0.918,0.443 0.915,1.087c-0.01,2.557 -0.004,5.114 -0.004,7.671" style="fill:#fdfdfd;fill-rule:nonzero;"/><path d="M43.908,82.055c-0.017,4.846 2.086,9.411 1.411,14.285c-0.123,0.891 -0.376,1.288 -1.223,1.511c-3.739,0.986 -7.451,1.017 -11.175,-0.081c-0.64,-0.189 -0.897,-0.444 -0.973,-1.134c-0.331,-3.015 -0.052,-5.986 0.657,-8.904c0.388,-1.596 0.68,-3.175 0.617,-4.815c-0.02,-0.515 -0.081,-0.949 0.751,-0.712c3.291,0.937 6.592,0.82 9.935,-0.15" style="fill:#fcfcfc;fill-rule:nonzero;"/><path d="M32.965,101.909c3.852,0.873 7.464,0.869 11.076,0.051c0.013,1.92 -3.8,12.063 -5.513,14.618c-2.131,-4.758 -4.216,-9.463 -5.563,-14.669" style="fill:#fcfcfc;fill-rule:nonzero;"/><path d="M44.695,112.735c3.079,-7.55 5.702,-15.117 4.235,-23.59c1.43,0.704 2.702,1.341 3.985,1.957c0.626,0.301 0.721,0.689 0.319,1.25c-0.358,0.5 -0.691,1.019 -1.022,1.538c-1.404,2.192 -1.326,4.115 0.431,6.008c0.731,0.787 0.759,1.426 0.329,2.324c-1.873,3.902 -4.71,7.093 -7.501,10.32c-0.079,0.092 -0.213,0.152 -0.334,0.186c-0.109,0.031 -0.234,0.007 -0.442,0.007" style="fill:#fcfcfc;fill-rule:nonzero;"/><path d="M32.456,113.438c-2.366,-2.888 -4.931,-5.621 -6.896,-8.823c-0.252,-0.412 -0.483,-0.838 -0.737,-1.249c-0.856,-1.384 -1.294,-2.57 0.177,-4.038c1.447,-1.444 1.271,-3.452 0.068,-5.364c-1.544,-2.454 -1.544,-2.455 1.042,-3.742c0.662,-0.33 1.329,-0.654 2.175,-1.069c-1.46,8.288 1.09,15.713 4.006,23.076c0.15,0.379 0.62,0.763 0.165,1.241l0,-0.032Z" style="fill:#fcfcfc;fill-rule:nonzero;"/><path d="M88.269,81.931c-0.083,1.026 -0.368,1.941 -1.066,2.672c-1.64,1.717 -3.374,3.363 -4.033,5.768c-0.106,0.388 -0.353,0.407 -0.712,0.293c-1.002,-0.319 -2.008,-0.643 -3.033,-0.87c-0.628,-0.139 -0.612,-0.372 -0.439,-0.899c0.628,-1.917 1.339,-3.807 1.746,-5.798c0.211,-1.038 1.18,-1.609 1.905,-2.304c0.698,-0.67 1.429,-1.306 2.119,-1.984c0.704,-0.691 1.337,-0.662 2.049,0.015c0.91,0.865 1.398,1.894 1.464,3.107" style="fill:#fcfcfc;fill-rule:nonzero;"/><path d="M56.495,63.326c0,-0.923 0.038,-1.848 -0.012,-2.768c-0.04,-0.743 0.212,-0.941 0.913,-0.725c1.36,0.418 2.403,1.896 2.387,3.441c-0.015,1.535 -1.087,3.002 -2.47,3.379c-0.599,0.163 -1.003,0.178 -0.905,-0.694c0.098,-0.867 0.021,-1.754 0.021,-2.633l0.066,0" style="fill:#fcfcfc;fill-rule:nonzero;"/><path d="M20.775,63.399c0,0.88 -0.063,1.766 0.02,2.638c0.067,0.703 -0.232,0.734 -0.753,0.621c-1.384,-0.3 -2.538,-1.764 -2.586,-3.29c-0.05,-1.616 1.018,-3.155 2.427,-3.539c0.616,-0.169 0.885,-0.035 0.851,0.665c-0.047,0.966 -0.012,1.937 -0.012,2.905l0.053,0" style="fill:#fcfcfc;fill-rule:nonzero;"/><path d="M32.457,113.47c0.074,-0.076 0.149,-0.152 0.223,-0.229c0.023,0.035 0.045,0.071 0.068,0.106c-0.096,0.026 -0.192,0.052 -0.289,0.084c-0.003,0.007 -0.002,0.039 -0.002,0.039" style="fill:#fcfcfc;fill-rule:nonzero;"/></svg>