<?xml version="1.0" encoding="UTF-8" standalone="no"?><!DOCTYPE svg PUBLIC "-//W3C//DTD SVG 1.1//EN" "http://www.w3.org/Graphics/SVG/1.1/DTD/svg11.dtd"><svg width="100%" height="100%" viewBox="0 0 137 159" version="1.1" xmlns="http://www.w3.org/2000/svg" xmlns:xlink="http://www.w3.org/1999/xlink" xml:space="preserve" xmlns:serif="http://www.serif.com/" style="fill-rule:evenodd;clip-rule:evenodd;stroke-linejoin:round;stroke-miterlimit:2;"><g><path d="M65.573,87.477c-2.632,0 -5.264,-0.017 -7.896,0.005c-1.74,0.015 -2.687,0.848 -2.693,2.294c-0.006,1.437 0.974,2.345 2.661,2.352c5.213,0.02 10.425,0.018 15.637,0c1.655,-0.006 2.725,-0.952 2.737,-2.321c0.012,-1.385 -1.029,-2.309 -2.705,-2.325c-2.581,-0.024 -5.161,-0.006 -7.741,-0.005m-31.139,-28.473c1.26,0.062 2.454,-0.283 3.18,-1.286c2.782,-3.842 5.508,-7.726 8.166,-11.655c0.729,-1.077 0.399,-2.232 -0.689,-2.978c-1.083,-0.744 -2.153,-0.566 -3.05,0.4c-0.313,0.338 -0.565,0.736 -0.831,1.117c-2.038,2.918 -4.09,5.828 -6.096,8.768c-0.453,0.664 -0.76,0.784 -1.382,0.183c-1.188,-1.146 -2.439,-2.228 -3.687,-3.31c-1.318,-1.142 -2.576,-1.169 -3.552,-0.121c-0.951,1.02 -0.816,2.407 0.406,3.53c1.559,1.433 3.151,2.828 4.736,4.231c0.797,0.705 1.705,1.152 2.799,1.121m0.083,29.19c-1.616,-1.424 -3.136,-2.804 -4.702,-4.129c-1.106,-0.935 -2.447,-0.879 -3.318,0.05c-0.925,0.987 -0.855,2.382 0.27,3.424c1.626,1.505 3.276,2.987 4.97,4.414c2.067,1.742 4.735,1.418 6.351,-0.77c1.285,-1.738 2.486,-3.54 3.724,-5.313c1.296,-1.858 2.632,-3.69 3.876,-5.583c0.778,-1.184 0.452,-2.539 -0.642,-3.259c-1.04,-0.685 -2.268,-0.455 -3.144,0.612c-0.294,0.357 -0.542,0.751 -0.807,1.131c-2.18,3.121 -4.358,6.242 -6.578,9.423m0.035,38.416c1.375,-0.073 2.608,-0.563 3.435,-1.729c2.56,-3.613 5.079,-7.255 7.602,-10.894c0.201,-0.29 0.388,-0.629 0.447,-0.969c0.209,-1.21 -0.222,-2.142 -1.38,-2.63c-1.254,-0.529 -2.196,-0.015 -2.919,1.016c-2.186,3.121 -4.382,6.235 -6.524,9.386c-0.512,0.752 -0.828,0.975 -1.572,0.227c-1.16,-1.167 -2.429,-2.228 -3.681,-3.301c-1.242,-1.063 -2.649,-1.028 -3.548,0.038c-0.854,1.011 -0.706,2.348 0.453,3.411c1.594,1.463 3.229,2.882 4.843,4.323c0.802,0.715 1.751,1.05 2.844,1.122m39.231,-72.379c-5.418,0 -10.836,-0.016 -16.254,0.009c-1.639,0.008 -2.536,0.869 -2.543,2.279c-0.008,1.394 0.908,2.261 2.504,2.368c0.155,0.01 0.31,0.004 0.465,0.004c10.474,0 20.949,0.003 31.424,-0.004c1.914,-0.001 3.037,-0.88 3.052,-2.33c0.015,-1.462 -1.076,-2.321 -3.013,-2.324c-5.212,-0.009 -10.424,-0.003 -15.635,-0.002m-0.116,-5.738c5.366,0 10.733,0.012 16.099,-0.007c1.6,-0.005 2.597,-0.874 2.66,-2.201c0.064,-1.355 -1.005,-2.359 -2.623,-2.446c-0.411,-0.023 -0.825,-0.006 -1.238,-0.006c-9.907,0 -19.814,-0.002 -29.722,0.006c-0.717,0 -1.46,-0.021 -2.148,0.146c-1.437,0.347 -2.142,1.86 -1.53,3.166c0.504,1.077 1.436,1.356 2.558,1.352c5.314,-0.02 10.629,-0.009 15.944,-0.01m0.16,28.643c-5.417,0 -10.834,-0.016 -16.252,0.009c-1.65,0.008 -2.557,0.846 -2.588,2.238c-0.033,1.401 0.851,2.271 2.458,2.401c0.359,0.029 0.722,0.014 1.083,0.014c10.112,0.001 20.225,0.003 30.337,-0.005c0.616,-0.001 1.25,-0.008 1.843,-0.15c1.249,-0.301 1.947,-1.526 1.621,-2.737c-0.375,-1.393 -1.393,-1.781 -2.713,-1.777c-5.263,0.017 -10.526,0.007 -15.789,0.007" style="fill:#fdfdfd;fill-rule:nonzero;"/><path d="M67.336,136.124c-2.106,-1.695 -4.088,-3.257 -6.03,-4.869c-0.62,-0.515 -0.811,-0.25 -1.094,0.325c-2.158,4.386 -4.341,8.759 -6.521,13.134c-0.267,0.536 -0.462,1.058 0.106,1.522c0.536,0.437 0.964,0.094 1.37,-0.234c4.002,-3.244 7.999,-6.492 12.169,-9.878m64.019,-80.641c-0.025,-2.337 -1.237,-4.117 -3.03,-4.802c-1.881,-0.719 -4.037,-0.271 -5.347,1.303c-2.274,2.73 -4.436,5.554 -6.692,8.299c-0.506,0.615 -0.327,0.88 0.203,1.294c2.028,1.585 4.039,3.193 6.021,4.835c0.6,0.498 0.92,0.484 1.42,-0.161c2.084,-2.685 4.228,-5.324 6.355,-7.975c0.739,-0.922 1.092,-1.97 1.07,-2.793m-72.124,-29.593c7.065,0 14.13,0.004 21.195,-0.002c1.894,-0.002 2.116,-0.241 2.125,-2.164c0.005,-0.931 0.028,-1.862 -0.006,-2.791c-0.115,-3.078 -2.15,-5.104 -5.198,-5.175c-1.082,-0.026 -2.165,-0.004 -3.248,-0.005c-4.59,-0.006 -6.743,-1.933 -7.212,-6.454c-0.286,-2.749 -2.271,-4.589 -5.052,-4.636c-1.804,-0.03 -3.61,-0.031 -5.414,0.002c-2.882,0.053 -4.9,2.041 -5.084,4.96c-0.236,3.745 -2.627,6.044 -6.397,6.123c-1.495,0.032 -2.994,-0.041 -4.486,0.036c-2.541,0.129 -4.523,2.155 -4.65,4.706c-0.054,1.083 -0.025,2.17 -0.023,3.255c0.005,1.961 0.172,2.141 2.099,2.143c7.117,0.006 14.234,0.002 21.351,0.002m11.406,106.898c0.245,-0.286 0.449,-0.512 0.64,-0.75c7.679,-9.594 15.358,-19.189 23.036,-28.785c8.42,-10.522 16.83,-21.054 25.279,-31.553c0.672,-0.835 0.666,-1.243 -0.214,-1.891c-1.827,-1.345 -3.613,-2.759 -5.307,-4.267c-0.977,-0.871 -1.441,-0.718 -2.228,0.273c-9.671,12.166 -19.395,24.291 -29.105,36.428c-6.258,7.822 -12.52,15.641 -18.755,23.482c-0.312,0.393 -1.255,0.775 -0.259,1.543c2.327,1.796 4.597,3.664 6.913,5.52m-7.232,-132.788c0.324,0.58 0.926,0.263 1.386,0.403c3.596,1.097 6.385,4.502 6.713,8.292c0.191,2.208 0.397,2.393 2.675,2.397c1.083,0.001 2.168,-0.021 3.252,0.005c4.383,0.105 7.417,2.25 9.072,6.264c0.369,0.896 0.769,1.141 1.667,1.137c7.175,-0.031 14.35,-0.024 21.525,-0.016c5.661,0.007 8.529,2.91 8.531,8.613c0.001,5.482 0,10.965 0,16.447c0,0.362 0.013,0.725 -0.003,1.086c-0.069,1.536 -1.007,2.548 -2.343,2.54c-1.333,-0.007 -2.29,-1.024 -2.295,-2.57c-0.021,-5.792 -0.009,-11.585 -0.009,-17.378c-0.001,-3.317 -0.765,-4.073 -4.117,-4.076c-0.464,0 -0.933,0.036 -1.393,-0.007c-0.777,-0.073 -1.006,0.293 -0.938,1.006c0.039,0.41 0.007,0.827 0.007,1.241c0,10.705 0,21.411 -0.002,32.117c0,0.517 0.027,1.041 -0.043,1.549c-0.162,1.192 -0.942,1.847 -2.072,1.952c-1.07,0.099 -1.874,-0.426 -2.32,-1.446c-0.282,-0.645 -0.212,-1.32 -0.212,-1.988c-0.003,-10.912 -0.037,-21.825 0.038,-32.738c0.009,-1.487 -0.458,-1.743 -1.794,-1.716c-4.076,0.083 -8.156,0.057 -12.233,0.011c-0.952,-0.012 -1.309,0.166 -1.327,1.239c-0.062,3.848 -2.398,6.17 -6.226,6.178c-14.557,0.029 -29.114,0.031 -43.671,-0.002c-3.768,-0.008 -6.084,-2.327 -6.11,-6.089c-0.009,-1.159 -0.424,-1.339 -1.434,-1.327c-4.077,0.049 -8.157,0.079 -12.233,-0.013c-1.386,-0.031 -1.786,0.306 -1.784,1.757c0.045,35.169 0.035,70.339 0.035,105.508c0,3.155 0.037,6.31 -0.017,9.464c-0.023,1.31 0.432,1.866 1.788,1.862c10.479,-0.029 20.958,-0.024 31.437,0c0.786,0.002 1.223,-0.24 1.522,-0.974c0.368,-0.905 0.92,-1.734 1.283,-2.641c3.914,-9.781 10.471,-17.79 16.991,-25.872c16.766,-20.783 33.388,-41.681 50.075,-62.528c4.881,-6.098 13.866,-4.982 16.542,2.079c1.337,3.531 0.668,6.791 -1.687,9.729c-6.04,7.537 -12.071,15.081 -18.104,22.624c-14,17.505 -28.006,35.006 -41.989,52.526c-1.496,1.875 -3.555,3.094 -5.275,4.741c0.387,0.511 0.886,0.288 1.298,0.289c10.272,0.015 20.544,0.014 30.817,0.01c1.957,-0.001 2.054,-0.109 2.055,-2.149c0.001,-10.809 -0.002,-21.619 0.007,-32.428c0,-0.614 -0.004,-1.258 0.166,-1.837c0.353,-1.203 1.252,-1.763 2.483,-1.602c1.151,0.151 1.839,0.866 1.966,2.047c0.045,0.41 0.029,0.827 0.029,1.24c0.001,10.965 0.004,21.929 -0.001,32.894c-0.002,4.286 -2.201,6.497 -6.465,6.498c-12.234,0.005 -24.468,0.022 -36.702,-0.026c-1.332,-0.006 -2.37,0.326 -3.339,1.218c-0.986,0.907 -2.032,1.764 -3.133,2.524c-3.089,2.131 -7.092,0.883 -8.355,-2.664c-0.346,-0.97 -0.844,-1.065 -1.685,-1.063c-9.86,0.02 -19.719,0.014 -29.578,0.013c-4.645,-0.001 -6.78,-2.158 -6.78,-6.849c0,-38.221 -0.01,-76.441 0.037,-114.662c0.002,-1.463 -0.421,-1.894 -1.779,-1.708c-0.66,0.09 -1.343,-0.006 -2.009,0.058c-1.548,0.149 -2.423,1.027 -2.593,2.573c-0.051,0.461 -0.038,0.93 -0.038,1.395c-0.001,41.013 -0.001,82.026 -0.001,123.04c0,3.255 0.78,4.041 3.991,4.041l100.815,0c3.301,0 4.057,-0.771 4.057,-4.135c0,-18.878 0,-37.756 0,-56.633c0,-0.517 -0.045,-1.042 0.024,-1.55c0.18,-1.315 1.001,-2.06 2.29,-2.075c1.222,-0.014 2.031,0.703 2.283,1.916c0.104,0.497 0.051,1.03 0.051,1.547c0.002,18.722 0.002,37.445 0.002,56.167c0,5.664 -1.165,7.437 -6.191,9.421l-106.244,0c-4.526,-1.706 -5.803,-5.108 -5.791,-9.748c0.101,-40.651 0.103,-81.304 0.005,-121.955c-0.013,-5.276 3.23,-8.923 8.798,-8.761c7.066,0.206 14.142,0.03 21.214,0.073c0.965,0.006 1.41,-0.259 1.788,-1.184c1.623,-3.976 4.629,-6.072 8.934,-6.22c1.289,-0.044 2.582,-0.035 3.871,-0.001c1.387,0.037 2.009,-0.506 2.127,-1.984c0.331,-4.139 2.494,-6.998 6.365,-8.548c0.349,-0.14 0.85,-0.07 1.01,-0.568l9.293,0Z" style="fill:#008caa;fill-rule:nonzero;"/><path d="M73.828,77.136c5.262,0 10.525,0.009 15.787,-0.007c1.321,-0.004 2.339,0.384 2.714,1.777c0.326,1.211 -0.372,2.436 -1.621,2.737c-0.593,0.142 -1.227,0.15 -1.842,0.15c-10.113,0.008 -20.225,0.006 -30.338,0.005c-0.361,0 -0.724,0.015 -1.083,-0.014c-1.607,-0.13 -2.491,-1 -2.459,-2.401c0.033,-1.392 0.94,-2.23 2.589,-2.238c5.417,-0.025 10.835,-0.009 16.253,-0.009" style="fill:#008caa;fill-rule:nonzero;"/><path d="M73.667,48.494c-5.315,0 -10.629,-0.011 -15.944,0.009c-1.122,0.004 -2.054,-0.274 -2.559,-1.352c-0.611,-1.306 0.094,-2.819 1.531,-3.167c0.688,-0.166 1.431,-0.145 2.149,-0.145c9.907,-0.009 19.814,-0.006 29.721,-0.006c0.413,0 0.826,-0.016 1.238,0.006c1.618,0.087 2.687,1.091 2.623,2.446c-0.063,1.328 -1.06,2.195 -2.66,2.201c-5.366,0.019 -10.733,0.008 -16.099,0.008" style="fill:#008caa;fill-rule:nonzero;"/><path d="M73.783,54.23c5.211,0 10.423,-0.006 15.635,0.003c1.937,0.004 3.028,0.862 3.013,2.324c-0.015,1.45 -1.138,2.329 -3.052,2.33c-10.475,0.007 -20.95,0.004 -31.424,0.003c-0.155,0 -0.31,0.007 -0.465,-0.003c-1.596,-0.107 -2.512,-0.974 -2.504,-2.368c0.007,-1.411 0.904,-2.27 2.543,-2.278c5.418,-0.026 10.836,-0.01 16.254,-0.011" style="fill:#008caa;fill-rule:nonzero;"/><path d="M34.552,126.61c-1.093,-0.072 -2.042,-0.407 -2.844,-1.123c-1.614,-1.44 -3.249,-2.859 -4.843,-4.321c-1.159,-1.064 -1.307,-2.401 -0.453,-3.413c0.899,-1.065 2.307,-1.1 3.548,-0.037c1.251,1.073 2.521,2.134 3.681,3.301c0.744,0.748 1.061,0.525 1.571,-0.227c2.143,-3.151 4.339,-6.265 6.525,-9.386c0.722,-1.031 1.665,-1.545 2.92,-1.016c1.158,0.488 1.588,1.42 1.379,2.63c-0.059,0.34 -0.246,0.68 -0.447,0.969c-2.523,3.639 -5.042,7.281 -7.602,10.894c-0.826,1.166 -2.06,1.657 -3.435,1.729" style="fill:#008caa;fill-rule:nonzero;"/><path d="M34.517,88.194c2.22,-3.181 4.398,-6.302 6.577,-9.423c0.266,-0.38 0.514,-0.774 0.808,-1.131c0.876,-1.067 2.104,-1.297 3.144,-0.612c1.093,0.719 1.42,2.075 0.642,3.259c-1.244,1.893 -2.58,3.725 -3.877,5.583c-1.238,1.773 -2.438,3.574 -3.723,5.313c-1.617,2.188 -4.285,2.512 -6.352,0.77c-1.693,-1.427 -3.343,-2.908 -4.969,-4.414c-1.125,-1.042 -1.195,-2.437 -0.27,-3.424c0.871,-0.929 2.212,-0.985 3.318,-0.05c1.566,1.325 3.086,2.705 4.702,4.129" style="fill:#008caa;fill-rule:nonzero;"/><path d="M34.436,59.002c-1.096,0.033 -2.004,-0.414 -2.801,-1.119c-1.585,-1.403 -3.177,-2.799 -4.736,-4.231c-1.222,-1.124 -1.357,-2.51 -0.406,-3.53c0.976,-1.048 2.234,-1.021 3.552,0.121c1.248,1.082 2.499,2.164 3.687,3.31c0.622,0.601 0.929,0.481 1.382,-0.183c2.006,-2.94 4.058,-5.85 6.096,-8.768c0.266,-0.381 0.518,-0.778 0.831,-1.117c0.897,-0.966 1.967,-1.143 3.05,-0.4c1.088,0.746 1.418,1.901 0.689,2.978c-2.658,3.929 -5.384,7.813 -8.166,11.655c-0.726,1.003 -1.92,1.349 -3.178,1.284" style="fill:#008caa;fill-rule:nonzero;"/><path d="M65.573,87.476c2.58,0 5.16,-0.017 7.741,0.007c1.676,0.015 2.717,0.939 2.705,2.324c-0.012,1.369 -1.082,2.316 -2.737,2.321c-5.212,0.019 -10.424,0.02 -15.637,0c-1.687,-0.007 -2.667,-0.915 -2.661,-2.352c0.006,-1.447 0.953,-2.279 2.693,-2.294c2.632,-0.022 5.264,-0.006 7.896,-0.006" style="fill:#008caa;fill-rule:nonzero;"/><path d="M70.637,132.789c-2.316,-1.857 -4.586,-3.725 -6.913,-5.521c-0.996,-0.768 -0.053,-1.15 0.259,-1.543c6.235,-7.841 12.497,-15.66 18.755,-23.483c9.71,-12.136 19.433,-24.261 29.105,-36.428c0.788,-0.99 1.251,-1.143 2.228,-0.272c1.695,1.508 3.48,2.922 5.307,4.268c0.879,0.647 0.886,1.055 0.214,1.89c-8.449,10.499 -16.859,21.031 -25.279,31.553c-7.678,9.596 -15.357,19.191 -23.037,28.785c-0.19,0.238 -0.394,0.464 -0.639,0.751" style="fill:#fcfcfc;fill-rule:nonzero;"/><path d="M59.231,25.89c-7.117,0 -14.234,0.004 -21.351,-0.002c-1.928,-0.002 -2.094,-0.182 -2.099,-2.143c-0.002,-1.085 -0.031,-2.172 0.022,-3.255c0.127,-2.551 2.11,-4.577 4.651,-4.706c1.492,-0.077 2.991,-0.004 4.486,-0.036c3.77,-0.08 6.161,-2.378 6.397,-6.123c0.184,-2.919 2.202,-4.908 5.084,-4.96c1.804,-0.033 3.61,-0.032 5.414,-0.002c2.781,0.047 4.766,1.888 5.051,4.636c0.47,4.521 2.623,6.448 7.212,6.454c1.083,0.001 2.167,-0.02 3.249,0.005c3.048,0.071 5.083,2.097 5.198,5.175c0.034,0.929 0.011,1.86 0.006,2.79c-0.009,1.925 -0.231,2.163 -2.125,2.165c-7.065,0.006 -14.13,0.002 -21.195,0.002" style="fill:#fdfdfd;fill-rule:nonzero;"/><path d="M131.354,55.482c0.023,0.824 -0.33,1.872 -1.069,2.793c-2.127,2.652 -4.272,5.291 -6.355,7.976c-0.5,0.645 -0.82,0.659 -1.42,0.161c-1.982,-1.642 -3.993,-3.25 -6.021,-4.835c-0.53,-0.414 -0.709,-0.679 -0.203,-1.294c2.256,-2.745 4.418,-5.569 6.691,-8.299c1.311,-1.574 3.467,-2.022 5.348,-1.304c1.793,0.686 3.005,2.466 3.029,4.802" style="fill:#fcfcfc;fill-rule:nonzero;"/><path d="M67.336,136.124c-4.17,3.386 -8.167,6.634 -12.169,9.878c-0.406,0.328 -0.834,0.671 -1.37,0.234c-0.568,-0.464 -0.373,-0.986 -0.106,-1.522c2.18,-4.375 4.363,-8.748 6.521,-13.134c0.283,-0.575 0.474,-0.84 1.094,-0.325c1.942,1.612 3.924,3.174 6.03,4.869" style="fill:#fcfcfc;fill-rule:nonzero;"/></g></svg>